<?xml version="1.0" encoding="iso-8859-1"?>
<!-- Generator: Adobe Illustrator 19.0.0, SVG Export Plug-In . SVG Version: 6.00 Build 0)  -->
<svg version="1.1" id="Layer_1" xmlns="http://www.w3.org/2000/svg" xmlns:xlink="http://www.w3.org/1999/xlink" x="0px" y="0px"
	 viewBox="0 0 469 469" style="enable-background:new 0 0 469 469;" xml:space="preserve">
<g>
	<g>
		<g>
			<path d="M444.299,69.66H24.701C11.081,69.66,0,80.741,0,94.361v280.278c0,13.62,11.081,24.701,24.701,24.701h419.598
				c13.62,0,24.701-11.081,24.701-24.701V94.361C469,80.741,457.919,69.66,444.299,69.66z M454,374.639
				c0,5.349-4.352,9.701-9.701,9.701H24.701c-5.35,0-9.701-4.352-9.701-9.701V128.007h439V374.639z M454,113.007H15V94.361
				c0-5.349,4.352-9.701,9.701-9.701h419.598c5.35,0,9.701,4.352,9.701,9.701V113.007z"/>
			<path d="M30.501,207.231h334.054l-100.714,95.107V226.76c0-4.142-3.357-7.5-7.5-7.5h-99c-4.143,0-7.5,3.358-7.5,7.5v142.08
				c0,4.142,3.357,7.5,7.5,7.5H438.5c4.143,0,7.5-3.358,7.5-7.5V147.718c0-2.995-1.781-5.702-4.531-6.887
				c-0.956-0.413-2.968-0.61-2.968-0.61h-408c-4.143,0-7.5,3.358-7.5,7.5v52.01C23.001,203.873,26.358,207.231,30.501,207.231z
				 M164.841,361.34V234.26h84v82.242L201.36,361.34H164.841z M431,361.341H223.208L431,165.116V361.341z M38.001,155.22h381.63
				l-39.192,37.01H38.001V155.22z"/>
			<path d="M305.536,328.612c1.135,2.855,3.897,4.729,6.969,4.729H395.5c4.143,0,7.5-3.358,7.5-7.5v-78.375
				c0-2.995-1.781-5.702-4.531-6.887c-2.751-1.185-5.942-0.621-8.118,1.434l-82.995,78.375
				C305.123,322.498,304.401,325.757,305.536,328.612z M388,264.864v53.477h-56.629L388,264.864z"/>
			<path d="M267.5,91.333h-188c-4.143,0-7.5,3.358-7.5,7.5c0,4.142,3.357,7.5,7.5,7.5h188c4.143,0,7.5-3.358,7.5-7.5
				C275,94.691,271.643,91.333,267.5,91.333z"/>
			<path d="M54.503,91.329c-1.98,0-3.91,0.8-5.311,2.2c-1.39,1.4-2.189,3.33-2.189,5.31c0,1.97,0.8,3.9,2.189,5.3
				c1.401,1.39,3.33,2.19,5.311,2.19c1.97,0,3.899-0.8,5.3-2.19c1.4-1.4,2.2-3.33,2.2-5.3c0-1.98-0.8-3.91-2.2-5.31
				C58.403,92.129,56.473,91.329,54.503,91.329z"/>
			<path d="M30.503,91.329c-1.98,0-3.91,0.8-5.311,2.2c-1.39,1.4-2.189,3.33-2.189,5.3c0,1.98,0.8,3.91,2.189,5.31
				c1.401,1.39,3.33,2.19,5.311,2.19c1.97,0,3.91-0.8,5.3-2.19c1.4-1.4,2.2-3.33,2.2-5.31c0-1.97-0.8-3.9-2.2-5.3
				C34.413,92.129,32.473,91.329,30.503,91.329z"/>
			<path d="M30.5,376.341h98.997c4.143,0,7.5-3.358,7.5-7.5V226.757c0-4.142-3.357-7.5-7.5-7.5H30.5c-4.143,0-7.5,3.358-7.5,7.5
				v142.084C23,372.983,26.357,376.341,30.5,376.341z M44.866,361.341l35.133-50.423l35.132,50.423H44.866z M121.997,344.957
				l-32.858-47.158l32.858-47.159V344.957z M115.131,234.257L79.999,284.68l-35.133-50.423H115.131z M38,250.64l32.858,47.159
				L38,344.958V250.64z"/>
		</g>
	</g>
</g>
<g>
</g>
<g>
</g>
<g>
</g>
<g>
</g>
<g>
</g>
<g>
</g>
<g>
</g>
<g>
</g>
<g>
</g>
<g>
</g>
<g>
</g>
<g>
</g>
<g>
</g>
<g>
</g>
<g>
</g>
</svg>
