<?xml version="1.0" encoding="iso-8859-1"?>
<!-- Generator: Adobe Illustrator 19.0.0, SVG Export Plug-In . SVG Version: 6.00 Build 0)  -->
<svg version="1.1" id="Layer_1" xmlns="http://www.w3.org/2000/svg" xmlns:xlink="http://www.w3.org/1999/xlink" x="0px" y="0px"
	 viewBox="0 0 469 469" style="enable-background:new 0 0 469 469;" xml:space="preserve">
<g>
	<g>
		<g>
			<path d="M444.299,69.66H24.701C11.081,69.66,0,80.741,0,94.361v280.278c0,13.62,11.081,24.701,24.701,24.701h419.598
				c13.62,0,24.701-11.081,24.701-24.701V94.361C469,80.741,457.919,69.66,444.299,69.66z M454,374.639
				c0,5.349-4.352,9.701-9.701,9.701H24.701c-5.35,0-9.701-4.352-9.701-9.701V128.007h439V374.639z M454,113.007H15V94.361
				c0-5.349,4.352-9.701,9.701-9.701h419.598c5.35,0,9.701,4.352,9.701,9.701V113.007z"/>
			<path d="M267.5,91.333h-188c-4.143,0-7.5,3.358-7.5,7.5c0,4.142,3.357,7.5,7.5,7.5h188c4.143,0,7.5-3.358,7.5-7.5
				C275,94.691,271.643,91.333,267.5,91.333z"/>
			<path d="M54.503,91.339c-1.98,0-3.91,0.8-5.311,2.19c-1.39,1.4-2.189,3.33-2.189,5.3c0,1.98,0.8,3.91,2.189,5.31
				c1.401,1.39,3.33,2.19,5.311,2.19c1.97,0,3.899-0.8,5.3-2.19c1.4-1.4,2.2-3.33,2.2-5.31c0-1.97-0.8-3.9-2.2-5.3
				C58.413,92.139,56.473,91.339,54.503,91.339z"/>
			<path d="M30.503,91.339c-1.98,0-3.91,0.8-5.311,2.19c-1.39,1.4-2.189,3.33-2.189,5.3c0,1.98,0.8,3.91,2.189,5.31
				c1.401,1.39,3.33,2.19,5.311,2.19c1.97,0,3.91-0.8,5.3-2.19c1.4-1.4,2.2-3.33,2.2-5.31c0-1.97-0.8-3.9-2.2-5.3
				C34.413,92.139,32.473,91.339,30.503,91.339z"/>
			<path d="M82.554,320.469c-3.389-2.382-8.067-1.566-10.449,1.822l-23.436,33.336c-1.661,2.364-1.817,5.472-0.401,7.99
				c1.335,2.372,3.84,3.823,6.535,3.823c0.167,0,0.334-0.005,0.502-0.017l40.659-2.717c4.133-0.276,7.26-3.851,6.983-7.983
				c-0.276-4.133-3.851-7.262-7.983-6.983l-7.635,0.51l147.17-82.783l147.17,82.783l-7.634-0.51
				c-4.111-0.267-7.707,2.85-7.983,6.983s2.851,7.707,6.983,7.983l40.658,2.717c0.168,0.011,0.335,0.017,0.502,0.017
				c2.695,0,5.201-1.451,6.535-3.823c1.416-2.518,1.26-5.626-0.401-7.99l-23.436-33.336c-2.382-3.388-7.061-4.204-10.449-1.822
				c-3.389,2.382-4.204,7.061-1.822,10.449l4.4,6.259l-139.226-78.314l139.226-78.314l-4.4,6.258
				c-2.381,3.388-1.565,8.067,1.823,10.449c1.312,0.922,2.816,1.365,4.307,1.365c2.359,0,4.683-1.11,6.143-3.187l23.436-33.336
				c1.661-2.364,1.817-5.472,0.401-7.99c-1.417-2.519-4.159-3.998-7.037-3.807l-40.658,2.717c-4.133,0.276-7.26,3.851-6.983,7.983
				c0.277,4.132,3.857,7.249,7.983,6.983l7.634-0.51L234.5,250.258L87.33,167.475l7.634,0.51c4.114,0.278,7.707-2.85,7.983-6.983
				s-2.851-7.707-6.983-7.983l-40.659-2.717c-2.88-0.191-5.62,1.288-7.037,3.807c-1.416,2.518-1.26,5.626,0.401,7.99l23.436,33.336
				c1.46,2.077,3.783,3.187,6.143,3.187c1.49,0,2.995-0.443,4.307-1.365c3.389-2.382,4.204-7.061,1.822-10.449l-4.4-6.259
				l139.227,78.315L79.976,337.177l4.4-6.259C86.758,327.529,85.942,322.851,82.554,320.469z"/>
		</g>
	</g>
</g>
<g>
</g>
<g>
</g>
<g>
</g>
<g>
</g>
<g>
</g>
<g>
</g>
<g>
</g>
<g>
</g>
<g>
</g>
<g>
</g>
<g>
</g>
<g>
</g>
<g>
</g>
<g>
</g>
<g>
</g>
</svg>
