<?xml version="1.0" encoding="iso-8859-1"?>
<!-- Generator: Adobe Illustrator 19.0.0, SVG Export Plug-In . SVG Version: 6.00 Build 0)  -->
<svg version="1.1" id="Layer_1" xmlns="http://www.w3.org/2000/svg" xmlns:xlink="http://www.w3.org/1999/xlink" x="0px" y="0px"
	 viewBox="0 0 469 469" style="enable-background:new 0 0 469 469;" xml:space="preserve">
<g>
	<g>
		<g>
			<path d="M181.515,277.323h170.992c11.556,0,20.957-9.401,20.957-20.957c0-11.556-9.401-20.957-20.957-20.957H181.515
				c-11.556,0-20.957,9.401-20.957,20.957C160.558,267.922,169.959,277.323,181.515,277.323z M181.515,250.409h170.992
				c3.285,0,5.957,2.672,5.957,5.957c0,3.285-2.672,5.957-5.957,5.957H181.515c-3.285,0-5.957-2.672-5.957-5.957
				C175.558,253.081,178.23,250.409,181.515,250.409z"/>
			<path d="M119.234,274.372c3.975,0,7.95-0.942,11.56-2.821l14.603,14.603c1.464,1.464,3.384,2.197,5.303,2.197
				s3.839-0.732,5.303-2.197c2.929-2.929,2.929-7.678,0-10.607l-14.597-14.598c1.846-3.528,2.828-7.471,2.828-11.566
				c0-6.678-2.601-12.956-7.323-17.677c-4.722-4.722-11-7.323-17.677-7.323c-6.678,0-12.956,2.601-17.678,7.323
				c-9.747,9.748-9.747,25.608,0,35.355C106.43,271.937,112.831,274.372,119.234,274.372z M112.163,242.312
				c1.889-1.889,4.4-2.929,7.071-2.929s5.182,1.04,7.071,2.929c1.889,1.889,2.929,4.4,2.929,7.071s-1.041,5.182-2.929,7.071
				c-3.899,3.899-10.243,3.899-14.142,0C108.264,252.555,108.264,246.211,112.163,242.312z"/>
			<path d="M444.299,69.659H24.701C11.081,69.659,0,80.739,0,94.361v280.279c0,13.62,11.081,24.701,24.701,24.701h419.598
				c13.62,0,24.701-11.081,24.701-24.701V94.361C469,80.739,457.919,69.659,444.299,69.659z M454,374.638
				c0,5.349-4.352,9.701-9.701,9.701H24.701c-5.349,0-9.701-4.352-9.701-9.701V128.007h439V374.638z M454,113.007H15V94.361
				c0-5.349,4.352-9.701,9.701-9.701h419.598c5.349,0,9.701,4.352,9.701,9.701V113.007z"/>
			<path d="M267.5,91.333h-188c-4.142,0-7.5,3.358-7.5,7.5c0,4.142,3.358,7.5,7.5,7.5h188c4.142,0,7.5-3.358,7.5-7.5
				C275,94.69,271.642,91.333,267.5,91.333z"/>
			<path d="M54.503,91.338c-1.98,0-3.91,0.8-5.31,2.19c-1.39,1.4-2.19,3.33-2.19,5.3c0,1.98,0.8,3.91,2.19,5.31
				c1.4,1.39,3.33,2.19,5.31,2.19c1.97,0,3.9-0.8,5.3-2.19c1.4-1.4,2.2-3.33,2.2-5.31c0-1.97-0.8-3.9-2.2-5.3
				C58.403,92.138,56.473,91.338,54.503,91.338z"/>
			<path d="M30.503,91.338c-1.98,0-3.91,0.8-5.31,2.19c-1.39,1.4-2.19,3.33-2.19,5.3c0,1.98,0.8,3.91,2.19,5.31
				c1.4,1.39,3.33,2.19,5.31,2.19c1.97,0,3.9-0.8,5.3-2.19c1.4-1.4,2.2-3.33,2.2-5.31c0-1.97-0.8-3.9-2.2-5.3
				C34.403,92.138,32.473,91.338,30.503,91.338z"/>
		</g>
	</g>
</g>
<g>
</g>
<g>
</g>
<g>
</g>
<g>
</g>
<g>
</g>
<g>
</g>
<g>
</g>
<g>
</g>
<g>
</g>
<g>
</g>
<g>
</g>
<g>
</g>
<g>
</g>
<g>
</g>
<g>
</g>
</svg>
