<?xml version="1.0" encoding="iso-8859-1"?>
<!-- Generator: Adobe Illustrator 19.0.0, SVG Export Plug-In . SVG Version: 6.00 Build 0)  -->
<svg version="1.1" id="Layer_1" xmlns="http://www.w3.org/2000/svg" xmlns:xlink="http://www.w3.org/1999/xlink" x="0px" y="0px"
	 viewBox="0 0 469 469" style="enable-background:new 0 0 469 469;" xml:space="preserve">
<g>
	<g>
		<g>
			<path d="M444.299,69.66H24.701C11.081,69.66,0,80.741,0,94.361v280.278c0,13.62,11.081,24.701,24.701,24.701h419.598
				c13.62,0,24.701-11.081,24.701-24.701V94.361C469,80.741,457.919,69.66,444.299,69.66z M167,384.337H24.7
				c-0.01,0-0.019,0.001-0.029,0.001c-5.335-0.016-9.672-4.361-9.672-9.7v-29.521H15h152V384.337z M167,330.117H15v-39.22h152
				V330.117z M167,275.897H15v-39.22h152V275.897z M167,221.677H15v-39.22h152V221.677z M167,167.457H15v-39.45h152V167.457z
				 M454,374.639c0,5.349-4.352,9.701-9.701,9.701H182V128.007h272V374.639z M454,113.007H15V94.361
				c0-5.349,4.352-9.701,9.701-9.701h419.598c5.349,0,9.701,4.352,9.701,9.701V113.007z"/>
			<path d="M267.5,91.333h-188c-4.142,0-7.5,3.358-7.5,7.5c0,4.142,3.358,7.5,7.5,7.5h188c4.142,0,7.5-3.358,7.5-7.5
				C275,94.691,271.642,91.333,267.5,91.333z"/>
			<path d="M54.503,91.329c-1.98,0-3.91,0.81-5.31,2.2c-1.39,1.4-2.19,3.33-2.19,5.3c0,1.98,0.8,3.91,2.19,5.31
				c1.4,1.39,3.33,2.2,5.31,2.2c1.97,0,3.9-0.81,5.3-2.2c1.4-1.4,2.2-3.33,2.2-5.31c0-1.97-0.8-3.9-2.2-5.3
				C58.403,92.139,56.473,91.329,54.503,91.329z"/>
			<path d="M30.503,91.329c-1.98,0-3.91,0.8-5.31,2.2c-1.39,1.4-2.19,3.33-2.19,5.3c0,1.98,0.8,3.91,2.19,5.31
				c1.4,1.39,3.33,2.19,5.31,2.19c1.97,0,3.9-0.8,5.3-2.19c1.4-1.4,2.2-3.33,2.2-5.31c0-1.97-0.8-3.9-2.2-5.3
				C34.403,92.129,32.473,91.329,30.503,91.329z"/>
			<path d="M44,155.347h64.5c4.142,0,7.5-3.358,7.5-7.5c0-4.142-3.358-7.5-7.5-7.5H44c-4.142,0-7.5,3.358-7.5,7.5
				C36.5,151.989,39.858,155.347,44,155.347z"/>
			<path d="M138.503,155.349c1.97,0,3.9-0.8,5.3-2.2c1.4-1.4,2.2-3.33,2.2-5.3c0-1.97-0.8-3.91-2.2-5.31
				c-1.4-1.39-3.33-2.19-5.3-2.19c-1.98,0-3.91,0.8-5.31,2.19c-1.39,1.4-2.19,3.33-2.19,5.31c0,1.97,0.8,3.91,2.19,5.3
				C134.593,154.549,136.523,155.349,138.503,155.349z"/>
			<path d="M138.503,372.229c1.97,0,3.9-0.8,5.3-2.2c1.4-1.4,2.2-3.33,2.2-5.3c0-1.98-0.8-3.91-2.2-5.3c-1.4-1.4-3.33-2.2-5.3-2.2
				c-1.98,0-3.91,0.8-5.31,2.2c-1.39,1.39-2.19,3.32-2.19,5.3c0,1.97,0.8,3.9,2.19,5.3
				C134.593,371.429,136.523,372.229,138.503,372.229z"/>
			<path d="M138.503,318.009c1.97,0,3.9-0.8,5.3-2.2c1.4-1.4,2.2-3.33,2.2-5.3c0-1.98-0.8-3.91-2.2-5.3c-1.4-1.4-3.33-2.2-5.3-2.2
				c-1.98,0-3.91,0.8-5.31,2.2c-1.39,1.39-2.19,3.32-2.19,5.3c0,1.97,0.8,3.91,2.19,5.3
				C134.593,317.209,136.523,318.009,138.503,318.009z"/>
			<path d="M138.503,263.789c1.97,0,3.9-0.8,5.3-2.2c1.4-1.4,2.2-3.33,2.2-5.3c0-1.97-0.8-3.91-2.2-5.31
				c-1.4-1.39-3.33-2.19-5.3-2.19c-1.98,0-3.91,0.8-5.31,2.19c-1.39,1.4-2.19,3.33-2.19,5.31c0,1.97,0.8,3.91,2.19,5.3
				C134.593,262.989,136.523,263.789,138.503,263.789z"/>
			<path d="M138.503,209.569c1.97,0,3.9-0.8,5.3-2.2c1.4-1.4,2.2-3.33,2.2-5.3c0-1.97-0.8-3.91-2.2-5.31
				c-1.4-1.39-3.33-2.19-5.3-2.19c-1.98,0-3.91,0.8-5.31,2.19c-1.39,1.4-2.19,3.33-2.19,5.31c0,1.97,0.8,3.91,2.19,5.3
				C134.593,208.769,136.523,209.569,138.503,209.569z"/>
			<path d="M44,372.227h64.5c4.142,0,7.5-3.358,7.5-7.5c0-4.142-3.358-7.5-7.5-7.5H44c-4.142,0-7.5,3.358-7.5,7.5
				C36.5,368.869,39.858,372.227,44,372.227z"/>
			<path d="M44,318.007h64.5c4.142,0,7.5-3.358,7.5-7.5c0-4.142-3.358-7.5-7.5-7.5H44c-4.142,0-7.5,3.358-7.5,7.5
				C36.5,314.649,39.858,318.007,44,318.007z"/>
			<path d="M44,263.787h64.5c4.142,0,7.5-3.358,7.5-7.5c0-4.142-3.358-7.5-7.5-7.5H44c-4.142,0-7.5,3.358-7.5,7.5
				C36.5,260.429,39.858,263.787,44,263.787z"/>
			<path d="M44,209.567h64.5c4.142,0,7.5-3.358,7.5-7.5c0-4.142-3.358-7.5-7.5-7.5H44c-4.142,0-7.5,3.358-7.5,7.5
				C36.5,206.209,39.858,209.567,44,209.567z"/>
			<path d="M201.812,298.358c1.464,1.465,3.384,2.197,5.303,2.197s3.839-0.732,5.303-2.197l36.77-36.77
				c1.407-1.406,2.197-3.314,2.197-5.303c0-1.989-0.79-3.897-2.197-5.303l-36.77-36.768c-2.929-2.929-7.678-2.929-10.606,0
				c-2.929,2.929-2.929,7.678,0,10.606l31.467,31.466l-31.467,31.466C198.883,290.681,198.883,295.43,201.812,298.358z"/>
		</g>
	</g>
</g>
<g>
</g>
<g>
</g>
<g>
</g>
<g>
</g>
<g>
</g>
<g>
</g>
<g>
</g>
<g>
</g>
<g>
</g>
<g>
</g>
<g>
</g>
<g>
</g>
<g>
</g>
<g>
</g>
<g>
</g>
</svg>
