<?xml version="1.0" encoding="iso-8859-1"?>
<!-- Generator: Adobe Illustrator 19.0.0, SVG Export Plug-In . SVG Version: 6.00 Build 0)  -->
<svg version="1.1" id="Layer_1" xmlns="http://www.w3.org/2000/svg" xmlns:xlink="http://www.w3.org/1999/xlink" x="0px" y="0px"
	 viewBox="0 0 469 469" style="enable-background:new 0 0 469 469;" xml:space="preserve">
<g>
	<g>
		<g>
			<path d="M444.299,69.66H24.701C11.081,69.66,0,80.741,0,94.361v280.278c0,13.62,11.081,24.701,24.701,24.701h419.598
				c13.62,0,24.701-11.081,24.701-24.701V94.361C469,80.741,457.919,69.66,444.299,69.66z M454,374.639
				c0,5.349-4.352,9.701-9.701,9.701H24.701c-5.349,0-9.701-4.352-9.701-9.701V128.007h439V374.639z M454,113.007H15V94.361
				c0-5.349,4.352-9.701,9.701-9.701h419.598c5.349,0,9.701,4.352,9.701,9.701V113.007z"/>
			<path d="M267.5,91.333h-188c-4.142,0-7.5,3.358-7.5,7.5c0,4.142,3.358,7.5,7.5,7.5h188c4.142,0,7.5-3.358,7.5-7.5
				C275,94.691,271.642,91.333,267.5,91.333z"/>
			<path d="M54.503,91.329c-1.98,0-3.91,0.81-5.31,2.2c-1.39,1.4-2.19,3.33-2.19,5.3c0,1.98,0.8,3.91,2.19,5.31
				c1.4,1.39,3.33,2.19,5.31,2.19c1.97,0,3.9-0.8,5.3-2.19c1.4-1.4,2.2-3.33,2.2-5.31c0-1.97-0.8-3.9-2.2-5.3
				C58.403,92.139,56.473,91.329,54.503,91.329z"/>
			<path d="M30.503,91.339c-1.98,0-3.91,0.8-5.31,2.19c-1.39,1.4-2.19,3.33-2.19,5.3c0,1.98,0.8,3.91,2.19,5.31
				c1.4,1.39,3.33,2.19,5.31,2.19c1.97,0,3.9-0.8,5.3-2.19c1.4-1.4,2.2-3.33,2.2-5.31c0-1.97-0.8-3.9-2.2-5.3
				C34.403,92.139,32.473,91.339,30.503,91.339z"/>
			<path d="M44.541,338.061c1.476,1.932,3.708,2.947,5.965,2.947c1.588,0,3.189-0.502,4.548-1.541l39.806-30.414l37.296,30.277
				c2.893,2.348,7.067,2.217,9.807-0.305l98.072-90.303l41.277,23.315c2.658,1.501,5.961,1.243,8.352-0.657l133.5-106
				c3.244-2.576,3.786-7.293,1.21-10.537c-2.576-3.243-7.294-3.785-10.538-1.209L284.292,256.493l-41.633-23.516
				c-2.834-1.6-6.375-1.191-8.769,1.013l-97.316,89.607l-36.847-29.912c-2.689-2.184-6.526-2.241-9.28-0.137l-44.5,34
				C42.655,330.063,42.026,334.77,44.541,338.061z"/>
			<path d="M49.5,287.007h30c4.142,0,7.5-3.358,7.5-7.5c0-4.142-3.358-7.5-7.5-7.5h-30c-4.142,0-7.5,3.358-7.5,7.5
				C42,283.649,45.358,287.007,49.5,287.007z"/>
			<path d="M183.5,346.007h-30c-4.142,0-7.5,3.358-7.5,7.5c0,4.142,3.358,7.5,7.5,7.5h30c4.142,0,7.5-3.358,7.5-7.5
				C191,349.365,187.642,346.007,183.5,346.007z"/>
			<path d="M185.5,229.007h30c4.142,0,7.5-3.358,7.5-7.5c0-4.142-3.358-7.5-7.5-7.5h-30c-4.142,0-7.5,3.358-7.5,7.5
				C178,225.649,181.358,229.007,185.5,229.007z"/>
			<path d="M335.5,276.007h-30c-4.142,0-7.5,3.358-7.5,7.5c0,4.142,3.358,7.5,7.5,7.5h30c4.142,0,7.5-3.358,7.5-7.5
				C343,279.365,339.642,276.007,335.5,276.007z"/>
		</g>
	</g>
</g>
<g>
</g>
<g>
</g>
<g>
</g>
<g>
</g>
<g>
</g>
<g>
</g>
<g>
</g>
<g>
</g>
<g>
</g>
<g>
</g>
<g>
</g>
<g>
</g>
<g>
</g>
<g>
</g>
<g>
</g>
</svg>
