<?xml version="1.0" encoding="iso-8859-1"?>
<!-- Generator: Adobe Illustrator 19.0.0, SVG Export Plug-In . SVG Version: 6.00 Build 0)  -->
<svg version="1.1" id="Layer_1" xmlns="http://www.w3.org/2000/svg" xmlns:xlink="http://www.w3.org/1999/xlink" x="0px" y="0px"
	 viewBox="0 0 469 469" style="enable-background:new 0 0 469 469;" xml:space="preserve">
<g>
	<g>
		<g>
			<path d="M444.299,69.659H24.701C11.081,69.659,0,80.739,0,94.361v280.279c0,13.62,11.081,24.701,24.701,24.701h419.598
				c13.62,0,24.701-11.081,24.701-24.701V94.361C469,80.739,457.919,69.659,444.299,69.659z M454,374.638
				c0,5.349-4.352,9.701-9.701,9.701H24.701c-5.349,0-9.701-4.352-9.701-9.701V128.007h439V374.638z M454,113.007H15V94.361
				c0-5.349,4.352-9.701,9.701-9.701h419.598c5.349,0,9.701,4.352,9.701,9.701V113.007z"/>
			<path d="M30.5,376.339h115.367c4.142,0,7.5-3.358,7.5-7.5V216.952c0-4.143-3.358-7.5-7.5-7.5H30.5c-4.142,0-7.5,3.358-7.5,7.5
				v151.887C23,372.982,26.358,376.339,30.5,376.339z M38,224.452h100.367v136.887H38V224.452z"/>
			<path d="M438.5,209.452H173.133c-4.142,0-7.5,3.358-7.5,7.5v151.887c0,4.142,3.358,7.5,7.5,7.5H438.5c4.142,0,7.5-3.358,7.5-7.5
				V216.952C446,212.809,442.642,209.452,438.5,209.452z M431,361.339H180.633V224.452H431V361.339z"/>
			<path d="M30.5,200.627h408c4.142,0,7.5-3.358,7.5-7.5v-49.876c0-4.142-3.358-7.5-7.5-7.5h-408c-4.142,0-7.5,3.358-7.5,7.5v49.876
				C23,197.269,26.358,200.627,30.5,200.627z M38,150.752h393v34.876H38V150.752z"/>
			<path d="M267.5,91.333h-188c-4.142,0-7.5,3.358-7.5,7.5c0,4.142,3.358,7.5,7.5,7.5h188c4.142,0,7.5-3.358,7.5-7.5
				C275,94.69,271.642,91.333,267.5,91.333z"/>
			<path d="M54.503,91.338c-1.98,0-3.91,0.8-5.31,2.19c-1.39,1.4-2.19,3.33-2.19,5.3c0,1.98,0.8,3.91,2.19,5.31
				c1.4,1.39,3.33,2.2,5.31,2.2c1.97,0,3.9-0.81,5.3-2.2c1.4-1.4,2.2-3.33,2.2-5.31c0-1.97-0.8-3.9-2.2-5.3
				C58.403,92.138,56.473,91.338,54.503,91.338z"/>
			<path d="M30.503,91.328c-1.98,0-3.91,0.8-5.31,2.2c-1.39,1.4-2.19,3.33-2.19,5.3c0,1.98,0.8,3.91,2.19,5.31
				c1.4,1.39,3.33,2.19,5.31,2.19c1.97,0,3.9-0.8,5.3-2.19c1.4-1.4,2.2-3.33,2.2-5.31c0-1.97-0.8-3.9-2.2-5.3
				C34.403,92.128,32.473,91.328,30.503,91.328z"/>
			<path d="M117.5,239.007H58.867c-4.142,0-7.5,3.358-7.5,7.5c0,4.142,3.358,7.5,7.5,7.5H117.5c4.142,0,7.5-3.358,7.5-7.5
				C125,242.364,121.642,239.007,117.5,239.007z"/>
			<path d="M117.5,269.006H58.867c-4.142,0-7.5,3.358-7.5,7.5c0,4.142,3.358,7.5,7.5,7.5H117.5c4.142,0,7.5-3.358,7.5-7.5
				C125,272.365,121.642,269.006,117.5,269.006z"/>
			<path d="M117.5,299.006H58.867c-4.142,0-7.5,3.358-7.5,7.5c0,4.142,3.358,7.5,7.5,7.5H117.5c4.142,0,7.5-3.358,7.5-7.5
				C125,302.365,121.642,299.006,117.5,299.006z"/>
			<path d="M117.5,329.006H58.867c-4.142,0-7.5,3.358-7.5,7.5c0,4.142,3.358,7.5,7.5,7.5H117.5c4.142,0,7.5-3.358,7.5-7.5
				C125,332.365,121.642,329.006,117.5,329.006z"/>
		</g>
	</g>
</g>
<g>
</g>
<g>
</g>
<g>
</g>
<g>
</g>
<g>
</g>
<g>
</g>
<g>
</g>
<g>
</g>
<g>
</g>
<g>
</g>
<g>
</g>
<g>
</g>
<g>
</g>
<g>
</g>
<g>
</g>
</svg>
