<?xml version="1.0" encoding="iso-8859-1"?>
<!-- Generator: Adobe Illustrator 19.0.0, SVG Export Plug-In . SVG Version: 6.00 Build 0)  -->
<svg version="1.1" id="Layer_1" xmlns="http://www.w3.org/2000/svg" xmlns:xlink="http://www.w3.org/1999/xlink" x="0px" y="0px"
	 viewBox="0 0 418.57 418.57" style="enable-background:new 0 0 418.57 418.57;" xml:space="preserve">
<g>
	<g>
		<path d="M346.112,107.494c0.969-5.353,1.458-10.797,1.458-16.273c0-50.089-40.755-90.84-90.851-90.84
			c-29.853,0-57.896,14.877-74.768,39.248c-11.135-4.894-23.284-7.458-35.522-7.458c-44.62,0-81.937,33.36-87.456,76.991
			C24.959,116.457,0,146.837,0,182.171c0,41.195,33.515,74.71,74.71,74.71h60.08v16.309h-8.501c-4.143,0-7.5,3.358-7.5,7.5v130
			c0,4.142,3.357,7.5,7.5,7.5h166c4.143,0,7.5-3.358,7.5-7.5v-130c0-4.142-3.357-7.5-7.5-7.5h-8.499V256.88h60.08
			c41.189,0,74.7-33.515,74.7-74.71C418.57,141.724,386.271,108.682,346.112,107.494z M284.789,288.188v115h-151v-115H284.789z
			 M209.29,137.744c-22.332,0-40.5,18.168-40.5,40.5v94.944h-19v-94.944c0-32.809,26.691-59.5,59.5-59.5
			c32.809,0,59.5,26.691,59.5,59.5v94.944h-19v-94.944C249.79,155.912,231.622,137.744,209.29,137.744z M183.79,241.88v-63.635
			c0-14.061,11.439-25.5,25.5-25.5c14.061,0,25.5,11.439,25.5,25.5v63.635H183.79z M234.79,256.88v16.309h-51V256.88H234.79z
			 M343.87,241.88h-60.08v-63.635c0-41.08-33.421-74.5-74.5-74.5s-74.5,33.42-74.5,74.5v63.635H74.71
			c-32.924,0-59.71-26.786-59.71-59.71c0-29.861,22.305-55.295,51.883-59.163c3.57-0.467,6.305-3.405,6.515-7
			c2.252-38.601,34.332-68.837,73.032-68.837c12.107,0,24.103,3.019,34.688,8.731c3.561,1.92,8.002,0.673,10.04-2.821
			c13.565-23.254,38.688-37.7,65.562-37.7c41.824,0,75.851,34.022,75.851,75.84c0,7.48-1.09,14.883-3.24,22.001
			c-0.729,2.414-0.196,5.031,1.417,6.969c1.613,1.937,4.089,2.931,6.598,2.653c2.271-0.255,4.467-0.384,6.525-0.384
			c32.919,0,59.7,26.786,59.7,59.71S376.789,241.88,343.87,241.88z"/>
	</g>
</g>
<g>
</g>
<g>
</g>
<g>
</g>
<g>
</g>
<g>
</g>
<g>
</g>
<g>
</g>
<g>
</g>
<g>
</g>
<g>
</g>
<g>
</g>
<g>
</g>
<g>
</g>
<g>
</g>
<g>
</g>
</svg>
