<?xml version="1.0" encoding="iso-8859-1"?>
<!-- Generator: Adobe Illustrator 19.0.0, SVG Export Plug-In . SVG Version: 6.00 Build 0)  -->
<svg version="1.1" id="Layer_1" xmlns="http://www.w3.org/2000/svg" xmlns:xlink="http://www.w3.org/1999/xlink" x="0px" y="0px"
	 viewBox="0 0 465.36 465.36" style="enable-background:new 0 0 465.36 465.36;" xml:space="preserve">
<g>
	<g>
		<path d="M382.86,229.105c-1.594,0-3.194,0.048-4.798,0.143c0.364-3.459,0.548-6.945,0.548-10.433
			c0-23.325-8.237-45.745-23.22-63.489V94.325c0-12.721-10.35-23.07-23.07-23.07h-57.76c-9.513,0-17.925,5.708-21.429,14.538
			l-11.939,30.012H133.04c-12.721,0-23.07,10.349-23.07,23.07v27.885c-21.078,14.422-34.104,37.344-35.695,62.765
			c-19.083,1.882-36.768,10.274-50.415,24.058C8.474,269.125,0,289.73,0,311.605c0,45.491,37.009,82.5,82.5,82.5h300.36
			c45.49,0,82.5-37.009,82.5-82.5C465.36,266.114,428.35,229.105,382.86,229.105z M124.969,138.875
			c0.001-4.45,3.621-8.07,8.071-8.07h113.24c3.072,0,5.833-1.874,6.969-4.728l13.822-34.746c1.205-3.037,4.215-5.077,7.489-5.077
			h57.76c4.45,0,8.07,3.62,8.07,8.07v143.484c-15.65-12.837-35.481-20.146-56.62-20.146c-28.255,0-54.908,13.589-71.654,36.013
			C199,241.838,181.947,235.2,164.048,235.2c-14.204,0-27.691,4.16-39.079,11.542V138.875z M382.86,379.105H82.5
			c-37.22,0-67.5-30.28-67.5-67.5c0-36.796,29.941-67.068,66.744-67.48c2.018-0.022,3.941-0.857,5.336-2.315
			c1.395-1.458,2.143-3.417,2.076-5.434l-0.018-0.484c-0.014-0.356-0.029-0.714-0.029-1.076c0-18.799,7.612-36.239,20.86-48.828
			v73.756c-4.936,5.654-9.043,12.135-12.077,19.308c-1.613,3.815,0.171,8.215,3.986,9.829c0.954,0.403,1.944,0.594,2.918,0.594
			c2.923,0,5.701-1.719,6.911-4.581c8.914-21.076,29.459-34.694,52.34-34.694c16.762,0,32.59,7.364,43.424,20.203
			c1.568,1.858,3.94,2.84,6.365,2.636c2.424-0.205,4.598-1.573,5.831-3.669c13.324-22.642,37.886-36.707,64.102-36.707
			c28.254,0,53.71,15.687,66.432,40.939c1.863,3.7,6.371,5.186,10.073,3.323c3.698-1.863,5.187-6.373,3.323-10.072
			c-2.38-4.724-5.131-9.168-8.208-13.307v-70.858c5.365,11.175,8.22,23.493,8.22,36.127c0,5.902-0.617,11.792-1.835,17.507
			c-0.522,2.451,0.214,5.002,1.963,6.797c1.75,1.795,4.279,2.598,6.744,2.14c4.111-0.765,8.276-1.153,12.378-1.153
			c37.22,0,67.5,30.28,67.5,67.5C450.359,348.826,420.08,379.105,382.86,379.105z"/>
	</g>
</g>
<g>
</g>
<g>
</g>
<g>
</g>
<g>
</g>
<g>
</g>
<g>
</g>
<g>
</g>
<g>
</g>
<g>
</g>
<g>
</g>
<g>
</g>
<g>
</g>
<g>
</g>
<g>
</g>
<g>
</g>
</svg>
