<?xml version="1.0" encoding="iso-8859-1"?>
<!-- Generator: Adobe Illustrator 19.0.0, SVG Export Plug-In . SVG Version: 6.00 Build 0)  -->
<svg version="1.1" id="Layer_1" xmlns="http://www.w3.org/2000/svg" xmlns:xlink="http://www.w3.org/1999/xlink" x="0px" y="0px"
	 viewBox="0 0 469 469" style="enable-background:new 0 0 469 469;" xml:space="preserve">
<g>
	<g>
		<g>
			<path d="M444.299,38.156H24.701C11.081,38.156,0,49.237,0,62.858v280.279c0,13.62,11.081,24.701,24.701,24.701h171.943
				l-10.687,48.006h-32.851c-4.142,0-7.5,3.358-7.5,7.5c0,4.142,3.358,7.5,7.5,7.5h162.788c4.143,0,7.5-3.358,7.5-7.5
				c0-4.142-3.357-7.5-7.5-7.5h-32.851l-10.687-48.006h171.943c13.62,0,24.701-11.081,24.701-24.701V62.858
				C469,49.237,457.919,38.156,444.299,38.156z M201.324,415.844l10.688-48.006h44.978l10.686,48.006H201.324z M454,343.136
				c0,5.349-4.352,9.701-9.701,9.701H24.701c-5.349,0-9.701-4.352-9.701-9.701V62.858c0-5.349,4.352-9.701,9.701-9.701h419.598
				c5.35,0,9.701,4.352,9.701,9.701V343.136z"/>
			<path d="M438.5,61.156h-408c-4.142,0-7.5,3.358-7.5,7.5v268.681c0,4.142,3.358,7.5,7.5,7.5h408c4.143,0,7.5-3.358,7.5-7.5V68.656
				C446,64.514,442.643,61.156,438.5,61.156z M431,329.838H38v-0.001V109.812h393V329.838z M431,94.811H38V76.156h393V94.811z"/>
			<path d="M107.318,266.296c32.864,0,59.601-26.737,59.601-59.601c-0.001-32.864-26.737-59.601-59.601-59.601
				s-59.601,26.737-59.601,59.601C47.717,239.559,74.454,266.296,107.318,266.296z M107.318,162.093
				c24.593,0,44.601,20.008,44.601,44.601c-0.001,24.593-20.008,44.601-44.601,44.601s-44.601-20.008-44.601-44.601
				C62.717,182.101,82.725,162.093,107.318,162.093z"/>
			<path d="M84.243,201.749c1.98,0,3.91-0.8,5.31-2.2c1.39-1.39,2.19-3.33,2.19-5.3c0-1.97-0.8-3.91-2.19-5.3
				c-1.4-1.4-3.33-2.2-5.31-2.2c-1.97,0-3.9,0.8-5.3,2.2c-1.4,1.39-2.2,3.33-2.2,5.3c0,1.97,0.8,3.91,2.2,5.3
				C80.343,200.949,82.273,201.749,84.243,201.749z"/>
			<path d="M130.383,201.749c1.98,0,3.91-0.8,5.31-2.2c1.39-1.39,2.19-3.32,2.19-5.3c0-1.98-0.8-3.91-2.19-5.3
				c-1.4-1.4-3.33-2.2-5.31-2.2c-1.97,0-3.9,0.8-5.3,2.2c-1.4,1.39-2.2,3.32-2.2,5.3c0,1.97,0.8,3.91,2.2,5.3
				C126.483,200.949,128.413,201.749,130.383,201.749z"/>
			<path d="M85.598,213.904c-2.929,2.929-2.929,7.678,0,10.607c5.988,5.988,13.854,8.982,21.72,8.982
				c7.866,0,15.731-2.994,21.72-8.982c2.929-2.929,2.929-7.678,0-10.607c-2.929-2.929-7.678-2.928-10.607,0
				c-6.128,6.128-16.099,6.128-22.227,0C93.275,210.975,88.526,210.975,85.598,213.904z"/>
			<path d="M232.681,266.296c32.864,0,59.601-26.737,59.601-59.601c0-32.864-26.737-59.601-59.601-59.601
				s-59.601,26.737-59.601,59.601C173.08,239.559,199.817,266.296,232.681,266.296z M232.681,162.093
				c24.593,0,44.601,20.008,44.601,44.601c0,24.593-20.008,44.601-44.601,44.601c-24.593,0-44.601-20.008-44.601-44.601
				C188.08,182.101,208.088,162.093,232.681,162.093z"/>
			<path d="M209.613,201.749c1.97,0,3.91-0.8,5.3-2.2c1.4-1.39,2.2-3.33,2.2-5.3c0-1.98-0.8-3.91-2.2-5.3
				c-1.39-1.4-3.33-2.2-5.3-2.2c-1.98,0-3.91,0.8-5.31,2.2c-1.39,1.39-2.19,3.32-2.19,5.3c0,1.97,0.8,3.91,2.19,5.3
				C205.703,200.949,207.633,201.749,209.613,201.749z"/>
			<path d="M255.753,201.749c1.97,0,3.91-0.8,5.3-2.2c1.4-1.4,2.2-3.33,2.2-5.3c0-1.97-0.8-3.91-2.2-5.3c-1.39-1.4-3.33-2.2-5.3-2.2
				c-1.98,0-3.91,0.8-5.311,2.2c-1.39,1.39-2.189,3.32-2.189,5.3c0,1.97,0.8,3.91,2.189,5.3
				C251.842,200.949,253.772,201.749,255.753,201.749z"/>
			<path d="M232.681,244.319c10.069,0,18.26-8.192,18.26-18.26c0-10.069-8.191-18.261-18.26-18.261
				c-10.069,0-18.261,8.192-18.261,18.261C214.42,236.128,222.612,244.319,232.681,244.319z M232.681,222.798
				c1.798,0,3.26,1.463,3.26,3.261c0,1.798-1.462,3.26-3.26,3.26c-1.798,0-3.261-1.463-3.261-3.26
				C229.42,224.261,230.883,222.798,232.681,222.798z"/>
			<path d="M358.044,266.296c32.865,0,59.602-26.737,59.602-59.601c0-32.864-26.738-59.601-59.602-59.601
				s-59.601,26.737-59.601,59.601C298.443,239.559,325.179,266.296,358.044,266.296z M358.044,162.093
				c24.594,0,44.602,20.008,44.602,44.601c0,24.593-20.008,44.601-44.602,44.601c-24.593,0-44.601-20.008-44.601-44.601
				C313.443,182.101,333.451,162.093,358.044,162.093z"/>
			<path d="M334.972,201.749c1.981,0,3.911-0.8,5.3-2.2c1.4-1.4,2.2-3.33,2.2-5.3c0-1.97-0.8-3.91-2.2-5.3
				c-1.39-1.4-3.319-2.2-5.3-2.2c-1.97,0-3.91,0.8-5.3,2.2c-1.4,1.39-2.2,3.33-2.2,5.3c0,1.97,0.8,3.91,2.2,5.3
				C331.062,200.949,333.002,201.749,334.972,201.749z"/>
			<path d="M381.112,201.749c1.971,0,3.91-0.8,5.301-2.2c1.399-1.4,2.199-3.33,2.199-5.3c0-1.98-0.8-3.91-2.199-5.3
				c-1.391-1.4-3.32-2.2-5.301-2.2c-1.97,0-3.909,0.8-5.3,2.2c-1.399,1.39-2.2,3.32-2.2,5.3c0,1.97,0.801,3.91,2.2,5.3
				C377.212,200.949,379.142,201.749,381.112,201.749z"/>
			<path d="M336.324,227.756c2.93,2.929,7.678,2.929,10.607,0c2.968-2.969,6.915-4.603,11.112-4.603
				c4.198,0,8.146,1.635,11.113,4.603c1.465,1.465,3.384,2.197,5.304,2.197c1.919,0,3.839-0.732,5.304-2.197
				c2.929-2.929,2.929-7.678,0-10.607c-5.801-5.801-13.515-8.997-21.72-8.997c-8.204,0-15.918,3.195-21.72,8.997
				C333.395,220.078,333.395,224.827,336.324,227.756z"/>
		</g>
	</g>
</g>
<g>
</g>
<g>
</g>
<g>
</g>
<g>
</g>
<g>
</g>
<g>
</g>
<g>
</g>
<g>
</g>
<g>
</g>
<g>
</g>
<g>
</g>
<g>
</g>
<g>
</g>
<g>
</g>
<g>
</g>
</svg>
