<?xml version="1.0" encoding="iso-8859-1"?>
<!-- Generator: Adobe Illustrator 19.0.0, SVG Export Plug-In . SVG Version: 6.00 Build 0)  -->
<svg version="1.1" id="Layer_1" xmlns="http://www.w3.org/2000/svg" xmlns:xlink="http://www.w3.org/1999/xlink" x="0px" y="0px"
	 viewBox="0 0 397.54 397.54" style="enable-background:new 0 0 397.54 397.54;" xml:space="preserve">
<g>
	<g>
		<path d="M390.04,318.584h-43.024v-81.549c0-4.142-3.358-7.5-7.5-7.5h-27.954V206.39c0-4.142-3.358-7.5-7.5-7.5H206.27v-16.277
			h97.792c4.142,0,7.5-3.358,7.5-7.5V117.37c0-4.142-3.358-7.5-7.5-7.5H206.27V93.594h159.953c4.142,0,7.5-3.358,7.5-7.5V13.713
			c0-4.142-3.358-7.5-7.5-7.5H31.317c-4.142,0-7.5,3.358-7.5,7.5v72.382c0,4.142,3.358,7.5,7.5,7.5H191.27v16.277H93.478
			c-4.142,0-7.5,3.358-7.5,7.5v57.742c0,4.142,3.358,7.5,7.5,7.5h97.792v16.277H93.478c-4.142,0-7.5,3.358-7.5,7.5v23.146H58.024
			c-4.142,0-7.5,3.358-7.5,7.5v81.549H7.5c-4.142,0-7.5,3.358-7.5,7.5v57.742c0,4.142,3.358,7.5,7.5,7.5h101.048
			c4.142,0,7.5-3.358,7.5-7.5v-57.742c0-4.142-3.358-7.5-7.5-7.5H65.524v-74.049h20.454v19.597c0,4.142,3.358,7.5,7.5,7.5h97.792
			v46.952h-43.024c-4.142,0-7.5,3.358-7.5,7.5v57.742c0,4.142,3.358,7.5,7.5,7.5h101.048c4.142,0,7.5-3.358,7.5-7.5v-57.742
			c0-4.142-3.358-7.5-7.5-7.5H206.27v-46.952h97.792c4.142,0,7.5-3.358,7.5-7.5v-19.597h20.454v74.049h-43.024
			c-4.142,0-7.5,3.358-7.5,7.5v57.742c0,4.142,3.358,7.5,7.5,7.5H390.04c4.142,0,7.5-3.358,7.5-7.5v-57.742
			C397.54,321.943,394.182,318.584,390.04,318.584z M101.048,333.583v42.742H15v-42.742H101.048z M38.817,78.594V21.213h319.906
			v57.382H38.817z M100.978,167.614v-42.742h195.583v42.742H100.978z M241.794,333.583v42.742h-86.048v-42.742H241.794z
			 M100.978,256.633V213.89h195.583v42.743H100.978z M382.54,376.326h-86.048v-42.742h86.048V376.326z"/>
	</g>
</g>
<g>
</g>
<g>
</g>
<g>
</g>
<g>
</g>
<g>
</g>
<g>
</g>
<g>
</g>
<g>
</g>
<g>
</g>
<g>
</g>
<g>
</g>
<g>
</g>
<g>
</g>
<g>
</g>
<g>
</g>
</svg>
