<?xml version="1.0" encoding="iso-8859-1"?>
<!-- Generator: Adobe Illustrator 19.0.0, SVG Export Plug-In . SVG Version: 6.00 Build 0)  -->
<svg version="1.1" id="Layer_1" xmlns="http://www.w3.org/2000/svg" xmlns:xlink="http://www.w3.org/1999/xlink" x="0px" y="0px"
	 viewBox="0 0 438.693 438.693" style="enable-background:new 0 0 438.693 438.693;" xml:space="preserve">
<g>
	<g>
		<path d="M436.978,323.669l-1.135-1.925c-8.485-14.415-14.82-30.578-18.829-48.04c-5.014-21.846-17.484-41.608-35.112-55.648
			c-8.975-7.148-19.092-12.644-29.848-16.314c-6.18-32.745-23.336-62.679-48.662-84.704c-26.309-22.878-59.888-35.785-94.793-36.473
			c-0.268-0.005-4.446-0.006-4.687-0.002c-14.806,0.275-29.276,2.696-43.187,7.213c0.043-1.194,0.063-2.39,0.049-3.588
			c-0.242-19.253-7.894-37.376-21.545-51.032c-13.652-13.657-31.771-21.311-51.018-21.553C71.266,11.4,54.679,17.057,41.468,27.576
			C28.467,37.928,19.27,52.503,15.575,68.611C12.743,80.93,8.288,92.3,2.326,102.417l-0.803,1.369
			c-1.706,2.895-1.993,6.357-0.79,9.497c1.203,3.138,3.729,5.519,6.939,6.534l12.837,4.041l-0.631,14.385
			c-0.18,5.399,1.791,10.511,5.547,14.395c3.759,3.885,8.805,6.025,14.209,6.025h4.391v14.9c0,4.142,3.357,7.5,7.5,7.5h14.292
			c-5.347,15.529-8.053,31.774-8.053,48.44c0,39.603,15.367,76.886,43.27,104.981c27.53,27.719,64.078,43.298,103.067,43.969
			c0.104,0.007,4.469-0.004,4.591-0.006c12.964-0.254,25.736-2.189,38.091-5.729c5.485,14.331,8.702,29.286,9.449,44.232l0.15,3.019
			c0.198,3.992,3.493,7.127,7.49,7.127H369.71c4.143,0,7.5-3.358,7.5-7.5v-23.781h9.1c6.733,0,13.02-2.665,17.702-7.502
			c4.683-4.838,7.142-11.208,6.919-18.023l-0.98-22.25l20.102-6.332c3.608-1.137,6.456-3.815,7.813-7.347
			C439.222,330.829,438.899,326.933,436.978,323.669z M199.242,96.243v65.879c-18.699-0.59-36.967-3.37-53.595-8.166
			C158.083,121.556,177.877,100.308,199.242,96.243z M157.54,104.845c-10.468,11.482-19.397,26.655-26.121,44.347
			c-8.267-3.16-15.862-6.808-22.7-10.913c12.856-13.794,28.557-24.929,45.998-32.285
			C155.655,105.599,156.596,105.218,157.54,104.845z M59.025,166.062v-14.9c0-4.142-3.357-7.5-7.5-7.5h-11.89
			c-1.303,0-2.521-0.516-3.427-1.454c-0.905-0.936-1.381-2.167-1.34-3.388l0.88-20.06c0.148-3.393-2.002-6.463-5.241-7.482
			l-13.538-4.262c5.88-10.653,10.324-22.425,13.227-35.048c6.056-26.399,29.985-45.372,57.076-45.372c0.248,0,0.5,0.001,0.749,0.005
			c15.313,0.192,29.731,6.287,40.601,17.159c10.869,10.873,16.962,25.297,17.155,40.609c0.037,3.176-0.188,6.341-0.649,9.455
			c-32.348,14.687-58.096,40.106-73.208,72.238H59.025z M83.642,176.53c4.073-9.452,9.263-18.378,15.378-26.609
			c8.27,5.157,17.514,9.68,27.63,13.508c-5.324,18.173-8.396,38.158-9.002,58.573H72.975
			C73.836,206.259,77.41,190.995,83.642,176.53z M98.959,309.121c-15.531-20.938-24.538-45.828-25.981-72.119h44.67
			c0.606,20.412,3.677,40.398,9.001,58.577C116.518,299.411,107.253,303.946,98.959,309.121z M111.678,323.913
			c-1.028-1.035-2.03-2.088-3.019-3.15c6.862-4.121,14.475-7.781,22.761-10.947c6.739,17.72,15.687,32.911,26.173,44.397
			C140.564,347.508,124.955,337.282,111.678,323.913z M199.242,362.76c-21.357-4.066-41.153-25.314-53.597-57.714
			c7.992-2.312,16.367-4.163,25.001-5.516c9.217-1.458,18.648-2.322,28.596-2.638V362.76z M199.242,281.886
			c-10.774,0.324-20.959,1.249-30.929,2.826c-9.463,1.483-18.656,3.534-27.433,6.102c-4.832-16.682-7.636-35.028-8.227-53.813
			h66.589V281.886z M199.243,222.003h-66.59v-0.001c0.592-18.789,3.396-37.135,8.23-53.813c18.127,5.287,38.034,8.337,58.36,8.941
			V222.003z M313.445,149.897c10.541,14.265,18.182,30.517,22.396,47.789c-5.696-0.929-11.492-1.372-17.323-1.298
			c-8.681,0.113-17.189,1.341-25.363,3.604c-1.503-12.719-3.963-24.965-7.371-36.566
			C295.913,159.593,305.168,155.062,313.445,149.897z M293.55,128.356c3.592,3.124,6.998,6.428,10.216,9.888
			c-6.853,4.118-14.466,7.778-22.756,10.947c-6.715-17.656-15.623-32.804-26.062-44.277
			C268.951,110.448,282.027,118.336,293.55,128.356z M214.242,96.458c20.952,4.555,40.301,25.633,52.54,57.498
			c-16.317,4.706-34.209,7.474-52.54,8.134V96.458z M214.242,177.094c19.958-0.677,39.488-3.71,57.301-8.905
			c3.399,11.697,5.783,24.114,7.112,37.064c-9.224,4.193-17.82,9.817-25.506,16.749h-38.907V177.094z M214.242,237.002h25.29
			c-9.857,13.33-16.181,28.809-18.464,45.23c-2.254-0.137-4.53-0.243-6.826-0.32V237.002z M214.242,362.54v-65.62
			c1.977,0.07,3.94,0.164,5.886,0.282c0.199,17.917,5.161,35.376,14.44,50.634c0.657,1.08,1.29,2.171,1.918,3.263
			C229.431,357.015,221.898,360.877,214.242,362.54z M399.951,335.463c-3.24,1.021-5.39,4.09-5.24,7.483l1.23,27.917
			c0.086,2.632-0.876,5.124-2.707,7.016c-1.832,1.893-4.291,2.935-6.925,2.935h-16.6c-4.143,0-7.5,3.358-7.5,7.5v23.781h-91.257
			c-1.93-24.981-10.039-49.809-23.568-72.054c-8.226-13.525-12.469-29.094-12.271-45.025c0.276-22.171,9.092-43.047,24.822-58.784
			c15.73-15.737,36.604-24.56,58.774-24.844c19.49-0.264,38.634,6.285,53.847,18.401c14.983,11.933,25.58,28.721,29.838,47.27
			c4.265,18.579,10.979,35.846,19.967,51.344L399.951,335.463z"/>
	</g>
</g>
<g>
</g>
<g>
</g>
<g>
</g>
<g>
</g>
<g>
</g>
<g>
</g>
<g>
</g>
<g>
</g>
<g>
</g>
<g>
</g>
<g>
</g>
<g>
</g>
<g>
</g>
<g>
</g>
<g>
</g>
</svg>
