<?xml version="1.0" encoding="iso-8859-1"?>
<!-- Generator: Adobe Illustrator 19.0.0, SVG Export Plug-In . SVG Version: 6.00 Build 0)  -->
<svg version="1.1" id="Layer_1" xmlns="http://www.w3.org/2000/svg" xmlns:xlink="http://www.w3.org/1999/xlink" x="0px" y="0px"
	 viewBox="0 0 468.352 468.352" style="enable-background:new 0 0 468.352 468.352;" xml:space="preserve">
<g>
	<g>
		<g>
			<path d="M185.439,205.23c-1.264-2.56-3.871-4.181-6.726-4.181s-5.462,1.621-6.726,4.181l-19.537,39.59l-43.689,6.349
				c-2.825,0.41-5.172,2.389-6.054,5.104c-0.882,2.715-0.146,5.695,1.898,7.688l31.614,30.815l-7.463,43.513
				c-0.482,2.814,0.674,5.658,2.984,7.335c2.309,1.679,5.37,1.9,7.898,0.571l39.077-20.544l39.078,20.544
				c1.097,0.577,2.295,0.861,3.489,0.861c1.555,0,3.103-0.483,4.409-1.433c2.31-1.678,3.466-4.521,2.984-7.335l-7.463-43.512
				l31.614-30.816c2.044-1.993,2.78-4.973,1.898-7.688c-0.882-2.715-3.229-4.694-6.054-5.104l-43.689-6.349L185.439,205.23z
				 M207.916,286.787c-1.768,1.723-2.575,4.206-2.157,6.639l5.561,32.421l-29.116-15.307c-1.093-0.574-2.292-0.861-3.49-0.861
				s-2.397,0.287-3.49,0.861l-29.116,15.307l5.561-32.421c0.417-2.433-0.389-4.916-2.157-6.639l-23.555-22.96l32.553-4.73
				c2.443-0.355,4.555-1.889,5.647-4.103l14.558-29.498l14.558,29.498c1.093,2.213,3.204,3.748,5.647,4.103l32.553,4.73
				L207.916,286.787z"/>
			<path d="M365.721,121.287l-27.104-3.938l-12.122-24.561c-1.264-2.56-3.871-4.181-6.726-4.181c-2.855,0-5.462,1.621-6.726,4.181
				l-12.121,24.561l-27.104,3.938c-2.825,0.41-5.172,2.389-6.054,5.104c-0.881,2.715-0.145,5.695,1.9,7.688l19.612,19.118
				l-4.63,26.995c-0.482,2.813,0.674,5.657,2.984,7.335s5.371,1.899,7.898,0.571l24.242-12.746l24.243,12.746
				c1.098,0.577,2.296,0.861,3.489,0.861c1.555,0,3.103-0.483,4.409-1.432c2.31-1.678,3.466-4.522,2.984-7.335l-4.63-26.995
				l19.612-19.118c2.044-1.993,2.78-4.973,1.898-7.688C370.893,123.676,368.546,121.697,365.721,121.287z M336.972,145.207
				c-1.768,1.723-2.575,4.206-2.157,6.638l2.728,15.903l-14.282-7.509c-1.093-0.574-2.292-0.861-3.49-0.861s-2.397,0.287-3.49,0.861
				L302,167.747l2.728-15.903c0.417-2.433-0.389-4.915-2.157-6.638l-11.554-11.262l15.966-2.319
				c2.443-0.355,4.554-1.889,5.647-4.103l7.141-14.469l7.141,14.469c1.093,2.213,3.204,3.748,5.647,4.103l15.967,2.32
				L336.972,145.207z"/>
			<path d="M460.852,389.566h-19.653V169.323c0-14.215-11.565-25.78-25.78-25.78h-22.148v-86.87
				c0-16.757-13.633-30.391-30.391-30.391h-86.219c-16.757,0-30.391,13.633-30.391,30.391v86.87H52.939
				c-14.215,0-25.78,11.565-25.78,25.78v220.243H7.5c-4.142,0-7.5,3.358-7.5,7.5c0,24.815,20.188,45.004,45.004,45.004h378.344
				c24.815,0,45.004-20.188,45.004-45.004C468.352,392.924,464.994,389.566,460.852,389.566z M276.661,41.282h86.219
				c6.213,0,11.566,3.708,13.994,9.022H262.667C265.095,44.991,270.448,41.282,276.661,41.282z M261.271,65.304h117V212.26h-117
				V65.304z M376.874,227.26c-2.428,5.313-7.781,9.022-13.994,9.022h-86.219c-6.213,0-11.566-3.708-13.994-9.022H376.874z
				 M276.661,251.282h86.219c16.757,0,30.391-13.633,30.391-30.391v-39.349h9.928v185.02H65.159v-185.02h181.112v39.349
				C246.271,237.649,259.904,251.282,276.661,251.282z M42.159,169.323c0-5.944,4.836-10.78,10.78-10.78h193.332v8H57.659
				c-4.142,0-7.5,3.358-7.5,7.5v200.02c0,4.142,3.358,7.5,7.5,7.5h353.04c4.142,0,7.5-3.358,7.5-7.5v-200.02
				c0-4.142-3.358-7.5-7.5-7.5h-17.428v-8h22.148c5.944,0,10.78,4.836,10.78,10.78v220.24H42.159V169.323z M423.348,427.07H45.004
				c-13.955,0-25.716-9.578-29.055-22.504h436.455C449.064,417.492,437.303,427.07,423.348,427.07z"/>
		</g>
	</g>
</g>
<g>
</g>
<g>
</g>
<g>
</g>
<g>
</g>
<g>
</g>
<g>
</g>
<g>
</g>
<g>
</g>
<g>
</g>
<g>
</g>
<g>
</g>
<g>
</g>
<g>
</g>
<g>
</g>
<g>
</g>
</svg>
