<?xml version="1.0" encoding="iso-8859-1"?>
<!-- Generator: Adobe Illustrator 19.0.0, SVG Export Plug-In . SVG Version: 6.00 Build 0)  -->
<svg version="1.1" id="Layer_1" xmlns="http://www.w3.org/2000/svg" xmlns:xlink="http://www.w3.org/1999/xlink" x="0px" y="0px"
	 viewBox="0 0 468.352 468.352" style="enable-background:new 0 0 468.352 468.352;" xml:space="preserve">
<g>
	<g>
		<g>
			<path d="M460.852,407.434h-19.657V187.193c0-14.215-11.565-25.78-25.78-25.78h-64.34v-95.91c0-1.989-0.79-3.897-2.197-5.304
				l-49.6-49.59c-1.406-1.406-3.313-2.196-5.303-2.196h-169.2c-4.143,0-7.5,3.358-7.5,7.5v145.5h-64.34
				c-14.215,0-25.78,11.565-25.78,25.78v220.241H7.5c-4.143,0-7.5,3.358-7.5,7.5c0,24.815,20.188,45.004,45.003,45.004h378.345
				c24.815,0,45.004-20.189,45.004-45.004C468.352,410.793,464.994,407.434,460.852,407.434z M301.475,34.019l23.99,23.986h-23.99
				V34.019z M132.274,23.414h154.2v42.09c0,4.142,3.357,7.5,7.5,7.5h42.1v214.5h-203.8V23.414z M124.774,302.505h218.8v0
				c4.143,0,7.5-3.358,7.5-7.5v-95.59h52.12v185.02H65.154v-185.02h52.12v95.59C117.274,299.147,120.631,302.505,124.774,302.505z
				 M42.154,187.193c0-5.944,4.836-10.78,10.78-10.78h64.34v8h-59.62c-4.143,0-7.5,3.358-7.5,7.5v200.02c0,4.142,3.357,7.5,7.5,7.5
				h353.04c4.143,0,7.5-3.358,7.5-7.5v-200.02c0-4.142-3.357-7.5-7.5-7.5h-59.62v-8h64.34c5.944,0,10.78,4.836,10.78,10.78v220.24
				H42.154V187.193z M423.348,444.939H45.003c-13.955,0-25.715-9.577-29.054-22.504h436.453
				C449.063,435.361,437.303,444.939,423.348,444.939z"/>
			<path d="M287.422,133.837H180.927c-4.143,0-7.5,3.358-7.5,7.5c0,4.142,3.357,7.5,7.5,7.5h106.495c4.143,0,7.5-3.358,7.5-7.5
				C294.922,137.196,291.564,133.837,287.422,133.837z"/>
			<path d="M287.422,105.912H180.927c-4.143,0-7.5,3.358-7.5,7.5c0,4.142,3.357,7.5,7.5,7.5h106.495c4.143,0,7.5-3.358,7.5-7.5
				C294.922,109.271,291.564,105.912,287.422,105.912z"/>
			<path d="M287.422,161.761H180.927c-4.143,0-7.5,3.358-7.5,7.5c0,4.142,3.357,7.5,7.5,7.5h106.495c4.143,0,7.5-3.358,7.5-7.5
				C294.922,165.12,291.564,161.761,287.422,161.761z"/>
			<path d="M287.422,189.686H180.927c-4.143,0-7.5,3.358-7.5,7.5c0,4.142,3.357,7.5,7.5,7.5h106.495c4.143,0,7.5-3.358,7.5-7.5
				C294.922,193.043,291.564,189.686,287.422,189.686z"/>
			<path d="M287.422,217.61H180.927c-4.143,0-7.5,3.358-7.5,7.5c0,4.142,3.357,7.5,7.5,7.5h106.495c4.143,0,7.5-3.358,7.5-7.5
				C294.922,220.967,291.564,217.61,287.422,217.61z"/>
			<path d="M105.077,328.967c0,4.142,3.357,7.5,7.5,7.5h243.194c4.143,0,7.5-3.358,7.5-7.5c0-4.142-3.357-7.5-7.5-7.5H112.577
				C108.435,321.467,105.077,324.824,105.077,328.967z"/>
			<path d="M355.771,349.391H112.577c-4.143,0-7.5,3.358-7.5,7.5c0,4.142,3.357,7.5,7.5,7.5h243.194c4.143,0,7.5-3.358,7.5-7.5
				C363.271,352.749,359.914,349.391,355.771,349.391z"/>
		</g>
	</g>
</g>
<g>
</g>
<g>
</g>
<g>
</g>
<g>
</g>
<g>
</g>
<g>
</g>
<g>
</g>
<g>
</g>
<g>
</g>
<g>
</g>
<g>
</g>
<g>
</g>
<g>
</g>
<g>
</g>
<g>
</g>
</svg>
