<?xml version="1.0" encoding="iso-8859-1"?>
<!-- Generator: Adobe Illustrator 19.0.0, SVG Export Plug-In . SVG Version: 6.00 Build 0)  -->
<svg version="1.1" id="Layer_1" xmlns="http://www.w3.org/2000/svg" xmlns:xlink="http://www.w3.org/1999/xlink" x="0px" y="0px"
	 viewBox="0 0 468.349 468.349" style="enable-background:new 0 0 468.349 468.349;" xml:space="preserve">
<g>
	<g>
		<g>
			<path d="M460.85,316.94H441.2V96.689c0-14.215-11.564-25.78-25.779-25.78H52.939c-14.215,0-25.78,11.565-25.78,25.78v220.25H7.5
				c-4.143,0-7.5,3.358-7.5,7.5c0,12.013,4.678,23.313,13.181,31.827C21.688,364.761,32.988,369.44,45,369.44h56.542
				c0.629,7.295,1.603,14.573,2.941,21.856c0.654,3.56,3.757,6.144,7.376,6.144h248c3.619,0,6.722-2.584,7.376-6.144
				c1.339-7.283,2.313-14.561,2.942-21.856h53.172c24.813,0,45-20.187,45-45C468.35,320.297,464.992,316.94,460.85,316.94z
				 M100.75,354.44H45c-8.01,0-15.546-3.121-21.214-8.779c-3.853-3.858-6.528-8.577-7.846-13.721h85.506
				C100.841,339.489,100.608,346.982,100.75,354.44z M353.522,382.44H118.196c-6.813-44.121,0.349-88.583,22.354-139h190.619
				C353.175,293.855,360.336,338.318,353.522,382.44z M343.97,228.439H127.75c-4.143,0-7.5,3.358-7.5,7.5
				c0,2.995,1.76,5.573,4.299,6.775c-1.058,2.518-2.077,5.023-3.063,7.515H110.83v-36h250.06v36h-10.656
				c-0.987-2.492-2.006-4.996-3.063-7.515c2.539-1.202,4.3-3.78,4.3-6.775C351.47,231.797,348.112,228.439,343.97,228.439z
				 M364.185,293.93c-2.24-9.414-5.032-18.967-8.388-28.7h12.593c4.143,0,7.5-3.358,7.5-7.5v-51c0-4.142-3.357-7.5-7.5-7.5H103.33
				c-4.143,0-7.5,3.358-7.5,7.5v51c0,4.142,3.357,7.5,7.5,7.5h12.593c-3.356,9.733-6.148,19.286-8.388,28.7H65.159v-185.02h338.04
				v185.02H364.185z M368.586,316.93c-0.384-2.658-0.807-5.324-1.282-8h43.395c4.143,0,7.5-3.358,7.5-7.5v-200.02
				c0-4.142-3.357-7.5-7.5-7.5H57.659c-4.143,0-7.5,3.358-7.5,7.5v200.02c0,4.142,3.357,7.5,7.5,7.5h46.756
				c-0.475,2.676-0.899,5.342-1.282,8H42.159V96.689c0-5.944,4.836-10.78,10.78-10.78h362.48c5.943,0,10.779,4.836,10.779,10.78
				v220.24H368.586z M423.35,354.44h-52.38c0.142-7.458-0.091-14.951-0.696-22.5H452.4
				C449.062,344.865,437.303,354.44,423.35,354.44z"/>
			<path d="M163.832,277.105h144.055c4.143,0,7.5-3.358,7.5-7.5c0-4.142-3.357-7.5-7.5-7.5H163.832c-4.143,0-7.5,3.358-7.5,7.5
				C156.332,273.747,159.689,277.105,163.832,277.105z"/>
			<path d="M153.292,305.995h165.136c4.143,0,7.5-3.358,7.5-7.5c0-4.142-3.357-7.5-7.5-7.5H153.292c-4.143,0-7.5,3.358-7.5,7.5
				C145.792,302.636,149.149,305.995,153.292,305.995z"/>
			<path d="M322.527,319.883H149.192c-4.143,0-7.5,3.358-7.5,7.5c0,4.142,3.357,7.5,7.5,7.5h173.335c4.143,0,7.5-3.358,7.5-7.5
				C330.027,323.242,326.67,319.883,322.527,319.883z"/>
			<path d="M322.527,348.773H149.192c-4.143,0-7.5,3.358-7.5,7.5c0,4.142,3.357,7.5,7.5,7.5h173.335c4.143,0,7.5-3.358,7.5-7.5
				C330.027,352.13,326.67,348.773,322.527,348.773z"/>
			<path d="M192.177,154.133h83.996c4.143,0,7.5-3.358,7.5-7.5c0-4.142-3.357-7.5-7.5-7.5h-83.996c-4.143,0-7.5,3.358-7.5,7.5
				C184.677,150.775,188.034,154.133,192.177,154.133z"/>
			<path d="M315.171,163.132H153.179c-4.143,0-7.5,3.358-7.5,7.5c0,4.142,3.357,7.5,7.5,7.5h161.992c4.143,0,7.5-3.358,7.5-7.5
				C322.671,166.49,319.313,163.132,315.171,163.132z"/>
		</g>
	</g>
</g>
<g>
</g>
<g>
</g>
<g>
</g>
<g>
</g>
<g>
</g>
<g>
</g>
<g>
</g>
<g>
</g>
<g>
</g>
<g>
</g>
<g>
</g>
<g>
</g>
<g>
</g>
<g>
</g>
<g>
</g>
</svg>
