<?xml version="1.0" encoding="iso-8859-1"?>
<!-- Generator: Adobe Illustrator 19.0.0, SVG Export Plug-In . SVG Version: 6.00 Build 0)  -->
<svg version="1.1" id="Layer_1" xmlns="http://www.w3.org/2000/svg" xmlns:xlink="http://www.w3.org/1999/xlink" x="0px" y="0px"
	 viewBox="0 0 468.352 468.352" style="enable-background:new 0 0 468.352 468.352;" xml:space="preserve">
<g>
	<g>
		<g>
			<path d="M460.852,382.51h-19.653V162.27c0-14.215-11.564-25.78-25.779-25.78h-23.813V40.84c0-4.142-3.357-7.5-7.5-7.5h-49.374
				c-4.143,0-7.5,3.358-7.5,7.5v95.649H52.938c-14.215,0-25.78,11.565-25.78,25.78v220.24H7.5c-4.143,0-7.5,3.358-7.5,7.5
				c0,24.815,20.188,45.003,45.004,45.003h378.344c24.815,0,45.004-20.188,45.004-45.003
				C468.352,385.868,464.994,382.51,460.852,382.51z M342.232,48.34h34.374v277.175h-34.374V48.34z M334.732,340.515h49.374
				c4.143,0,7.5-3.358,7.5-7.5V174.49h11.592v185.02H65.158V174.49h262.074v158.525
				C327.232,337.157,330.589,340.515,334.732,340.515z M42.158,162.27c0-5.944,4.836-10.78,10.78-10.78h274.294v8H57.658
				c-4.143,0-7.5,3.358-7.5,7.5v200.02c0,4.142,3.357,7.5,7.5,7.5h353.04c4.143,0,7.5-3.358,7.5-7.5V166.99
				c0-4.142-3.357-7.5-7.5-7.5h-19.092v-8h23.813c5.943,0,10.779,4.836,10.779,10.78v220.24H42.158V162.27z M423.348,420.013H45.004
				c-13.955,0-25.716-9.577-29.055-22.503h18.709h399.04h18.704C449.063,410.436,437.303,420.013,423.348,420.013z"/>
			<path d="M300.61,205.521h-49.374c-4.143,0-7.5,3.358-7.5,7.5v119.994c0,4.142,3.357,7.5,7.5,7.5h49.374
				c4.143,0,7.5-3.358,7.5-7.5V213.021C308.11,208.879,304.753,205.521,300.61,205.521z M293.11,325.515h-34.374V220.521h34.374
				V325.515z"/>
			<path d="M217.115,249.019H167.74c-4.143,0-7.5,3.358-7.5,7.5v76.496c0,4.142,3.357,7.5,7.5,7.5h49.375c4.143,0,7.5-3.358,7.5-7.5
				v-76.496C224.615,252.377,221.258,249.019,217.115,249.019z M209.615,325.515H175.24v-61.496h34.375V325.515z"/>
			<path d="M133.619,289.517H84.245c-4.143,0-7.5,3.358-7.5,7.5v35.998c0,4.142,3.357,7.5,7.5,7.5h49.374c4.143,0,7.5-3.358,7.5-7.5
				v-35.998C141.119,292.875,137.762,289.517,133.619,289.517z M126.119,325.515H91.745v-20.998h34.374V325.515z"/>
		</g>
	</g>
</g>
<g>
</g>
<g>
</g>
<g>
</g>
<g>
</g>
<g>
</g>
<g>
</g>
<g>
</g>
<g>
</g>
<g>
</g>
<g>
</g>
<g>
</g>
<g>
</g>
<g>
</g>
<g>
</g>
<g>
</g>
</svg>
