<?xml version="1.0" encoding="iso-8859-1"?>
<!-- Generator: Adobe Illustrator 19.0.0, SVG Export Plug-In . SVG Version: 6.00 Build 0)  -->
<svg version="1.1" id="Layer_1" xmlns="http://www.w3.org/2000/svg" xmlns:xlink="http://www.w3.org/1999/xlink" x="0px" y="0px"
	 viewBox="0 0 468.352 468.352" style="enable-background:new 0 0 468.352 468.352;" xml:space="preserve">
<g>
	<g>
		<g>
			<path d="M460.852,391.683h-19.655v-93.031h16.739c4.143,0,7.5-3.358,7.5-7.5V102.161c0-4.142-3.357-7.5-7.5-7.5H186.45
				c-4.142,0-7.5,3.358-7.5,7.5v43.5h-21.749V31.665c0-4.142-3.358-7.5-7.5-7.5H13.958c-4.142,0-7.5,3.358-7.5,7.5v188.99
				c0,4.142,3.358,7.5,7.5,7.5h13.199v22.158H13.958c-4.142,0-7.5,3.358-7.5,7.5v84.336c0,4.142,3.358,7.5,7.5,7.5h13.199v42.034
				H7.5c-4.142,0-7.5,3.358-7.5,7.5c0,24.815,20.188,45.004,45.004,45.004h378.344c24.815,0,45.004-20.188,45.004-45.004
				C468.352,395.041,464.995,391.683,460.852,391.683z M193.95,109.661h256.486v173.991H193.95V109.661z M123.418,265.314
				L81.83,291.152l-41.588-25.838H123.418z M42.157,250.313v-22.158h8v22.158H42.157z M142.202,271.302v57.358l-46.16-28.679
				L142.202,271.302z M123.418,334.649H40.242l41.588-25.838L123.418,334.649z M42.157,349.649h8v26.531c0,4.142,3.358,7.5,7.5,7.5
				h353.04c4.143,0,7.5-3.358,7.5-7.5v-77.529h8v93.029H42.157V349.649z M157.201,160.661h21.749v8h-21.749V160.661z
				 M157.201,220.656v-36.995h21.749v107.491c0,4.142,3.358,7.5,7.5,7.5h216.747v70.029H65.157V349.65h84.544
				c4.142,0,7.5-3.358,7.5-7.5v-84.336c0-4.142-3.358-7.5-7.5-7.5H65.157v-22.158h84.544
				C153.843,228.156,157.201,224.798,157.201,220.656z M21.458,213.155V39.165h120.743v173.99H21.458z M21.458,328.66v-57.357
				l46.16,28.678L21.458,328.66z M423.348,429.187H45.004c-13.955,0-25.716-9.577-29.055-22.504h436.454
				C449.064,419.61,437.303,429.187,423.348,429.187z"/>
			<path d="M434.936,117.661H209.45c-4.142,0-7.5,3.358-7.5,7.5v142.99c0,4.142,3.358,7.5,7.5,7.5h225.486
				c4.143,0,7.5-3.358,7.5-7.5v-142.99C442.436,121.019,439.079,117.661,434.936,117.661z M216.95,260.651v-4.903l49.127-59.373
				l29.968,36.217l-23.217,28.059H216.95z M427.436,260.651H292.297l69.02-83.416l66.119,79.905V260.651z M427.436,132.661v100.95
				l-60.341-72.922c-1.425-1.722-3.543-2.719-5.778-2.719s-4.354,0.997-5.778,2.719l-49.76,60.139l-33.924-40.999
				c-1.425-1.722-3.543-2.719-5.778-2.719c-2.235,0-4.354,0.997-5.778,2.719l-43.349,52.389V132.66L427.436,132.661L427.436,132.661
				z"/>
			<path d="M111.146,73.66H52.514c-4.142,0-7.5,3.358-7.5,7.5c0,4.142,3.358,7.5,7.5,7.5h58.633c4.142,0,7.5-3.358,7.5-7.5
				C118.647,77.018,115.289,73.66,111.146,73.66z"/>
			<path d="M111.146,103.66H52.514c-4.142,0-7.5,3.358-7.5,7.5c0,4.142,3.358,7.5,7.5,7.5h58.633c4.142,0,7.5-3.358,7.5-7.5
				C118.647,107.018,115.289,103.66,111.146,103.66z"/>
			<path d="M111.146,133.66H52.514c-4.142,0-7.5,3.358-7.5,7.5c0,4.142,3.358,7.5,7.5,7.5h58.633c4.142,0,7.5-3.358,7.5-7.5
				C118.647,137.018,115.289,133.66,111.146,133.66z"/>
			<path d="M111.146,163.66H52.514c-4.142,0-7.5,3.358-7.5,7.5c0,4.142,3.358,7.5,7.5,7.5h58.633c4.142,0,7.5-3.358,7.5-7.5
				C118.647,167.018,115.289,163.66,111.146,163.66z"/>
			<path d="M306.444,187.657c13.233,0,23.999-10.766,23.999-23.999c0-13.233-10.766-23.999-23.999-23.999
				c-13.233,0-23.999,10.766-23.999,23.999C282.445,176.891,293.21,187.657,306.444,187.657z M306.444,154.659
				c4.962,0,8.999,4.037,8.999,8.999c0,4.962-4.037,8.999-8.999,8.999c-4.962,0-8.999-4.037-8.999-8.999
				C297.445,158.696,301.482,154.659,306.444,154.659z"/>
		</g>
	</g>
</g>
<g>
</g>
<g>
</g>
<g>
</g>
<g>
</g>
<g>
</g>
<g>
</g>
<g>
</g>
<g>
</g>
<g>
</g>
<g>
</g>
<g>
</g>
<g>
</g>
<g>
</g>
<g>
</g>
<g>
</g>
</svg>
