<?xml version="1.0" encoding="iso-8859-1"?>
<!-- Generator: Adobe Illustrator 19.0.0, SVG Export Plug-In . SVG Version: 6.00 Build 0)  -->
<svg version="1.1" id="Layer_1" xmlns="http://www.w3.org/2000/svg" xmlns:xlink="http://www.w3.org/1999/xlink" x="0px" y="0px"
	 viewBox="0 0 468.352 468.352" style="enable-background:new 0 0 468.352 468.352;" xml:space="preserve">
<g>
	<g>
		<g>
			<path d="M460.852,394.515h-19.653V174.278c0-14.215-11.565-25.78-25.78-25.78h-64.825c0.655-7.375,0.639-14.825-0.127-22.25
				c-2.747-26.638-14.688-51.736-33.624-70.672c-22.081-22.081-51.438-34.241-82.666-34.241s-60.586,12.161-82.667,34.242
				c-18.936,18.936-30.876,44.034-33.624,70.671c-0.766,7.425-0.782,14.875-0.126,22.25H52.938
				c-14.215,0-25.779,11.565-25.779,25.78v220.236H7.5c-4.143,0-7.5,3.358-7.5,7.5c0,24.815,20.188,45.003,45.004,45.003h378.344
				c24.815,0,45.004-20.188,45.004-45.003C468.352,397.873,464.994,394.515,460.852,394.515z M132.806,127.788
				c2.396-23.22,12.805-45.098,29.312-61.604c19.247-19.248,44.838-29.848,72.059-29.848s52.812,10.6,72.059,29.848
				c16.507,16.506,26.916,38.384,29.312,61.604c2.395,23.22-3.33,46.762-16.12,66.29l-85.25,130.164l-85.25-130.164
				C136.136,174.55,130.411,151.007,132.806,127.788z M136.377,202.296l91.524,139.743c1.386,2.116,3.745,3.391,6.274,3.391
				c2.529,0,4.889-1.275,6.274-3.391l91.524-139.743c3.306-5.048,6.177-10.339,8.646-15.798h62.577v185.02H65.158v-185.02h62.573
				C130.2,191.957,133.071,197.248,136.377,202.296z M42.158,174.278c0-5.944,4.836-10.78,10.779-10.78h67.139
				c0.596,2.689,1.275,5.359,2.058,8H57.658c-4.143,0-7.5,3.358-7.5,7.5v200.02c0,4.142,3.357,7.5,7.5,7.5h353.04
				c4.143,0,7.5-3.358,7.5-7.5v-200.02c0-4.142-3.357-7.5-7.5-7.5h-64.481c0.783-2.641,1.462-5.311,2.058-8h67.144
				c5.944,0,10.78,4.836,10.78,10.78v220.236H42.158V174.278z M423.348,432.018H45.004c-13.955,0-25.716-9.577-29.055-22.503
				h436.453C449.063,422.441,437.303,432.018,423.348,432.018z"/>
			<path d="M234.176,194.345c14.95,0,29.901-5.691,41.283-17.072c11.026-11.027,17.1-25.688,17.1-41.283
				c0-15.595-6.073-30.256-17.1-41.283c-22.766-22.765-59.803-22.763-82.566,0c-11.026,11.027-17.1,25.688-17.1,41.283
				c0,15.594,6.073,30.256,17.1,41.283C204.274,188.654,219.226,194.345,234.176,194.345z M203.5,105.314
				c8.457-8.458,19.566-12.686,30.676-12.686c11.11,0,22.219,4.229,30.676,12.686c8.194,8.194,12.707,19.088,12.707,30.676
				c0,11.588-4.513,22.482-12.707,30.676c-16.915,16.914-44.438,16.913-61.352,0c-8.194-8.194-12.707-19.088-12.707-30.676
				C190.793,124.402,195.306,113.508,203.5,105.314z"/>
		</g>
	</g>
</g>
<g>
</g>
<g>
</g>
<g>
</g>
<g>
</g>
<g>
</g>
<g>
</g>
<g>
</g>
<g>
</g>
<g>
</g>
<g>
</g>
<g>
</g>
<g>
</g>
<g>
</g>
<g>
</g>
<g>
</g>
</svg>
