<?xml version="1.0" encoding="iso-8859-1"?>
<!-- Generator: Adobe Illustrator 19.0.0, SVG Export Plug-In . SVG Version: 6.00 Build 0)  -->
<svg version="1.1" id="Layer_1" xmlns="http://www.w3.org/2000/svg" xmlns:xlink="http://www.w3.org/1999/xlink" x="0px" y="0px"
	 viewBox="0 0 468.352 468.352" style="enable-background:new 0 0 468.352 468.352;" xml:space="preserve">
<g>
	<g>
		<path d="M460.852,342.037h-19.653V121.801c0-14.215-11.565-25.78-25.78-25.78H293.805l-20.013-20.013
			c-2.93-2.929-7.679-2.93-10.606,0l-20.013,20.013H52.938c-14.215,0-25.78,11.565-25.78,25.78v220.236H7.5
			c-4.142,0-7.5,3.358-7.5,7.5c0,24.815,20.188,45.004,45.004,45.004h378.344c24.815,0,45.004-20.188,45.004-45.004
			C468.352,345.395,464.995,342.037,460.852,342.037z M274.155,97.585l92.847,92.847l-104.984,12.14L274.155,97.585z
			 M388.582,190.798l-56.776-56.777H403.2v185.02H270.945l117.637-117.637C391.511,198.475,391.511,193.726,388.582,190.798z
			 M362.749,206.023L249.731,319.041h-35.316l7.231-62.557l28.696-3.317c3.46-0.4,6.189-3.129,6.589-6.589l3.318-28.702
			L362.749,206.023z M258.564,101.842l-15.851,137.107L105.606,254.8L258.564,101.842z M79.775,270.024l49.017,49.017H65.158
			v-185.02h140.014L79.775,259.418c-1.407,1.406-2.197,3.314-2.197,5.303S78.368,268.618,79.775,270.024z M101.354,270.391
			l104.988-12.138l-7.027,60.788h-49.31L101.354,270.391z M42.158,121.801c0-5.944,4.836-10.78,10.78-10.78h175.234l-8,8H57.658
			c-4.142,0-7.5,3.358-7.5,7.5v200.02c0,4.142,3.358,7.5,7.5,7.5h353.041c4.143,0,7.5-3.358,7.5-7.5v-200.02
			c0-4.142-3.357-7.5-7.5-7.5h-93.893l-8-8h106.613c5.944,0,10.78,4.836,10.78,10.78v220.236H42.158V121.801z M423.348,379.541
			H45.004c-13.955,0-25.716-9.578-29.055-22.504h436.454C449.064,369.963,437.303,379.541,423.348,379.541z"/>
	</g>
</g>
<g>
</g>
<g>
</g>
<g>
</g>
<g>
</g>
<g>
</g>
<g>
</g>
<g>
</g>
<g>
</g>
<g>
</g>
<g>
</g>
<g>
</g>
<g>
</g>
<g>
</g>
<g>
</g>
<g>
</g>
</svg>
