<?xml version="1.0" encoding="iso-8859-1"?>
<!-- Generator: Adobe Illustrator 19.0.0, SVG Export Plug-In . SVG Version: 6.00 Build 0)  -->
<svg version="1.1" id="Layer_1" xmlns="http://www.w3.org/2000/svg" xmlns:xlink="http://www.w3.org/1999/xlink" x="0px" y="0px"
	 viewBox="0 0 474.263 474.263" style="enable-background:new 0 0 474.263 474.263;" xml:space="preserve">
<g>
	<g>
		<g>
			<path d="M466.763,37.591H134.499c-4.143,0-7.5,3.358-7.5,7.5v34.496H86.5c-4.143,0-7.5,3.358-7.5,7.5v21.39H24.7
				c-13.62,0-24.7,11.08-24.7,24.7v227.79c0,13.62,11.08,24.7,24.7,24.7h139.503l-8.016,36.006h-25.449c-4.143,0-7.5,3.358-7.5,7.5
				c0,4.142,3.357,7.5,7.5,7.5h131.784c4.143,0,7.5-3.358,7.5-7.5c0-4.142-3.357-7.5-7.5-7.5h-25.448l-8.015-36.006h139.502
				c13.62,0,24.7-11.08,24.7-24.7v-50.19h25.5c4.143,0,7.5-3.358,7.5-7.5v-34.5h40.502c4.143,0,7.5-3.358,7.5-7.5V45.091
				C474.263,40.948,470.905,37.591,466.763,37.591z M86.5,310.776h268.761v36.89H38v-201.19h41v156.8
				C79,307.418,82.357,310.776,86.5,310.776z M171.555,421.672l8.016-36.006h34.121l8.014,36.006H171.555z M378.261,360.966
				c0,5.349-4.352,9.7-9.7,9.7H24.7c-5.349,0-9.7-4.351-9.7-9.7v-227.79c0-5.349,4.352-9.7,9.7-9.7H79v8H30.5
				c-4.143,0-7.5,3.358-7.5,7.5v216.19c0,4.142,3.357,7.5,7.5,7.5h332.261c4.143,0,7.5-3.358,7.5-7.5v-44.39h8V360.966z
				 M411.261,295.776H94V94.586h32.999v166.69c0,4.142,3.357,7.5,7.5,7.5h276.762V295.776z M459.263,253.776H141.999V79.29h317.264
				V253.776z M459.263,64.29H141.999v-11.7h317.264V64.29z"/>
			<path d="M157.499,245.776h74.064c4.143,0,7.5-3.358,7.5-7.5V94.79c0-4.142-3.357-7.5-7.5-7.5h-74.064c-4.143,0-7.5,3.358-7.5,7.5
				v143.486C149.999,242.418,153.356,245.776,157.499,245.776z M164.999,102.29h59.064v128.486h-59.064V102.29z"/>
			<path d="M369.798,245.776h74.064c4.143,0,7.5-3.358,7.5-7.5V94.79c0-4.142-3.357-7.5-7.5-7.5h-74.064c-4.143,0-7.5,3.358-7.5,7.5
				v143.486C362.298,242.418,365.655,245.776,369.798,245.776z M377.298,102.29h59.064v128.486h-59.064V102.29z"/>
			<path d="M263.649,245.776h74.064c4.143,0,7.5-3.358,7.5-7.5V94.79c0-4.142-3.358-7.5-7.5-7.5h-74.064c-4.143,0-7.5,3.358-7.5,7.5
				v143.486C256.149,242.418,259.506,245.776,263.649,245.776z M271.149,102.29h59.064v128.486h-59.064V102.29z"/>
		</g>
	</g>
</g>
<g>
</g>
<g>
</g>
<g>
</g>
<g>
</g>
<g>
</g>
<g>
</g>
<g>
</g>
<g>
</g>
<g>
</g>
<g>
</g>
<g>
</g>
<g>
</g>
<g>
</g>
<g>
</g>
<g>
</g>
</svg>
