<?xml version="1.0" encoding="iso-8859-1"?>
<!-- Generator: Adobe Illustrator 19.0.0, SVG Export Plug-In . SVG Version: 6.00 Build 0)  -->
<svg version="1.1" id="Layer_1" xmlns="http://www.w3.org/2000/svg" xmlns:xlink="http://www.w3.org/1999/xlink" x="0px" y="0px"
	 viewBox="0 0 469 469" style="enable-background:new 0 0 469 469;" xml:space="preserve">
<g>
	<g>
		<g>
			<path d="M444.299,38.156H24.701C11.081,38.156,0,49.236,0,62.857v280.279c0,13.62,11.081,24.701,24.701,24.701h171.943
				l-10.687,48.006h-32.851c-4.142,0-7.5,3.358-7.5,7.5c0,4.142,3.358,7.5,7.5,7.5h162.788c4.143,0,7.5-3.358,7.5-7.5
				c0-4.142-3.357-7.5-7.5-7.5h-32.851l-10.687-48.006h171.943c13.62,0,24.701-11.081,24.701-24.701V62.857
				C469,49.236,457.919,38.156,444.299,38.156z M201.324,415.843l10.688-48.006h44.978l10.686,48.006H201.324z M454,343.135
				c0,5.349-4.352,9.701-9.701,9.701H24.701c-5.349,0-9.701-4.352-9.701-9.701V62.857c0-5.349,4.352-9.701,9.701-9.701h419.598
				c5.35,0,9.701,4.352,9.701,9.701V343.135z"/>
			<path d="M438.5,61.156h-408c-4.142,0-7.5,3.358-7.5,7.5v268.681c0,4.142,3.358,7.5,7.5,7.5h408c4.143,0,7.5-3.358,7.5-7.5V68.656
				C446,64.514,442.643,61.156,438.5,61.156z M431,329.837H38V109.811h393V329.837z M431,94.811H38V76.156h393V94.811z"/>
			<path d="M234.5,182.351c4.142,0,7.5-3.358,7.5-7.5v-24.054c0-4.142-3.358-7.5-7.5-7.5c-4.142,0-7.5,3.358-7.5,7.5v24.054
				C227,178.993,230.358,182.351,234.5,182.351z"/>
			<path d="M234.5,294.79c4.142,0,7.5-3.358,7.5-7.5v-24.054c0-4.142-3.358-7.5-7.5-7.5c-4.142,0-7.5,3.358-7.5,7.5v24.054
				C227,291.432,230.358,294.79,234.5,294.79z"/>
			<path d="M262.128,281.898c1.39,2.406,3.91,3.751,6.502,3.751c1.272,0,2.563-0.324,3.743-1.006
				c3.587-2.071,4.816-6.658,2.745-10.245l-12.027-20.832c-2.071-3.587-6.66-4.816-10.245-2.745
				c-3.587,2.071-4.816,6.658-2.745,10.245L262.128,281.898z"/>
			<path d="M171.647,191.416l20.831,12.027c1.181,0.682,2.471,1.006,3.743,1.006c2.592,0,5.113-1.346,6.502-3.751
				c2.071-3.587,0.842-8.174-2.745-10.245l-20.831-12.027c-3.588-2.072-8.174-0.842-10.245,2.745
				C166.831,184.758,168.06,189.345,171.647,191.416z"/>
			<path d="M297.353,246.672l-20.831-12.027c-3.589-2.072-8.175-0.842-10.245,2.745c-2.071,3.587-0.842,8.174,2.745,10.245
				l20.831,12.027c1.182,0.682,2.471,1.006,3.743,1.006c2.592,0,5.113-1.346,6.502-3.751
				C302.169,253.33,300.94,248.743,297.353,246.672z"/>
			<path d="M166.254,226.544h24.054c4.142,0,7.5-3.358,7.5-7.5c0-4.142-3.358-7.5-7.5-7.5h-24.054c-4.142,0-7.5,3.358-7.5,7.5
				C158.754,223.186,162.112,226.544,166.254,226.544z"/>
			<path d="M271.193,219.044c0,4.142,3.357,7.5,7.5,7.5h24.054c4.143,0,7.5-3.358,7.5-7.5c0-4.142-3.358-7.5-7.5-7.5h-24.054
				C274.55,211.544,271.193,214.902,271.193,219.044z"/>
			<path d="M202.723,237.39c-2.071-3.588-6.658-4.817-10.245-2.745l-20.831,12.027c-3.587,2.071-4.816,6.658-2.745,10.245
				c1.389,2.406,3.91,3.751,6.502,3.751c1.272,0,2.562-0.324,3.743-1.006l20.831-12.027
				C203.565,245.565,204.794,240.978,202.723,237.39z"/>
			<path d="M266.277,200.697c1.39,2.406,3.91,3.751,6.502,3.751c1.272,0,2.563-0.324,3.743-1.006l20.831-12.027
				c3.587-2.071,4.816-6.658,2.745-10.245c-2.07-3.587-6.659-4.816-10.245-2.745l-20.831,12.027
				C265.435,192.523,264.206,197.11,266.277,200.697z"/>
			<path d="M196.627,284.642c1.181,0.682,2.471,1.006,3.743,1.006c2.592,0,5.113-1.346,6.502-3.751l12.027-20.832
				c2.071-3.587,0.842-8.174-2.745-10.245c-3.588-2.072-8.174-0.842-10.245,2.745l-12.027,20.832
				C191.811,277.984,193.04,282.572,196.627,284.642z"/>
			<path d="M252.846,187.267c1.181,0.682,2.471,1.006,3.743,1.006c2.592,0,5.113-1.345,6.502-3.751l12.027-20.831
				c2.071-3.587,0.842-8.174-2.745-10.245c-3.586-2.072-8.176-0.842-10.245,2.745l-12.027,20.831
				C248.03,180.608,249.259,185.195,252.846,187.267z"/>
		</g>
	</g>
</g>
<g>
</g>
<g>
</g>
<g>
</g>
<g>
</g>
<g>
</g>
<g>
</g>
<g>
</g>
<g>
</g>
<g>
</g>
<g>
</g>
<g>
</g>
<g>
</g>
<g>
</g>
<g>
</g>
<g>
</g>
</svg>
