<?xml version="1.0" encoding="iso-8859-1"?>
<!-- Generator: Adobe Illustrator 19.0.0, SVG Export Plug-In . SVG Version: 6.00 Build 0)  -->
<svg version="1.1" id="Layer_1" xmlns="http://www.w3.org/2000/svg" xmlns:xlink="http://www.w3.org/1999/xlink" x="0px" y="0px"
	 viewBox="0 0 438.646 438.646" style="enable-background:new 0 0 438.646 438.646;" xml:space="preserve">
<g>
	<g>
		<g>
			<path d="M163.919,28.927c-74.436,0-134.994,60.558-134.994,134.994s60.558,134.994,134.994,134.994
				s134.994-60.558,134.994-134.994S238.354,28.927,163.919,28.927z M171.419,44.168c60.202,3.732,108.52,52.051,112.252,112.253
				H171.419V44.168z M156.419,44.168v104.318l-81.972-64.43C94.877,61.193,123.915,46.183,156.419,44.168z M163.919,283.915
				c-66.165,0-119.994-53.829-119.994-119.994c0-25.264,7.855-48.724,21.241-68.081l94.118,73.977c0,0,2.885,1.604,4.635,1.604
				h119.752C279.786,234.104,227.564,283.915,163.919,283.915z"/>
			<path d="M428.117,377.209l-88.088-88.088c-9.399-9.399-22.743-12.494-34.75-9.305l-13.37-13.369
				c51.612-64.333,47.608-158.849-12.03-218.487C248.952,17.033,207.77,0,163.919,0C120.07,0,78.883,17.034,47.958,47.959
				c-63.941,63.941-63.942,167.981,0,231.922c31.97,31.97,73.965,47.956,115.96,47.956c36.344,0,72.683-11.982,102.529-35.927
				l13.368,13.368c-3.19,12.008-0.096,25.354,9.304,34.753l88.088,88.088c7.018,7.018,16.236,10.527,25.455,10.527
				c9.218,0,18.437-3.509,25.455-10.527C442.153,414.083,442.153,391.245,428.117,377.209z M58.564,269.275
				c-58.093-58.093-58.092-152.617,0-210.709C86.658,30.472,124.074,15,163.919,15s77.26,15.472,105.354,43.566
				c58.092,58.093,58.092,152.616,0,210.708C211.179,327.367,116.656,327.367,58.564,269.275z M289.12,289.122
				c-0.716,0.716-1.386,1.46-2.029,2.219l-9.362-9.362c0.72-0.694,1.441-1.387,2.151-2.097c0.711-0.711,1.404-1.432,2.099-2.153
				l9.363,9.363C290.582,287.735,289.837,288.406,289.12,289.122z M417.51,417.513c-8.188,8.188-21.509,8.188-29.697,0
				l-88.088-88.088c-8.188-8.188-8.188-21.509,0-29.697c4.094-4.094,9.471-6.141,14.849-6.141c5.377,0,10.754,2.047,14.848,6.141
				l88.088,88.088C425.698,396.003,425.698,409.325,417.51,417.513z"/>
		</g>
	</g>
</g>
<g>
</g>
<g>
</g>
<g>
</g>
<g>
</g>
<g>
</g>
<g>
</g>
<g>
</g>
<g>
</g>
<g>
</g>
<g>
</g>
<g>
</g>
<g>
</g>
<g>
</g>
<g>
</g>
<g>
</g>
</svg>
