<?xml version="1.0" encoding="iso-8859-1"?>
<!-- Generator: Adobe Illustrator 19.0.0, SVG Export Plug-In . SVG Version: 6.00 Build 0)  -->
<svg version="1.1" id="Layer_1" xmlns="http://www.w3.org/2000/svg" xmlns:xlink="http://www.w3.org/1999/xlink" x="0px" y="0px"
	 viewBox="0 0 438.647 438.647" style="enable-background:new 0 0 438.647 438.647;" xml:space="preserve">
<g>
	<g>
		<g>
			<path d="M428.118,377.209l-88.089-88.088c-6.8-6.799-15.839-10.544-25.455-10.544c-3.189,0-6.312,0.421-9.314,1.219
				l-13.346-13.346c23.274-28.965,35.926-64.754,35.926-102.531c0-43.852-17.033-85.034-47.96-115.96
				C248.952,17.033,207.77,0,163.919,0C120.07,0,78.883,17.034,47.958,47.959c-63.941,63.941-63.942,167.981,0,231.922
				c31.97,31.971,73.965,47.956,115.96,47.956c36.344,0,72.682-11.982,102.528-35.927l13.349,13.349
				c-0.799,3.003-1.22,6.127-1.22,9.318c0,9.615,3.745,18.656,10.544,25.455l88.089,88.088c7.018,7.018,16.236,10.527,25.454,10.527
				c9.219,0,18.438-3.509,25.455-10.527c0.001,0,0.001,0,0.001,0C442.153,414.083,442.153,391.245,428.118,377.209z
				 M163.919,312.843c-38.15-0.002-76.312-14.525-105.355-43.568c-58.093-58.093-58.092-152.617,0-210.709
				C86.658,30.472,124.074,15,163.919,15s77.26,15.472,105.354,43.566c28.095,28.094,43.567,65.509,43.567,105.354
				s-15.473,77.26-43.567,105.354C240.223,298.324,202.078,312.847,163.919,312.843z M289.12,289.123
				c-0.713,0.713-1.385,1.457-2.031,2.218l-9.36-9.362c0.72-0.694,1.441-1.387,2.151-2.097c0.71-0.71,1.404-1.431,2.099-2.151
				l9.36,9.36C290.578,287.737,289.834,288.409,289.12,289.123z M417.51,417.513c-3.967,3.966-9.239,6.15-14.849,6.15
				c-5.608,0-10.882-2.185-14.848-6.15l-88.089-88.088c-3.966-3.966-6.15-9.239-6.15-14.848s2.185-10.882,6.151-14.849
				c3.966-3.966,9.238-6.15,14.848-6.15s10.882,2.185,14.848,6.15l88.089,88.088C425.698,396.003,425.698,409.325,417.51,417.513z"
				/>
			<path d="M260.438,67.584c-25.257-25.43-58.79-39.726-94.559-40.349c-0.115-0.008-3.807-0.008-3.922,0
				C126.189,27.858,92.656,42.154,67.4,67.584c-25.605,25.781-39.707,59.993-39.707,96.333c0,36.343,14.102,70.557,39.707,96.339
				c25.258,25.432,58.788,39.728,94.559,40.35c0.114,0.008,3.806,0.008,3.92,0c35.772-0.622,69.302-14.918,94.56-40.35
				c25.605-25.782,39.707-59.996,39.707-96.339C300.145,127.577,286.044,93.365,260.438,67.584z M156.902,43.005v58.705
				c-16.533-0.573-32.682-3.025-47.433-7.213C120.608,65.884,138.052,47.002,156.902,43.005z M156.902,116.717v39.7H97.4
				c0.576-16.63,3.056-32.87,7.288-47.687C120.941,113.409,138.734,116.127,156.902,116.717z M78.041,78.155
				c11.333-11.41,24.537-20.3,38.923-26.385c-8.538,9.982-15.927,22.779-21.739,37.956c-7.021-2.719-13.513-5.819-19.388-9.292
				C76.561,79.667,77.295,78.906,78.041,78.155z M66.134,92.072c7.316,4.518,15.453,8.497,24.324,11.891
				c-4.723,16.313-7.47,34.192-8.062,52.454H42.928C44.345,132.989,52.378,110.809,66.134,92.072z M66.134,235.767
				c-13.756-18.737-21.789-40.92-23.205-64.35h39.467c0.593,18.265,3.339,36.147,8.062,52.46
				C81.583,227.273,73.446,231.252,66.134,235.767z M78.041,249.685c-0.745-0.75-1.479-1.511-2.204-2.279
				c5.873-3.472,12.365-6.572,19.39-9.293c5.818,15.187,13.216,27.985,21.761,37.969C102.593,269.996,89.38,261.102,78.041,249.685z
				 M156.902,284.834c-18.841-3.996-36.288-22.877-47.433-51.493c14.75-4.188,30.898-6.641,47.433-7.214V284.834z M156.902,211.121
				c-18.168,0.59-35.961,3.308-52.214,7.987c-4.232-14.816-6.712-31.058-7.288-47.691h59.502V211.121z M261.705,92.072
				c13.756,18.737,21.789,40.917,23.206,64.345h-39.469c-0.593-18.262-3.34-36.142-8.062-52.454
				C246.252,100.569,254.389,96.589,261.705,92.072z M249.796,78.155c0.746,0.751,1.479,1.511,2.203,2.278
				c-5.875,3.474-12.366,6.574-19.388,9.293c-5.812-15.178-13.202-27.975-21.741-37.957
				C225.257,57.854,238.463,66.744,249.796,78.155z M171.902,43.233c18.475,4.427,35.517,23.139,46.466,51.265
				c-14.464,4.106-30.271,6.55-46.466,7.183V43.233z M171.902,116.684c17.832-0.654,35.282-3.358,51.247-7.954
				c4.233,14.815,6.713,31.056,7.288,47.687h-58.535V116.684z M171.902,171.417h58.535c-0.576,16.634-3.055,32.875-7.288,47.691
				c-15.962-4.596-33.413-7.3-51.247-7.954V171.417z M171.902,284.607v-58.451c16.196,0.633,32.003,3.078,46.465,7.185
				C207.416,261.464,190.375,280.177,171.902,284.607z M249.795,249.686c-11.339,11.417-24.551,20.311-38.946,26.397
				c8.546-9.984,15.944-22.782,21.761-37.969c7.025,2.721,13.517,5.821,19.39,9.293
				C251.276,248.174,250.542,248.935,249.795,249.686z M261.705,235.768c-7.312-4.515-15.449-8.495-24.325-11.89
				c4.722-16.315,7.469-34.196,8.062-52.461h39.469C283.495,194.847,275.462,217.03,261.705,235.768z"/>
		</g>
	</g>
</g>
<g>
</g>
<g>
</g>
<g>
</g>
<g>
</g>
<g>
</g>
<g>
</g>
<g>
</g>
<g>
</g>
<g>
</g>
<g>
</g>
<g>
</g>
<g>
</g>
<g>
</g>
<g>
</g>
<g>
</g>
</svg>
