<?xml version="1.0" encoding="iso-8859-1"?>
<!-- Generator: Adobe Illustrator 19.0.0, SVG Export Plug-In . SVG Version: 6.00 Build 0)  -->
<svg version="1.1" id="Layer_1" xmlns="http://www.w3.org/2000/svg" xmlns:xlink="http://www.w3.org/1999/xlink" x="0px" y="0px"
	 viewBox="0 0 469 469" style="enable-background:new 0 0 469 469;" xml:space="preserve">
<g>
	<g>
		<g>
			<path d="M234.5,295.378c50.473,0,96.296-27.869,119.588-72.732c1.125-2.167,1.125-4.745,0-6.912
				c-23.292-44.862-69.115-72.732-119.588-72.732c-50.473,0-96.296,27.87-119.587,72.733c-1.125,2.167-1.125,4.745,0,6.911
				C138.204,267.508,184.027,295.378,234.5,295.378z M234.5,158.002c43.54,0,83.19,23.346,104.41,61.188
				c-21.22,37.843-60.87,61.188-104.41,61.188c-43.54,0-83.19-23.345-104.41-61.188C151.309,181.347,190.959,158.002,234.5,158.002z
				"/>
			<path d="M234.5,268.694c27.297,0,49.504-22.208,49.504-49.504c0-27.297-22.207-49.504-49.504-49.504
				c-27.296,0-49.504,22.208-49.504,49.504S207.204,268.694,234.5,268.694z M234.5,184.686c19.026,0,34.504,15.479,34.504,34.504
				c0,19.025-15.478,34.504-34.504,34.504c-19.025,0-34.504-15.479-34.504-34.504C199.996,200.164,215.475,184.686,234.5,184.686z"
				/>
			<path d="M234.5,242.772c13.004,0,23.583-10.579,23.583-23.583c0-13.004-10.579-23.583-23.583-23.583
				c-13.004,0-23.583,10.58-23.583,23.583S221.496,242.772,234.5,242.772z M234.5,210.607c4.733,0,8.583,3.851,8.583,8.583
				s-3.85,8.583-8.583,8.583c-4.733,0-8.583-3.85-8.583-8.583S229.767,210.607,234.5,210.607z"/>
			<path d="M444.299,38.156H24.701C11.081,38.156,0,49.237,0,62.857v280.279c0,13.62,11.081,24.701,24.701,24.701h171.943
				l-10.687,48.006h-32.851c-4.142,0-7.5,3.358-7.5,7.5c0,4.142,3.358,7.5,7.5,7.5h162.788c4.142,0,7.5-3.358,7.5-7.5
				c0-4.142-3.358-7.5-7.5-7.5h-32.851l-10.687-48.006h171.943c13.62,0,24.701-11.081,24.701-24.701V62.857
				C469,49.237,457.919,38.156,444.299,38.156z M201.324,415.844l10.688-48.006h44.977l10.687,48.006H201.324z M454,343.136
				c0,5.349-4.352,9.701-9.701,9.701H24.701c-5.349,0-9.701-4.352-9.701-9.701V62.857c0-5.349,4.352-9.701,9.701-9.701h419.598
				c5.349,0,9.701,4.352,9.701,9.701V343.136z"/>
			<path d="M438.5,61.156h-408c-4.142,0-7.5,3.358-7.5,7.5v268.681c0,4.142,3.358,7.5,7.5,7.5h408c4.142,0,7.5-3.358,7.5-7.5V68.656
				C446,64.514,442.642,61.156,438.5,61.156z M431,329.839H38v-0.001V109.812h393V329.839z M431,94.811H38V76.156h393V94.811z"/>
		</g>
	</g>
</g>
<g>
</g>
<g>
</g>
<g>
</g>
<g>
</g>
<g>
</g>
<g>
</g>
<g>
</g>
<g>
</g>
<g>
</g>
<g>
</g>
<g>
</g>
<g>
</g>
<g>
</g>
<g>
</g>
<g>
</g>
</svg>
