<?xml version="1.0" encoding="iso-8859-1"?>
<!-- Generator: Adobe Illustrator 19.0.0, SVG Export Plug-In . SVG Version: 6.00 Build 0)  -->
<svg version="1.1" id="Layer_1" xmlns="http://www.w3.org/2000/svg" xmlns:xlink="http://www.w3.org/1999/xlink" x="0px" y="0px"
	 viewBox="0 0 412.778 412.778" style="enable-background:new 0 0 412.778 412.778;" xml:space="preserve">
<g>
	<g>
		<g>
			<path d="M209.807,102.476c-27.249,0.485-52.788,11.381-72.029,30.754c-19.518,19.65-30.266,45.727-30.266,73.426
				c0,27.701,10.748,53.779,30.266,73.431c19.241,19.374,44.78,30.27,72.029,30.755c0.099,0.006,2.992,0.006,3.091,0
				c27.249-0.485,52.788-11.381,72.029-30.755c19.518-19.651,30.266-45.729,30.266-73.431c0-27.699-10.748-53.776-30.266-73.426
				c-19.241-19.374-44.78-30.269-72.029-30.754C212.799,102.47,209.906,102.47,209.807,102.476z M169.822,127.967
				c-4.143,5.985-7.826,12.929-10.946,20.727c-3.658-1.488-7.09-3.133-10.306-4.908C154.808,137.52,161.968,132.175,169.822,127.967
				z M138.76,155.467c4.702,2.779,9.833,5.266,15.334,7.457c-3.139,11.359-5.032,23.661-5.572,36.233h-25.689
				C124.192,183.012,129.89,168.053,138.76,155.467z M122.833,214.157h25.689c0.54,12.574,2.433,24.878,5.572,36.237
				c-5.503,2.192-10.635,4.68-15.334,7.457C129.89,245.264,124.192,230.303,122.833,214.157z M148.57,269.531
				c3.215-1.774,6.647-3.418,10.307-4.907c3.123,7.8,6.809,14.745,10.954,20.732C161.974,281.148,154.81,275.8,148.57,269.531z
				 M204.214,294.717c-12.177-3.703-23.428-16.253-31.069-34.817c9.755-2.601,20.275-4.202,31.069-4.708V294.717z M204.214,240.161
				c-12.438,0.534-24.61,2.398-35.872,5.479c-2.664-9.867-4.292-20.54-4.805-31.482h40.677V240.161z M204.214,199.157h-40.677
				c0.513-10.941,2.142-21.612,4.806-31.479c11.26,3.079,23.433,4.943,35.871,5.478V199.157z M204.215,158.125
				c-10.794-0.506-21.314-2.108-31.07-4.708c7.638-18.563,18.888-31.112,31.07-34.815V158.125z M252.874,285.357
				c4.146-5.988,7.831-12.933,10.954-20.733c3.66,1.489,7.092,3.133,10.307,4.908C267.895,275.801,260.731,281.148,252.874,285.357z
				 M283.945,257.851c-4.699-2.777-9.83-5.264-15.334-7.456c3.139-11.359,5.031-23.663,5.571-36.238h25.69
				C298.513,230.303,292.815,245.263,283.945,257.851z M299.872,199.156h-25.69v0.001c-0.54-12.573-2.432-24.875-5.571-36.233
				c5.501-2.191,10.632-4.678,15.334-7.458C292.815,168.053,298.513,183.012,299.872,199.156z M274.135,143.786
				c-3.216,1.775-6.648,3.42-10.306,4.908c-3.121-7.798-6.804-14.742-10.947-20.728C260.736,132.174,267.897,137.52,274.135,143.786
				z M219.214,118.821c11.901,3.972,22.859,16.399,30.346,34.596c-9.537,2.542-19.806,4.123-30.346,4.665V118.821z M219.214,199.157
				v-26.039c12.186-0.574,24.106-2.42,35.148-5.439c2.663,9.865,4.292,20.537,4.805,31.479h-39.953V199.157z M219.214,214.157
				h39.952c-0.512,10.943-2.141,21.616-4.804,31.482c-11.041-3.019-22.96-4.866-35.148-5.44V214.157z M219.214,255.234
				c10.54,0.542,20.808,2.123,30.345,4.666c-7.489,18.195-18.446,30.621-30.345,34.594V255.234z"/>
			<path d="M183.703,70.299h55.3c4.143,0,7.5-3.358,7.5-7.5V7.5c0-4.142-3.357-7.5-7.5-7.5h-55.3c-4.143,0-7.5,3.358-7.5,7.5v55.299
				C176.203,66.941,179.56,70.299,183.703,70.299z M191.203,15h40.3v40.299h-40.3V15z"/>
			<path d="M217.754,347.151c-1.362-2.23-3.788-3.591-6.401-3.591c-2.613,0-5.039,1.361-6.401,3.591l-33.108,54.218
				c-1.413,2.315-1.467,5.213-0.14,7.579c1.327,2.365,3.828,3.83,6.541,3.83h66.217c2.713,0,5.214-1.465,6.541-3.83
				c1.327-2.366,1.273-5.264-0.14-7.579L217.754,347.151z M191.612,397.778l19.74-32.327l19.74,32.327H191.612z"/>
			<path d="M79.678,206.659c0-21.965-17.87-39.835-39.835-39.835c-21.966,0-39.836,17.87-39.836,39.835
				c0,21.965,17.87,39.835,39.836,39.835C61.808,246.495,79.678,228.625,79.678,206.659z M39.843,231.495
				c-13.694,0-24.836-11.141-24.836-24.835c0-13.694,11.142-24.835,24.836-24.835c13.694,0,24.835,11.141,24.835,24.835
				C64.678,220.354,53.538,231.495,39.843,231.495z"/>
			<path d="M410.574,223.762l-17.105-17.103l17.103-17.103c2.929-2.929,2.929-7.678,0-10.606c-2.93-2.929-7.678-2.929-10.607,0
				l-17.103,17.103l-17.103-17.103c-2.93-2.929-7.678-2.929-10.607,0c-2.929,2.929-2.929,7.678,0,10.606l17.103,17.103
				l-17.103,17.103c-2.929,2.929-2.929,7.678,0,10.606c1.465,1.464,3.385,2.197,5.304,2.197c1.919,0,3.839-0.732,5.304-2.197
				l17.103-17.103l17.103,17.103c1.465,1.464,3.385,2.197,5.304,2.197c1.919,0,3.839-0.732,5.304-2.197
				C413.503,231.439,413.503,226.69,410.574,223.762z"/>
			<path d="M51.057,138.53c1.043,0.498,2.144,0.734,3.228,0.734c2.799,0,5.485-1.575,6.772-4.27
				c16.617-34.792,45.007-62.942,79.939-79.265c3.753-1.754,5.373-6.217,3.62-9.97c-1.754-3.753-6.221-5.372-9.97-3.62
				C96.574,59.93,65.632,90.61,47.521,128.529C45.737,132.268,47.32,136.745,51.057,138.53z"/>
			<path d="M372.798,272.014c-3.769-1.72-8.217-0.06-9.938,3.708c-16.44,36.019-45.262,65.091-81.152,81.861
				c-3.753,1.753-5.373,6.217-3.62,9.97c1.273,2.726,3.978,4.327,6.8,4.327c1.063,0,2.144-0.228,3.17-0.707
				c39.117-18.277,70.529-49.964,88.449-89.222C378.227,278.183,376.567,273.733,372.798,272.014z"/>
			<path d="M281.708,55.729c34.936,16.33,63.326,44.481,79.941,79.266c1.287,2.695,3.974,4.27,6.772,4.27
				c1.084,0,2.185-0.236,3.228-0.734c3.738-1.785,5.32-6.263,3.535-10c-18.108-37.912-49.05-68.592-87.125-86.39
				c-3.756-1.754-8.217-0.134-9.97,3.619C276.335,49.512,277.955,53.976,281.708,55.729z"/>
			<path d="M140.997,357.583c-35.892-16.771-64.712-45.843-81.151-81.861c-1.722-3.768-6.168-5.43-9.938-3.708
				c-3.769,1.72-5.429,6.169-3.709,9.937c17.919,39.257,49.33,70.944,88.448,89.222c1.027,0.48,2.106,0.707,3.17,0.707
				c2.822,0,5.526-1.602,6.8-4.327C146.37,363.8,144.75,359.336,140.997,357.583z"/>
		</g>
	</g>
</g>
<g>
</g>
<g>
</g>
<g>
</g>
<g>
</g>
<g>
</g>
<g>
</g>
<g>
</g>
<g>
</g>
<g>
</g>
<g>
</g>
<g>
</g>
<g>
</g>
<g>
</g>
<g>
</g>
<g>
</g>
</svg>
