<?xml version="1.0" encoding="iso-8859-1"?>
<!-- Generator: Adobe Illustrator 19.0.0, SVG Export Plug-In . SVG Version: 6.00 Build 0)  -->
<svg version="1.1" id="Layer_1" xmlns="http://www.w3.org/2000/svg" xmlns:xlink="http://www.w3.org/1999/xlink" x="0px" y="0px"
	 viewBox="0 0 438.646 438.646" style="enable-background:new 0 0 438.646 438.646;" xml:space="preserve">
<g>
	<g>
		<g>
			<path d="M163.919,22.927c-77.744,0-140.993,63.25-140.993,140.994s63.25,140.993,140.993,140.993s140.993-63.25,140.993-140.993
				C304.912,86.177,241.662,22.927,163.919,22.927z M163.919,289.914c-69.473,0-125.993-56.521-125.993-125.993
				c0-69.473,56.521-125.994,125.993-125.994s125.993,56.521,125.993,125.994S233.391,289.914,163.919,289.914z"/>
			<path d="M428.117,377.209l-88.088-88.088c-9.399-9.399-22.742-12.494-34.75-9.305l-13.37-13.37
				c51.612-64.333,47.608-158.849-12.03-218.487C248.952,17.033,207.77,0,163.919,0C120.07,0,78.883,17.034,47.958,47.959
				c-63.941,63.941-63.942,167.981,0,231.922c31.97,31.97,73.965,47.956,115.96,47.956c36.344,0,72.683-11.982,102.529-35.927
				l13.368,13.368c-3.19,12.008-0.096,25.354,9.304,34.753l88.088,88.088c7.018,7.018,16.236,10.527,25.455,10.527
				c9.218,0,18.437-3.509,25.455-10.527C442.153,414.083,442.153,391.245,428.117,377.209z M58.564,269.275
				c-58.093-58.093-58.092-152.617,0-210.709C86.658,30.472,124.074,15,163.919,15s77.26,15.472,105.354,43.566
				c58.092,58.093,58.092,152.616,0,210.708C211.179,327.367,116.656,327.367,58.564,269.275z M289.12,289.122
				c-0.716,0.716-1.386,1.46-2.029,2.219l-9.362-9.362c0.72-0.694,1.441-1.387,2.151-2.097c0.711-0.711,1.404-1.432,2.099-2.153
				l9.363,9.363C290.582,287.735,289.837,288.406,289.12,289.122z M417.51,417.513c-8.188,8.188-21.509,8.188-29.697,0
				l-88.088-88.088c-8.188-8.188-8.188-21.509,0-29.697c4.094-4.094,9.471-6.141,14.849-6.141c5.377,0,10.754,2.047,14.848,6.141
				l88.088,88.088C425.698,396.003,425.698,409.325,417.51,417.513z"/>
			<path d="M249.484,123.003c-2.29-11.545-11.733-20.173-23.5-21.47c-41.184-4.536-82.948-4.536-124.132,0
				c-11.766,1.296-21.209,9.924-23.5,21.47c-5.384,27.151-5.384,54.685,0,81.835c2.29,11.545,11.733,20.173,23.5,21.47
				c20.592,2.268,41.329,3.402,62.066,3.402c20.737,0,41.474-1.134,62.066-3.402c11.766-1.296,21.209-9.924,23.5-21.47
				C254.868,177.688,254.868,150.154,249.484,123.003z M234.77,201.92c-1.01,5.093-5.201,8.902-10.428,9.478
				c-40.094,4.417-80.753,4.417-120.847,0c-5.228-0.576-9.418-4.385-10.428-9.478c-5-25.214-5-50.785,0-76
				c1.01-5.093,5.201-8.902,10.428-9.478c20.049-2.208,40.233-3.313,60.423-3.313c20.186,0,40.379,1.104,60.423,3.313
				c5.228,0.576,9.418,4.385,10.428,9.478C239.77,151.136,239.77,176.706,234.77,201.92z"/>
			<path d="M197.05,157.426l-44.497-25.69c-2.32-1.34-5.18-1.34-7.5,0c-2.32,1.34-3.75,3.815-3.75,6.495v51.381
				c0,2.68,1.43,5.155,3.75,6.495c1.16,0.67,2.455,1.005,3.75,1.005c1.295,0,2.59-0.335,3.75-1.005l44.497-25.69
				c2.32-1.34,3.75-3.815,3.75-6.495S199.37,158.766,197.05,157.426z M156.302,176.621v-25.4l21.997,12.7L156.302,176.621z"/>
		</g>
	</g>
</g>
<g>
</g>
<g>
</g>
<g>
</g>
<g>
</g>
<g>
</g>
<g>
</g>
<g>
</g>
<g>
</g>
<g>
</g>
<g>
</g>
<g>
</g>
<g>
</g>
<g>
</g>
<g>
</g>
<g>
</g>
</svg>
