<?xml version="1.0" encoding="iso-8859-1"?>
<!-- Generator: Adobe Illustrator 19.0.0, SVG Export Plug-In . SVG Version: 6.00 Build 0)  -->
<svg version="1.1" id="Layer_1" xmlns="http://www.w3.org/2000/svg" xmlns:xlink="http://www.w3.org/1999/xlink" x="0px" y="0px"
	 viewBox="0 0 438.646 438.646" style="enable-background:new 0 0 438.646 438.646;" xml:space="preserve">
<g>
	<g>
		<g>
			<path d="M163.919,22.927c-77.744,0-140.993,63.25-140.993,140.994s63.25,140.993,140.993,140.993s140.993-63.25,140.993-140.993
				C304.912,86.177,241.662,22.927,163.919,22.927z M262.668,98.669h8.996c2.636,4.336,5.017,8.843,7.123,13.5h-16.119V98.669z
				 M104.673,52.754c17.671-9.456,37.842-14.827,59.246-14.827c21.403,0,41.573,5.371,59.244,14.827V76.18h-118.49V52.754z
				 M56.173,98.669h8.996v13.5H49.05C51.156,107.512,53.538,103.005,56.173,98.669z M37.926,163.921
				c0-2.265,0.063-4.515,0.182-6.751H65.17v13.5H38.107C37.989,168.434,37.926,166.185,37.926,163.921z M65.169,229.169h-8.997
				c-2.636-4.336-5.017-8.843-7.123-13.5h16.12V229.169z M223.163,275.088c-17.671,9.455-37.841,14.826-59.244,14.826
				c-21.404,0-41.575-5.371-59.246-14.827V251.67h118.49V275.088z M271.665,229.169h-8.997v-13.5h16.12
				C276.682,220.326,274.301,224.833,271.665,229.169z M284.439,200.67h-29.271c-4.142,0-7.5,3.358-7.5,7.5v28.5
				c0,4.142,3.358,7.5,7.5,7.5h5.809c-6.681,8.066-14.35,15.284-22.814,21.478V244.17c0-4.142-3.358-7.5-7.5-7.5H97.173
				c-4.142,0-7.5,3.358-7.5,7.5v21.477c-8.463-6.194-16.132-13.411-22.813-21.477h5.809c4.142,0,7.5-3.358,7.5-7.5v-28.5
				c0-4.142-3.358-7.5-7.5-7.5H43.398c-1.492-4.882-2.695-9.888-3.588-15h32.859c4.142,0,7.5-3.358,7.5-7.5v-28.5
				c0-4.142-3.358-7.5-7.5-7.5H39.81c0.893-5.112,2.097-10.118,3.588-15h29.271c4.142,0,7.5-3.358,7.5-7.5v-28.5
				c0-4.142-3.358-7.5-7.5-7.5h-5.807c6.68-8.065,14.348-15.282,22.811-21.475V83.68c0,4.142,3.358,7.5,7.5,7.5h133.49
				c4.142,0,7.5-3.358,7.5-7.5V62.194c8.463,6.193,16.131,13.41,22.812,21.476h-5.807c-4.142,0-7.5,3.358-7.5,7.5v28.5
				c0,4.142,3.358,7.5,7.5,7.5h29.271c1.492,4.882,2.695,9.888,3.588,15h-32.859c-4.142,0-7.5,3.358-7.5,7.5v28.5
				c0,4.142,3.358,7.5,7.5,7.5h32.859C287.134,190.782,285.93,195.788,284.439,200.67z M262.668,170.67v-13.5h27.062
				c0.119,2.236,0.182,4.486,0.182,6.751c0,2.264-0.063,4.513-0.182,6.749H262.668z"/>
			<path d="M428.117,377.209l-88.088-88.088c-9.399-9.399-22.742-12.494-34.75-9.305l-13.37-13.37
				c51.612-64.333,47.608-158.849-12.03-218.487C248.952,17.033,207.77,0,163.919,0C120.07,0,78.883,17.034,47.958,47.959
				c-63.941,63.941-63.942,167.981,0,231.922c31.97,31.97,73.965,47.956,115.96,47.956c36.344,0,72.683-11.982,102.529-35.927
				l13.368,13.368c-3.19,12.008-0.096,25.354,9.304,34.753l88.088,88.088c7.018,7.018,16.236,10.527,25.455,10.527
				c9.218,0,18.437-3.509,25.455-10.527C442.153,414.083,442.153,391.245,428.117,377.209z M58.564,269.275
				c-58.093-58.093-58.092-152.617,0-210.709C86.658,30.472,124.074,15,163.919,15s77.26,15.472,105.354,43.566
				c58.092,58.093,58.092,152.616,0,210.708C211.179,327.367,116.656,327.367,58.564,269.275z M289.12,289.122
				c-0.716,0.716-1.386,1.46-2.029,2.219l-9.362-9.362c0.72-0.694,1.441-1.387,2.151-2.097c0.711-0.711,1.404-1.432,2.099-2.153
				l9.363,9.363C290.582,287.735,289.837,288.406,289.12,289.122z M417.51,417.513c-8.188,8.188-21.509,8.188-29.697,0
				l-88.088-88.088c-8.188-8.188-8.188-21.509,0-29.697c4.094-4.094,9.471-6.141,14.849-6.141c5.377,0,10.754,2.047,14.848,6.141
				l88.088,88.088C425.698,396.003,425.698,409.325,417.51,417.513z"/>
			<path d="M230.665,110.673H97.172c-4.142,0-7.5,3.358-7.5,7.5v91.496c0,4.142,3.358,7.5,7.5,7.5h133.493
				c4.142,0,7.5-3.358,7.5-7.5v-91.496C238.165,114.031,234.807,110.673,230.665,110.673z M223.165,202.168H104.672v-76.496h118.493
				V202.168z"/>
		</g>
	</g>
</g>
<g>
</g>
<g>
</g>
<g>
</g>
<g>
</g>
<g>
</g>
<g>
</g>
<g>
</g>
<g>
</g>
<g>
</g>
<g>
</g>
<g>
</g>
<g>
</g>
<g>
</g>
<g>
</g>
<g>
</g>
</svg>
