<?xml version="1.0" encoding="iso-8859-1"?>
<!-- Generator: Adobe Illustrator 19.0.0, SVG Export Plug-In . SVG Version: 6.00 Build 0)  -->
<svg version="1.1" id="Layer_1" xmlns="http://www.w3.org/2000/svg" xmlns:xlink="http://www.w3.org/1999/xlink" x="0px" y="0px"
	 viewBox="0 0 438.643 438.643" style="enable-background:new 0 0 438.643 438.643;" xml:space="preserve">
<g>
	<g>
		<g>
			<path d="M122.09,73.267c-15.522,0-28.15,12.628-28.15,28.15c0,15.522,12.628,28.15,28.15,28.15
				c15.522,0,28.15-12.628,28.15-28.15C150.24,85.895,137.612,73.267,122.09,73.267z M122.09,114.566
				c-7.251,0-13.15-5.899-13.15-13.15c0-7.251,5.899-13.15,13.15-13.15c7.251,0,13.15,5.899,13.15,13.15
				C135.24,108.667,129.341,114.566,122.09,114.566z"/>
			<path d="M163.917,22.924c-77.744,0-140.993,63.25-140.993,140.994s63.249,140.993,140.993,140.993s140.993-63.25,140.993-140.993
				C304.91,86.174,241.661,22.924,163.917,22.924z M61.956,237.84l41.494-50.162l39.022,47.154l-35.281,41.565
				C89.22,267.297,73.715,254.015,61.956,237.84z M163.917,289.911c-14.837,0-29.08-2.586-42.311-7.317L222.585,163.63
				l51.205,61.887C252.178,263.914,211.03,289.911,163.917,289.911z M228.436,147.172c-1.414-1.709-3.513-2.705-5.731-2.719
				c-2.188,0.001-4.328,0.956-5.765,2.646l-64.612,76.12l-43.102-52.089c-1.425-1.722-3.544-2.719-5.779-2.718
				s-4.354,0.998-5.778,2.72l-44.174,53.402c-9.918-17.995-15.571-38.657-15.571-60.617c0-69.472,56.521-125.993,125.993-125.993
				c69.473,0,125.993,56.521,125.993,125.994c0,16.492-3.19,32.251-8.978,46.701L228.436,147.172z"/>
			<path d="M428.116,377.206l-88.089-88.088c-6.8-6.799-15.839-10.544-25.455-10.544c-3.189,0-6.312,0.421-9.314,1.219l-13.35-13.35
				c51.611-64.333,47.608-158.85-12.03-218.487c-63.941-63.941-167.981-63.94-231.923,0c-63.94,63.942-63.94,167.982,0,231.922
				c31.971,31.97,73.966,47.955,115.961,47.955c36.344,0,72.682-11.982,102.528-35.926l13.368,13.368
				c-3.19,12.008-0.095,25.353,9.304,34.753l88.089,88.088c7.018,7.018,16.236,10.527,25.454,10.527
				c9.219,0,18.438-3.509,25.455-10.527c0.001,0,0.001,0,0.001,0C442.152,414.08,442.152,391.242,428.116,377.206z M58.564,269.272
				c-58.093-58.092-58.093-152.616,0-210.709c29.046-29.046,67.199-43.569,105.354-43.569c38.155,0,76.309,14.523,105.354,43.569
				c58.093,58.092,58.093,152.616,0,210.708C211.179,327.365,116.655,327.364,58.564,269.272z M289.118,289.119
				c-0.716,0.716-1.385,1.46-2.028,2.219l-9.362-9.362c0.72-0.694,1.441-1.387,2.152-2.097c0.71-0.71,1.403-1.432,2.098-2.152
				l9.36,9.36C290.576,287.733,289.832,288.405,289.118,289.119z M417.51,417.51c-8.187,8.186-21.509,8.188-29.697,0l-88.088-88.088
				c-8.188-8.188-8.188-21.509-0.001-29.697c3.967-3.966,9.24-6.15,14.849-6.15s10.882,2.185,14.848,6.15l88.089,88.088
				C425.697,396,425.697,409.322,417.51,417.51z"/>
		</g>
	</g>
</g>
<g>
</g>
<g>
</g>
<g>
</g>
<g>
</g>
<g>
</g>
<g>
</g>
<g>
</g>
<g>
</g>
<g>
</g>
<g>
</g>
<g>
</g>
<g>
</g>
<g>
</g>
<g>
</g>
<g>
</g>
</svg>
