<?xml version="1.0" encoding="iso-8859-1"?>
<!-- Generator: Adobe Illustrator 19.0.0, SVG Export Plug-In . SVG Version: 6.00 Build 0)  -->
<svg version="1.1" id="Layer_1" xmlns="http://www.w3.org/2000/svg" xmlns:xlink="http://www.w3.org/1999/xlink" x="0px" y="0px"
	 viewBox="0 0 443.98 443.98" style="enable-background:new 0 0 443.98 443.98;" xml:space="preserve">
<g>
	<g>
		<g>
			<path d="M177.743,419.979c1.97,0,3.91-0.8,5.3-2.19c1.4-1.4,2.2-3.33,2.2-5.31c0-1.97-0.8-3.9-2.2-5.3
				c-1.389-1.39-3.32-2.2-5.3-2.2c-1.97,0-3.91,0.81-5.3,2.2c-1.4,1.4-2.2,3.33-2.2,5.3c0,1.98,0.8,3.91,2.2,5.31
				C173.833,419.179,175.773,419.979,177.743,419.979z"/>
			<path d="M115.918,79.705H84.741c-9.418,0-17.08,7.662-17.08,17.08v31.177c0,9.417,7.662,17.08,17.08,17.08h31.177
				c9.418,0,17.08-7.662,17.08-17.08V96.784C132.998,87.367,125.336,79.705,115.918,79.705z M117.998,127.961
				c0,1.146-0.934,2.08-2.08,2.08H84.741c-1.146,0-2.08-0.933-2.08-2.08V96.784c0-1.146,0.934-2.08,2.08-2.08h31.177
				c1.146,0,2.08,0.933,2.08,2.08V127.961z"/>
			<path d="M193.332,79.705h-31.177c-9.417,0-17.079,7.662-17.079,17.08v31.177c0,9.417,7.662,17.08,17.079,17.08h31.177
				c9.418,0,17.08-7.662,17.08-17.08V96.784C210.412,87.367,202.75,79.705,193.332,79.705z M195.412,127.961
				c0,1.146-0.934,2.08-2.08,2.08h-31.177c-1.146,0-2.079-0.933-2.079-2.08V96.784c0-1.146,0.933-2.08,2.079-2.08h31.177
				c1.146,0,2.08,0.933,2.08,2.08V127.961z"/>
			<path d="M115.918,152.785H84.741c-9.418,0-17.08,7.662-17.08,17.079v31.177c0,9.417,7.662,17.08,17.08,17.08h31.177
				c9.418,0,17.08-7.662,17.08-17.08v-31.177C132.998,160.447,125.336,152.785,115.918,152.785z M117.998,201.042
				c0,1.146-0.934,2.08-2.08,2.08H84.741c-1.146,0-2.08-0.933-2.08-2.08v-31.177c0-1.146,0.934-2.079,2.08-2.079h31.177
				c1.146,0,2.08,0.933,2.08,2.079V201.042z"/>
			<path d="M193.332,152.785h-31.177c-9.417,0-17.079,7.662-17.079,17.079v31.177c0,9.417,7.662,17.08,17.079,17.08h31.177
				c9.418,0,17.08-7.662,17.08-17.08v-31.177C210.412,160.447,202.75,152.785,193.332,152.785z M195.412,201.042
				c0,1.146-0.934,2.08-2.08,2.08h-31.177c-1.146,0-2.079-0.933-2.079-2.08v-31.177c0-1.146,0.933-2.079,2.079-2.079h31.177
				c1.146,0,2.08,0.933,2.08,2.079V201.042z"/>
			<path d="M115.918,225.865H84.741c-9.418,0-17.08,7.662-17.08,17.08v31.177c0,9.417,7.662,17.08,17.08,17.08h31.177
				c9.418,0,17.08-7.662,17.08-17.08v-31.177C132.998,233.527,125.336,225.865,115.918,225.865z M117.998,274.122
				c0,1.146-0.934,2.08-2.08,2.08H84.741c-1.146,0-2.08-0.933-2.08-2.08v-31.177c0-1.146,0.934-2.08,2.08-2.08h31.177
				c1.146,0,2.08,0.933,2.08,2.08V274.122z"/>
			<path d="M270.747,225.865H239.57c-9.417,0-17.079,7.662-17.079,17.08v31.177c0,9.417,7.662,17.08,17.079,17.08h31.178
				c9.417,0,17.079-7.662,17.079-17.08v-31.177C287.826,233.527,280.164,225.865,270.747,225.865z M272.827,274.122h-0.001
				c0,1.146-0.933,2.08-2.079,2.08H239.57c-1.146,0-2.079-0.933-2.079-2.08v-31.177c0-1.146,0.933-2.08,2.079-2.08h31.178
				c1.146,0,2.079,0.933,2.079,2.08V274.122z"/>
			<path d="M193.332,225.865h-31.177c-9.417,0-17.079,7.662-17.079,17.08v31.177c0,9.417,7.662,17.08,17.079,17.08h31.177
				c9.418,0,17.08-7.662,17.08-17.08v-31.177C210.412,233.527,202.75,225.865,193.332,225.865z M195.412,274.122
				c0,1.146-0.934,2.08-2.08,2.08h-31.177c-1.146,0-2.079-0.933-2.079-2.08v-31.177c0-1.146,0.933-2.08,2.079-2.08h31.177
				c1.146,0,2.08,0.933,2.08,2.08V274.122z"/>
			<path d="M115.918,298.945H84.741c-9.418,0-17.08,7.662-17.08,17.08v31.177c0,9.417,7.662,17.08,17.08,17.08h31.177
				c9.418,0,17.08-7.662,17.08-17.08v-31.177C132.998,306.607,125.336,298.945,115.918,298.945z M117.998,347.202
				c0,1.146-0.934,2.08-2.08,2.08H84.741c-1.146,0-2.08-0.933-2.08-2.08v-31.177c0-1.146,0.934-2.08,2.08-2.08h31.177
				c1.146,0,2.08,0.933,2.08,2.08V347.202z"/>
			<path d="M270.747,298.945H239.57c-9.417,0-17.079,7.662-17.079,17.08v31.177c0,9.417,7.662,17.08,17.079,17.08h31.178
				c9.417,0,17.079-7.662,17.079-17.08v-31.177C287.826,306.607,280.164,298.945,270.747,298.945z M272.827,347.202h-0.001
				c0,1.146-0.933,2.08-2.079,2.08H239.57c-1.146,0-2.079-0.933-2.079-2.08v-31.177c0-1.146,0.933-2.08,2.079-2.08h31.178
				c1.146,0,2.079,0.933,2.079,2.08V347.202z"/>
			<path d="M193.332,298.945h-31.177c-9.417,0-17.079,7.662-17.079,17.08v31.177c0,9.417,7.662,17.08,17.079,17.08h31.177
				c9.418,0,17.08-7.662,17.08-17.08v-31.177C210.412,306.607,202.75,298.945,193.332,298.945z M195.412,347.202
				c0,1.146-0.934,2.08-2.08,2.08h-31.177c-1.146,0-2.079-0.933-2.079-2.08v-31.177c0-1.146,0.933-2.08,2.079-2.08h31.177
				c1.146,0,2.08,0.933,2.08,2.08V347.202z"/>
			<path d="M381.516,26.179h-67.772C308.61,10.687,294.181,0,277.297,0H78.188c-21.196,0-38.44,17.244-38.44,38.44v367.11
				c0,21.19,17.244,38.43,38.44,38.43h199.109c21.196,0,38.44-17.24,38.44-38.43V183.745h65.778
				c12.526,0,22.717-10.191,22.717-22.717V48.896C404.233,36.37,394.042,26.179,381.516,26.179z M54.747,38.44
				C54.747,25.515,65.263,15,78.188,15h199.109c8.279,0,15.752,4.456,19.931,11.179h-27.844c-12.526,0-22.718,10.191-22.718,22.717
				v1.354H54.747V38.44z M247.694,167.79c2.885,9.234,11.518,15.955,21.69,15.955h3.443v17.295c0,1.146-0.934,2.08-2.08,2.08h-31.18
				c-1.146,0-2.08-0.933-2.08-2.08v-31.18c0-1.141,0.934-2.07,2.08-2.07H247.694z M246.666,130.04h-7.099
				c-1.146,0-2.08-0.933-2.08-2.08V96.78c0-1.147,0.934-2.08,2.08-2.08h7.099V130.04z M54.747,65.25h191.919V79.7h-7.099
				c-9.418,0-17.08,7.662-17.08,17.08v31.18c0,9.418,7.662,17.08,17.08,17.08h7.099v7.75h-7.099c-9.418,0-17.08,7.658-17.08,17.07
				v31.18c0,9.417,7.662,17.08,17.08,17.08h31.18c9.418,0,17.08-7.662,17.08-17.08v-17.295h12.91V378.73H54.747V65.25z
				 M300.738,405.55c0,12.919-10.516,23.43-23.441,23.43H78.188c-12.925,0-23.44-10.511-23.44-23.43v-11.815h245.99V405.55z
				 M389.233,161.028c0,4.255-3.462,7.717-7.717,7.717H269.384c-4.256,0-7.718-3.462-7.718-7.717V48.896
				c0-4.255,3.462-7.717,7.718-7.717h112.132c4.255,0,7.717,3.462,7.717,7.717V161.028z"/>
			<path d="M325.449,51.751c-29.341,0-53.211,23.87-53.211,53.211s23.87,53.211,53.211,53.211s53.211-23.871,53.211-53.211
				C378.66,75.622,354.79,51.751,325.449,51.751z M325.449,143.173c-21.069,0-38.211-17.142-38.211-38.211
				c0-21.069,17.142-38.211,38.211-38.211c21.069,0,38.211,17.141,38.211,38.211C363.66,126.032,346.519,143.173,325.449,143.173z"
				/>
			<path d="M336.56,83.246l-32.827,32.827c-2.929,2.929-2.929,7.678,0,10.606c1.465,1.465,3.384,2.197,5.304,2.197
				c1.919,0,3.839-0.732,5.304-2.197l32.827-32.827c2.929-2.929,2.929-7.678,0-10.606C344.239,80.318,339.49,80.316,336.56,83.246z"
				/>
		</g>
	</g>
</g>
<g>
</g>
<g>
</g>
<g>
</g>
<g>
</g>
<g>
</g>
<g>
</g>
<g>
</g>
<g>
</g>
<g>
</g>
<g>
</g>
<g>
</g>
<g>
</g>
<g>
</g>
<g>
</g>
<g>
</g>
</svg>
