<?xml version="1.0" encoding="iso-8859-1"?>
<!-- Generator: Adobe Illustrator 19.0.0, SVG Export Plug-In . SVG Version: 6.00 Build 0)  -->
<svg version="1.1" id="Layer_1" xmlns="http://www.w3.org/2000/svg" xmlns:xlink="http://www.w3.org/1999/xlink" x="0px" y="0px"
	 viewBox="0 0 443.978 443.978" style="enable-background:new 0 0 443.978 443.978;" xml:space="preserve">
<g>
	<g>
		<g>
			<path d="M321.547,0H122.432c-21.194,0-38.436,17.242-38.436,38.436v367.106c0,21.194,17.242,38.436,38.436,38.436h199.115
				c21.193,0,38.436-17.242,38.436-38.436V38.436C359.983,17.242,342.74,0,321.547,0z M344.983,405.543
				c0,12.922-10.513,23.436-23.436,23.436H122.432c-12.923,0-23.436-10.513-23.436-23.436v-11.812h245.987V405.543z
				 M344.983,378.731H98.996V140.994h245.987V378.731z M344.983,125.994H98.996V65.248h245.987V125.994z M344.983,50.248H98.996
				V38.436C98.996,25.513,109.509,15,122.432,15h199.115c12.923,0,23.436,10.513,23.436,23.436V50.248z"/>
			<path d="M221.992,419.978c1.97,0,3.899-0.8,5.3-2.2c1.4-1.39,2.2-3.32,2.2-5.3c0-1.97-0.8-3.9-2.2-5.3c-1.4-1.4-3.33-2.2-5.3-2.2
				c-1.98,0-3.91,0.8-5.31,2.2c-1.39,1.4-2.19,3.33-2.19,5.3c0,1.98,0.8,3.91,2.19,5.3
				C218.082,419.178,220.012,419.978,221.992,419.978z"/>
			<path d="M141.742,120.37h160.492c13.646,0,24.749-11.103,24.749-24.749c0-13.646-11.102-24.749-24.748-24.749H141.742
				c-13.647,0-24.75,11.103-24.75,24.749C116.992,109.267,128.096,120.37,141.742,120.37z M173.992,85.872h128.244
				c5.376,0,9.749,4.374,9.749,9.749s-4.373,9.749-9.749,9.749H173.992V85.872z M141.744,85.872h17.249v19.498h-17.249
				c-5.377,0-9.75-4.374-9.75-9.749S136.367,85.872,141.744,85.872z"/>
			<path d="M142.492,173.992h65.997c4.142,0,7.5-3.358,7.5-7.5c0-4.142-3.358-7.5-7.5-7.5h-65.997c-4.142,0-7.5,3.358-7.5,7.5
				C134.992,170.634,138.351,173.992,142.492,173.992z"/>
			<path d="M142.492,199.491h158.992c4.143,0,7.5-3.358,7.5-7.5c0-4.142-3.357-7.5-7.5-7.5H142.492c-4.142,0-7.5,3.358-7.5,7.5
				C134.992,196.133,138.351,199.491,142.492,199.491z"/>
			<path d="M142.492,249.738h65.997c4.142,0,7.5-3.358,7.5-7.5c0-4.142-3.358-7.5-7.5-7.5h-65.997c-4.142,0-7.5,3.358-7.5,7.5
				C134.992,246.38,138.351,249.738,142.492,249.738z"/>
			<path d="M142.492,275.237h158.992c4.143,0,7.5-3.358,7.5-7.5c0-4.142-3.357-7.5-7.5-7.5H142.492c-4.142,0-7.5,3.358-7.5,7.5
				C134.992,271.879,138.351,275.237,142.492,275.237z"/>
			<path d="M142.492,325.484h65.997c4.142,0,7.5-3.358,7.5-7.5c0-4.142-3.358-7.5-7.5-7.5h-65.997c-4.142,0-7.5,3.358-7.5,7.5
				C134.992,322.126,138.351,325.484,142.492,325.484z"/>
			<path d="M142.492,350.983h158.992c4.143,0,7.5-3.358,7.5-7.5c0-4.142-3.357-7.5-7.499-7.5H142.492c-4.142,0-7.5,3.358-7.5,7.5
				C134.992,347.625,138.351,350.983,142.492,350.983z"/>
		</g>
	</g>
</g>
<g>
</g>
<g>
</g>
<g>
</g>
<g>
</g>
<g>
</g>
<g>
</g>
<g>
</g>
<g>
</g>
<g>
</g>
<g>
</g>
<g>
</g>
<g>
</g>
<g>
</g>
<g>
</g>
<g>
</g>
</svg>
