<?xml version="1.0" encoding="iso-8859-1"?>
<!-- Generator: Adobe Illustrator 19.0.0, SVG Export Plug-In . SVG Version: 6.00 Build 0)  -->
<svg version="1.1" id="Layer_1" xmlns="http://www.w3.org/2000/svg" xmlns:xlink="http://www.w3.org/1999/xlink" x="0px" y="0px"
	 viewBox="0 0 402.576 402.576" style="enable-background:new 0 0 402.576 402.576;" xml:space="preserve">
<g>
	<g>
		<g>
			<path d="M389.429,225.76l-2.04-3.464c-15.557-26.423-27.166-56.034-34.506-88.008c-8.708-37.937-30.367-72.26-60.987-96.646
				C260.787,12.865,221.685-0.475,181.813,0.013C136.476,0.594,93.8,18.63,61.647,50.796
				c-32.153,32.166-50.172,74.849-50.736,120.186c-0.405,32.562,8.274,64.395,25.099,92.058
				c23.834,39.188,37.592,83.1,39.787,126.986l0.271,5.424c0.2,3.992,3.494,7.126,7.491,7.126h190.156c4.142,0,7.5-3.358,7.5-7.5
				v-48.704h22.325c10.464,0,20.235-4.141,27.513-11.66c7.277-7.519,11.098-17.419,10.754-27.963l-1.963-44.56l40.491-12.755
				c4.737-1.492,8.476-5.007,10.257-9.644C392.373,235.155,391.949,230.041,389.429,225.76z M376.589,234.412
				c-0.138,0.359-0.394,0.601-0.762,0.716l-45.984,14.485c-3.239,1.02-5.389,4.09-5.239,7.483l2.213,50.227
				c0.207,6.361-2.117,12.383-6.543,16.956c-4.427,4.574-10.37,7.092-16.735,7.092h-29.825c-4.142,0-7.5,3.358-7.5,7.5v48.704
				H90.686c-2.584-45.804-17.042-91.522-41.862-132.332c-15.361-25.257-23.285-54.33-22.915-84.076
				c0.515-41.402,16.975-80.385,46.346-109.768c29.371-29.383,68.348-45.857,109.75-46.389
				c36.423-0.462,72.137,11.736,100.547,34.363c27.975,22.28,47.76,53.627,55.711,88.269c7.684,33.473,19.863,64.515,36.2,92.263
				l2.04,3.464C376.698,233.702,376.727,234.053,376.589,234.412z"/>
			<path d="M184.377,47.685c-69.795,0-126.578,56.783-126.578,126.578s56.783,126.578,126.578,126.578
				s126.578-56.783,126.578-126.578S254.172,47.685,184.377,47.685z M184.377,285.842c-61.524,0-111.578-50.054-111.578-111.578
				c0-61.524,50.054-111.579,111.578-111.579s111.578,50.054,111.578,111.578S245.901,285.842,184.377,285.842z"/>
			<path d="M229.141,160.96v-18.828c0-4.142-3.358-7.5-7.5-7.5h-5.047c2.515-4.37,3.961-9.429,3.961-14.823
				c0-16.444-13.378-29.823-29.823-29.823c-8.877,0-16.855,3.903-22.323,10.077c-5.468-6.174-13.446-10.077-22.323-10.077
				c-16.444,0-29.823,13.378-29.823,29.823c0,5.394,1.447,10.453,3.961,14.823h-5.047c-4.142,0-7.5,3.358-7.5,7.5v80.706
				c0,4.142,3.358,7.5,7.5,7.5H221.64c4.142,0,7.5-3.358,7.5-7.5v-18.835l30.693,17.726c1.161,0.67,2.456,1.005,3.751,1.005
				c1.294,0,2.589-0.335,3.75-1.004c2.321-1.34,3.75-3.816,3.75-6.496v-65.495c0-2.679-1.429-5.155-3.75-6.495
				c-2.321-1.34-5.18-1.34-7.5,0L229.141,160.96z M190.732,104.986c8.173,0,14.823,6.649,14.823,14.823
				c0,8.174-6.649,14.823-14.823,14.823c-8.174,0-14.823-6.65-14.823-14.823C175.909,111.636,182.559,104.986,190.732,104.986z
				 M146.087,104.986c8.174,0,14.823,6.649,14.823,14.823c0,8.174-6.649,14.823-14.823,14.823s-14.823-6.65-14.823-14.823
				C131.264,111.636,137.913,104.986,146.087,104.986z M214.141,215.338h-91.463v-65.706h91.463V215.338z M256.085,202.241
				l-26.944-15.561v-8.4l26.944-15.553V202.241z"/>
			<path d="M147.018,189.986c1.98,0,3.91-0.8,5.31-2.2c1.39-1.4,2.19-3.33,2.19-5.3c0-1.98-0.8-3.91-2.19-5.31
				c-1.4-1.39-3.33-2.19-5.31-2.19c-1.97,0-3.9,0.8-5.3,2.19c-1.4,1.4-2.2,3.33-2.2,5.31c0,1.97,0.8,3.9,2.2,5.3
				C143.118,189.186,145.048,189.986,147.018,189.986z"/>
			<path d="M189.798,189.986c1.97,0,3.91-0.8,5.3-2.2c1.4-1.39,2.2-3.33,2.2-5.3c0-1.98-0.8-3.91-2.2-5.31
				c-1.39-1.39-3.33-2.19-5.3-2.19c-1.97,0-3.91,0.8-5.3,2.19c-1.4,1.4-2.2,3.33-2.2,5.31c0,1.97,0.8,3.91,2.2,5.3
				C185.888,189.186,187.828,189.986,189.798,189.986z"/>
		</g>
	</g>
</g>
<g>
</g>
<g>
</g>
<g>
</g>
<g>
</g>
<g>
</g>
<g>
</g>
<g>
</g>
<g>
</g>
<g>
</g>
<g>
</g>
<g>
</g>
<g>
</g>
<g>
</g>
<g>
</g>
<g>
</g>
</svg>
