<?xml version="1.0" encoding="iso-8859-1"?>
<!-- Generator: Adobe Illustrator 19.0.0, SVG Export Plug-In . SVG Version: 6.00 Build 0)  -->
<svg version="1.1" id="Layer_1" xmlns="http://www.w3.org/2000/svg" xmlns:xlink="http://www.w3.org/1999/xlink" x="0px" y="0px"
	 viewBox="0 0 272.666 272.666" style="enable-background:new 0 0 272.666 272.666;" xml:space="preserve">
<g>
	<g>
		<g>
			<path d="M236.678,32.375h-3.652l-4.189-12.406C224.805,8.025,213.625,0,201.019,0H71.649C59.043,0,47.863,8.025,43.831,19.969
				l-4.189,12.406H35.99c-13.062,0-23.688,10.626-23.688,23.688S22.928,79.75,35.99,79.75h1.948L47.3,244.966
				c0.881,15.532,13.758,27.7,29.315,27.7h119.437c15.558,0,28.435-12.168,29.315-27.701l9.362-165.215h1.948
				c13.062,0,23.688-10.626,23.688-23.688S249.739,32.375,236.678,32.375z M58.042,24.768C60.014,18.925,65.483,15,71.649,15
				h129.369c6.166,0,11.635,3.925,13.607,9.768l2.568,7.607H55.474L58.042,24.768z M210.392,244.116
				c-0.431,7.598-6.729,13.55-14.339,13.55H76.615c-7.61,0-13.908-5.952-14.339-13.549L52.962,79.75h166.744L210.392,244.116z
				 M236.678,64.75c-4.435,0-193.304,0-200.688,0c-4.79,0-8.688-3.897-8.688-8.688s3.897-8.688,8.688-8.688h9.035h182.617h9.035
				c4.79,0,8.688,3.897,8.688,8.688S241.467,64.75,236.678,64.75z"/>
			<path d="M96.17,188.632h27.99l-8.531,42.002c-2.319,11.413,12.732,17.777,19.32,8.198l50.371-73.27
				c4.885-7.097-0.209-16.778-8.822-16.778h-27.99l8.532-42.001c2.312-11.39-12.719-17.798-19.321-8.198l-50.372,73.27
				C82.466,178.951,87.552,188.632,96.17,188.632z M138.146,124.441l-5.385,26.504c-1.347,6.641,3.732,12.839,10.496,12.839h25.082
				l-33.818,49.191l5.385-26.505c1.347-6.641-3.732-12.839-10.496-12.839h-25.082L138.146,124.441z"/>
		</g>
	</g>
</g>
<g>
</g>
<g>
</g>
<g>
</g>
<g>
</g>
<g>
</g>
<g>
</g>
<g>
</g>
<g>
</g>
<g>
</g>
<g>
</g>
<g>
</g>
<g>
</g>
<g>
</g>
<g>
</g>
<g>
</g>
</svg>
