<?xml version="1.0" encoding="iso-8859-1"?>
<!-- Generator: Adobe Illustrator 19.0.0, SVG Export Plug-In . SVG Version: 6.00 Build 0)  -->
<svg version="1.1" id="Layer_1" xmlns="http://www.w3.org/2000/svg" xmlns:xlink="http://www.w3.org/1999/xlink" x="0px" y="0px"
	 viewBox="0 0 363.669 363.669" style="enable-background:new 0 0 363.669 363.669;" xml:space="preserve">
<g>
	<g>
		<g>
			<path d="M82.083,137.045c-28.643,0-51.944,23.302-51.944,51.944c0,28.643,23.302,51.945,51.944,51.945
				c28.643,0,51.945-23.302,51.945-51.945C134.028,160.347,110.726,137.045,82.083,137.045z M82.083,225.934
				c-20.371,0-36.944-16.573-36.944-36.945c0-20.371,16.573-36.944,36.944-36.944c20.372,0,36.945,16.573,36.945,36.944
				C119.028,209.361,102.455,225.934,82.083,225.934z"/>
			<path d="M74.488,159.64c-11.996,0-21.755,9.759-21.755,21.755c0,4.142,3.358,7.5,7.5,7.5c4.143,0,7.5-3.358,7.5-7.5
				c0-3.725,3.03-6.755,6.755-6.755c4.143,0,7.5-3.358,7.5-7.5C81.988,162.998,78.631,159.64,74.488,159.64z"/>
			<path d="M281.59,106.91c-13.397,0-26.473,3.25-38.211,9.431c-28.433-31.666-94.667-31.647-123.086-0.001
				c-11.73-6.18-24.806-9.43-38.213-9.43C36.821,106.91,0,143.731,0,188.99c0,45.259,36.821,82.08,82.08,82.08
				c31.284,0,58.529-17.594,72.379-43.4h54.76c13.849,25.807,41.09,43.4,72.37,43.4c45.259,0,82.08-36.821,82.08-82.08
				C363.67,143.731,326.849,106.91,281.59,106.91z M82.08,256.07c-36.988,0-67.08-30.092-67.08-67.08
				c0-36.988,30.092-67.08,67.08-67.08c37.232,0,67.087,30.247,67.087,67.08C149.167,225.71,119.284,256.07,82.08,256.07z
				 M202.982,212.669h-42.293c4.655-15.395,4.587-32.149,0-47.359h42.293C198.311,180.772,198.425,197.598,202.982,212.669z
				 M209.183,150.31h-54.688c-5.249-9.829-12.675-18.722-21.423-25.652c23.004-22.712,74.509-22.728,97.527,0
				C221.683,131.709,214.317,140.687,209.183,150.31z M281.59,256.07c-37.301,0-67.08-30.457-67.08-67.08
				c0-0.087,0.003-0.18,0.003-0.267c0.145-36.855,30.02-66.812,67.077-66.812c36.988,0,67.08,30.092,67.08,67.08
				C348.67,225.978,318.578,256.07,281.59,256.07z"/>
			<path d="M281.59,137.045c-28.643,0-51.944,23.302-51.944,51.944c0,28.643,23.302,51.945,51.944,51.945
				c28.642,0,51.944-23.302,51.944-51.945C333.534,160.347,310.233,137.045,281.59,137.045z M281.59,225.934
				c-20.371,0-36.944-16.573-36.944-36.945c0-20.371,16.573-36.944,36.944-36.944c20.371,0,36.944,16.573,36.944,36.944
				C318.534,209.361,301.961,225.934,281.59,225.934z"/>
			<path d="M273.995,159.64c-11.996,0-21.756,9.759-21.756,21.755c0,4.142,3.357,7.5,7.5,7.5s7.5-3.358,7.5-7.5
				c0-3.725,3.03-6.755,6.756-6.755c4.142,0,7.5-3.358,7.5-7.5C281.495,162.998,278.138,159.64,273.995,159.64z"/>
		</g>
	</g>
</g>
<g>
</g>
<g>
</g>
<g>
</g>
<g>
</g>
<g>
</g>
<g>
</g>
<g>
</g>
<g>
</g>
<g>
</g>
<g>
</g>
<g>
</g>
<g>
</g>
<g>
</g>
<g>
</g>
<g>
</g>
</svg>
