<?xml version="1.0" encoding="iso-8859-1"?>
<!-- Generator: Adobe Illustrator 19.0.0, SVG Export Plug-In . SVG Version: 6.00 Build 0)  -->
<svg version="1.1" id="Layer_1" xmlns="http://www.w3.org/2000/svg" xmlns:xlink="http://www.w3.org/1999/xlink" x="0px" y="0px"
	 viewBox="0 0 288.414 288.414" style="enable-background:new 0 0 288.414 288.414;" xml:space="preserve">
<g>
	<g>
		<g>
			<path d="M156.22,0.013C89.951,0.94,37.144,56.808,39.784,122.749c-0.157,0.951-0.101,1.087-0.101,9.303l-26.28,42.668
				c-3.076,4.995,0.53,11.434,6.386,11.434h19.894v32.808c0,14.354,11.678,26.032,26.033,26.032h43.293v35.92
				c0,4.142,3.358,7.5,7.5,7.5h82.801c4.143,0,7.5-3.358,7.5-7.5c0-31.864,12.224-58.022,31.758-76.255
				c23.875-22.284,37.567-53.788,37.567-86.432C276.135,52.23,222.224-0.955,156.22,0.013z M228.334,193.694
				c-21.881,20.423-34.965,49.224-36.393,79.72h-67.932v-35.92c0-4.143-3.358-7.5-7.5-7.5H65.716
				c-6.083,0-11.033-4.949-11.033-11.032v-40.308c0-4.143-3.358-7.5-7.5-7.5H33.217c22.106-35.891,21.466-34.051,21.466-36.978
				v-8.629c0.659-3.089-5.158-44.767,30.368-80.255c64.836-64.766,176.084-18.945,176.084,72.934
				C261.135,146.729,249.179,174.235,228.334,193.694z"/>
			<path d="M233.527,68.783c-28.157-43.03-86.361-54.228-128.36-23.773c-8.817,6.442-21.753,24.091-7.596,44.769
				c19.143,27.96,44.713,13.06,50.27,15.474c0.983,1.335,0.729,5.167,0.669,6.528c-0.145,3.38-0.327,7.587,1.259,11.824
				c6.671,17.82,31.383,13.382,34.072,13.571c0.496,1.006,1.202,3.067,1.697,4.512c11.467,33.474,46.04,33.955,55.304,12.751
				C253.06,126.478,250.326,94.457,233.527,68.783z M227.096,148.433c-1.335,3.057-4.259,5.309-7.854,5.309
				c-9.105,0-15.67-5.69-19.516-16.915c-3.316-9.684-6.556-15.935-20.787-14.418c-6.307,0.671-13.722-0.315-15.124-4.062
				c-0.736-1.967-0.23-5.542-0.226-9.208c0.008-7.852-3.073-14.047-8.452-16.998c-14.615-8.015-30.395,10.774-45.19-10.837
				c-9.08-13.262,1.831-22.497,4.047-24.166c35.018-25.392,83.484-16.055,106.981,19.857
				C234.993,98.42,237.282,125.125,227.096,148.433z"/>
		</g>
	</g>
</g>
<g>
</g>
<g>
</g>
<g>
</g>
<g>
</g>
<g>
</g>
<g>
</g>
<g>
</g>
<g>
</g>
<g>
</g>
<g>
</g>
<g>
</g>
<g>
</g>
<g>
</g>
<g>
</g>
<g>
</g>
</svg>
