<?xml version="1.0" encoding="iso-8859-1"?>
<!-- Generator: Adobe Illustrator 19.0.0, SVG Export Plug-In . SVG Version: 6.00 Build 0)  -->
<svg version="1.1" id="Layer_1" xmlns="http://www.w3.org/2000/svg" xmlns:xlink="http://www.w3.org/1999/xlink" x="0px" y="0px"
	 viewBox="0 0 329.795 329.795" style="enable-background:new 0 0 329.795 329.795;" xml:space="preserve">
<g>
	<g>
		<g>
			<path d="M164.897,0C88.641,0,26.603,62.039,26.603,138.295c0,21.488,4.927,41.847,13.71,60.007c0,11.499,0,99.836,0,113.993
				c0,9.649,7.851,17.5,17.5,17.5h214.17c9.649,0,17.5-7.851,17.5-17.5c0-14.157,0-102.494,0-113.993
				c8.782-18.16,13.709-38.519,13.709-60.007C303.192,62.039,241.153,0,164.897,0z M274.483,312.295h-0.001
				c0,1.379-1.121,2.5-2.5,2.5H57.813c-1.378,0-2.5-1.121-2.5-2.5v-13.5h219.17V312.295z M55.313,283.795V222.66
				c26.153,33.942,66.503,53.929,109.585,53.929c42.999,0,83.379-19.922,109.584-53.929v61.135H55.313z M164.897,261.589
				c-67.805,0-123.294-55.143-123.294-123.294C41.603,70.31,96.912,15,164.897,15s123.295,55.31,123.295,123.295
				C288.192,206.38,232.77,261.589,164.897,261.589z"/>
			<path d="M205.897,130.795h-18.332c-2.37-7.144-8.024-12.798-15.168-15.168V81.816c0-4.143-3.357-7.5-7.5-7.5
				c-4.142,0-7.5,3.357-7.5,7.5v33.811c-9.504,3.153-16.381,12.119-16.381,22.668c0,13.168,10.713,23.881,23.881,23.881
				c10.548,0,19.515-6.877,22.668-16.381h18.332c4.143,0,7.5-3.357,7.5-7.5S210.04,130.795,205.897,130.795z M164.897,147.176
				c-4.897,0-8.881-3.984-8.881-8.881c0-4.897,3.984-8.881,8.881-8.881c4.896,0,8.881,3.984,8.881,8.881
				C173.778,143.191,169.794,147.176,164.897,147.176z"/>
			<path d="M164.897,29.795c-59.826,0-108.5,48.695-108.5,108.5c0,59.826,48.696,108.5,108.5,108.5
				c59.46,0,108.5-48.244,108.5-108.5C273.397,78.468,224.701,29.795,164.897,29.795z M244.77,145.794h13.326
				c-1.607,20.153-9.634,38.522-22.027,53.064l-9.389-9.389c-2.93-2.928-7.678-2.928-10.607,0c-2.929,2.93-2.929,7.678,0,10.607
				l9.389,9.389c-14.542,12.393-32.912,20.42-53.064,22.027v-13.326c0-4.143-3.357-7.5-7.5-7.5c-4.142,0-7.5,3.357-7.5,7.5v13.326
				c-20.153-1.607-38.523-9.634-53.065-22.027l9.389-9.389c2.929-2.93,2.929-7.678,0-10.607c-2.929-2.928-7.678-2.928-10.606,0
				l-9.39,9.39c-12.393-14.542-20.42-32.912-22.027-53.064h13.326c4.142,0,7.5-3.357,7.5-7.5c-0.001-4.143-3.359-7.5-7.501-7.5
				H71.699c1.607-20.153,9.634-38.523,22.027-53.065l9.39,9.39c2.93,2.929,7.677,2.928,10.606,0c2.929-2.93,2.929-7.678,0-10.607
				l-9.389-9.389c14.542-12.393,32.912-20.42,53.065-22.027v13.326c0,4.143,3.358,7.5,7.5,7.5c4.143,0,7.5-3.357,7.5-7.5V45.096
				c20.153,1.607,38.522,9.634,53.064,22.027l-9.389,9.389c-2.929,2.93-2.929,7.678,0,10.607c2.931,2.929,7.678,2.928,10.607,0
				l9.389-9.389c12.393,14.542,20.42,32.912,22.027,53.064H244.77c-4.143,0-7.5,3.357-7.5,7.5S240.627,145.794,244.77,145.794z"/>
			<circle cx="258.614" cy="267.927" r="9.368"/>
		</g>
	</g>
</g>
<g>
</g>
<g>
</g>
<g>
</g>
<g>
</g>
<g>
</g>
<g>
</g>
<g>
</g>
<g>
</g>
<g>
</g>
<g>
</g>
<g>
</g>
<g>
</g>
<g>
</g>
<g>
</g>
<g>
</g>
</svg>
