<?xml version="1.0" encoding="iso-8859-1"?>
<!-- Generator: Adobe Illustrator 19.0.0, SVG Export Plug-In . SVG Version: 6.00 Build 0)  -->
<svg version="1.1" id="Layer_1" xmlns="http://www.w3.org/2000/svg" xmlns:xlink="http://www.w3.org/1999/xlink" x="0px" y="0px"
	 viewBox="0 0 272.578 272.578" style="enable-background:new 0 0 272.578 272.578;" xml:space="preserve">
<g>
	<g>
		<g>
			<path d="M237.044,107.7h-28.186V83.5c0-4.143-3.357-7.5-7.5-7.5H23.536c-4.143,0-7.5,3.357-7.5,7.5v138.066
				c0,10.506,5.924,19.651,14.605,24.28v19.232c0,4.143,3.357,7.5,7.5,7.5h148.61c4.143,0,7.5-3.357,7.5-7.5v-19.232
				c8.681-4.629,14.605-13.774,14.605-24.28v-4.2h28.186c10.752,0,19.5-8.748,19.5-19.5V127.2
				C256.544,116.448,247.796,107.7,237.044,107.7z M179.252,257.578H45.642v-8.512h133.61V257.578z M193.857,221.566
				c0,6.893-5.607,12.5-12.5,12.5H43.536c-6.893,0-12.5-5.607-12.5-12.5V91h162.821C193.857,95.936,193.857,215.534,193.857,221.566
				z M208.858,146.7h8.686v31.666h-8.686V146.7z M241.544,197.866c0,2.482-2.018,4.5-4.5,4.5h-28.186v-9h16.186
				c4.143,0,7.5-3.357,7.5-7.5V139.2c0-4.143-3.357-7.5-7.5-7.5h-16.186v-9h28.186c2.482,0,4.5,2.019,4.5,4.5V197.866z"/>
			<path d="M112.446,68c4.143,0,7.5-3.357,7.5-7.5v-53c0-4.142-3.357-7.5-7.5-7.5s-7.5,3.358-7.5,7.5v53
				C104.946,64.643,108.304,68,112.446,68z"/>
			<path d="M142.446,68c4.143,0,7.5-3.357,7.5-7.5V28.167c0-4.142-3.357-7.5-7.5-7.5s-7.5,3.358-7.5,7.5V60.5
				C134.946,64.643,138.304,68,142.446,68z"/>
			<path d="M82.446,68c4.143,0,7.5-3.357,7.5-7.5V28.167c0-4.142-3.357-7.5-7.5-7.5s-7.5,3.358-7.5,7.5V60.5
				C74.946,64.643,78.304,68,82.446,68z"/>
		</g>
	</g>
</g>
<g>
</g>
<g>
</g>
<g>
</g>
<g>
</g>
<g>
</g>
<g>
</g>
<g>
</g>
<g>
</g>
<g>
</g>
<g>
</g>
<g>
</g>
<g>
</g>
<g>
</g>
<g>
</g>
<g>
</g>
</svg>
