<?xml version="1.0" encoding="iso-8859-1"?>
<!-- Generator: Adobe Illustrator 19.0.0, SVG Export Plug-In . SVG Version: 6.00 Build 0)  -->
<svg version="1.1" id="Layer_1" xmlns="http://www.w3.org/2000/svg" xmlns:xlink="http://www.w3.org/1999/xlink" x="0px" y="0px"
	 viewBox="0 0 275.754 275.754" style="enable-background:new 0 0 275.754 275.754;" xml:space="preserve">
<g>
	<g>
		<g>
			<path d="M242.966,24.679h-19.014V7.5c0-4.142-3.357-7.5-7.5-7.5H59.302c-4.143,0-7.5,3.358-7.5,7.5v17.179H32.788
				c-4.143,0-7.5,3.358-7.5,7.5v24.679c0,4.142,3.358,7.5,7.5,7.5h19.361l9.662,204.25c0.188,4,3.487,7.146,7.491,7.146h137.15
				c4.004,0,7.303-3.146,7.491-7.146l9.662-204.25h19.361c4.143,0,7.5-3.358,7.5-7.5V32.179
				C250.466,28.037,247.108,24.679,242.966,24.679z M66.802,15h142.15v9.679H66.802V15z M199.3,260.754H76.455l-2.346-49.606
				h127.537L199.3,260.754z M202.355,196.148H73.399l-3.178-67.184h135.311L202.355,196.148z M206.242,113.964H69.511l-2.346-49.606
				h141.424L206.242,113.964z M235.466,49.358c-6.984,0-187.816,0-195.178,0v-9.679c7.404,0,188.209,0,195.178,0V49.358z"/>
			<path d="M137.877,192.953c16.761,0,30.398-13.636,30.398-30.397c0-16.761-13.637-30.397-30.398-30.397
				s-30.397,13.636-30.397,30.397C107.48,179.317,121.116,192.953,137.877,192.953z M137.877,147.159
				c8.49,0,15.398,6.907,15.398,15.397c0,8.49-6.907,15.397-15.398,15.397c-8.491,0-15.397-6.907-15.397-15.397
				C122.48,154.066,129.387,147.159,137.877,147.159z"/>
		</g>
	</g>
</g>
<g>
</g>
<g>
</g>
<g>
</g>
<g>
</g>
<g>
</g>
<g>
</g>
<g>
</g>
<g>
</g>
<g>
</g>
<g>
</g>
<g>
</g>
<g>
</g>
<g>
</g>
<g>
</g>
<g>
</g>
</svg>
