<?xml version="1.0" encoding="iso-8859-1"?>
<!-- Generator: Adobe Illustrator 19.0.0, SVG Export Plug-In . SVG Version: 6.00 Build 0)  -->
<svg version="1.1" id="Layer_1" xmlns="http://www.w3.org/2000/svg" xmlns:xlink="http://www.w3.org/1999/xlink" x="0px" y="0px"
	 viewBox="0 0 297.444 297.444" style="enable-background:new 0 0 297.444 297.444;" xml:space="preserve">
<g>
	<g>
		<g>
			<path d="M225.665,132.929c-28.067,0-51.78,14.883-51.78,32.5c0,17.012,22.794,32.5,51.78,32.5c29.208,0,51.78-15.638,51.78-32.5
				C277.445,148.14,254.074,132.929,225.665,132.929z M225.665,182.929c-23.493,0-36.78-11.728-36.78-17.5
				c0-6.001,14.026-17.5,36.78-17.5c22.751,0,36.78,11.431,36.78,17.5C262.445,171.112,249.319,182.929,225.665,182.929z"/>
			<path d="M225.664,112.929c-38.883,0-71.78,22.621-71.78,52.5c0,11.231,0,50.679,0,65.653c0,29.896,32.919,52.5,71.78,52.5
				c38.881,0,71.78-22.619,71.78-52.5c0-11.231,0-50.679,0-65.653C297.444,135.533,264.525,112.929,225.664,112.929z
				 M282.444,231.082c0,19.691-24.507,37.5-56.78,37.5c-32.268,0-56.78-17.803-56.78-37.5v-0.389
				c28.545,26.955,85.043,26.931,113.56,0V231.082z M225.664,235.609c-32.268,0-56.78-17.803-56.78-37.5v-0.389
				c0.096,0.09,0.201,0.175,0.298,0.265c28.813,26.84,85.126,26.313,113.262-0.264C282.444,219.082,256.248,235.609,225.664,235.609
				z M225.665,202.929c-31.036,0-56.78-16.983-56.78-37.5c-0.001-19.702,24.52-37.5,56.78-37.5c32.27,0,56.78,17.805,56.78,37.5
				C282.445,185.964,256.675,202.929,225.665,202.929z"/>
			<path d="M71.78,13.862C32.899,13.862,0,36.481,0,66.362c0,19.722,0,143.654,0,164.573c0,29.913,32.942,52.5,71.78,52.5
				c38.889,0,71.78-22.624,71.78-52.5c0-6.475,0-156.731,0-164.573C143.56,36.466,110.641,13.862,71.78,13.862z M128.56,230.936
				c0,19.709-24.53,37.5-56.78,37.5c-32.261,0-56.78-17.798-56.78-37.5v-0.389c13.326,12.583,34.07,20.208,56.78,20.208
				c22.712,0,43.456-7.625,56.78-20.208V230.936z M128.56,197.962c0,19.702-24.521,37.5-56.78,37.5
				c-32.27,0-56.78-17.805-56.78-37.5v-0.389c13.326,12.583,34.069,20.209,56.78,20.209c22.712,0,43.456-7.625,56.78-20.209V197.962
				z M128.56,164.989c0,19.709-24.53,37.5-56.78,37.5c-32.261,0-56.78-17.798-56.78-37.5V164.6
				c13.326,12.583,34.07,20.209,56.78,20.209c22.712,0,43.456-7.625,56.78-20.208V164.989z M128.56,132.017
				c0,19.708-24.53,37.499-56.78,37.499c-32.261,0-56.78-17.798-56.78-37.5v-0.389c13.326,12.584,34.069,20.209,56.78,20.209
				c22.712,0,43.456-7.625,56.78-20.208V132.017z M71.78,136.542c-30.926,0-56.78-16.747-56.78-37.889
				c28.7,27.099,85.346,26.643,113.56,0.001C128.56,120.01,102.372,136.542,71.78,136.542z M71.78,103.862
				c-31.043,0-56.78-16.989-56.78-37.5c0-19.69,24.507-37.5,56.78-37.5c32.268,0,56.78,17.803,56.78,37.5
				C128.56,86.895,102.791,103.862,71.78,103.862z"/>
			<path d="M71.78,33.862c-28.067,0-51.78,14.883-51.78,32.5c0,17.013,22.794,32.5,51.78,32.5c29.208,0,51.78-15.638,51.78-32.5
				C123.56,49.073,100.19,33.862,71.78,33.862z M71.78,83.862c-23.493,0-36.78-11.728-36.78-17.5c0-6.001,14.026-17.5,36.78-17.5
				c22.751,0,36.78,11.431,36.78,17.5C108.56,72.045,95.434,83.862,71.78,83.862z"/>
		</g>
	</g>
</g>
<g>
</g>
<g>
</g>
<g>
</g>
<g>
</g>
<g>
</g>
<g>
</g>
<g>
</g>
<g>
</g>
<g>
</g>
<g>
</g>
<g>
</g>
<g>
</g>
<g>
</g>
<g>
</g>
<g>
</g>
</svg>
