<?xml version="1.0" encoding="iso-8859-1"?>
<!-- Generator: Adobe Illustrator 19.0.0, SVG Export Plug-In . SVG Version: 6.00 Build 0)  -->
<svg version="1.1" id="Layer_1" xmlns="http://www.w3.org/2000/svg" xmlns:xlink="http://www.w3.org/1999/xlink" x="0px" y="0px"
	 viewBox="0 0 276.588 276.588" style="enable-background:new 0 0 276.588 276.588;" xml:space="preserve">
<g>
	<g>
		<g>
			<path d="M138.294,0C62.039,0,0,62.039,0,138.294s62.038,138.294,138.294,138.294s138.294-62.039,138.294-138.294
				S214.55,0,138.294,0z M138.294,261.589C70.31,261.589,15,206.279,15,138.294S70.31,15,138.294,15s123.294,55.31,123.294,123.294
				S206.279,261.589,138.294,261.589z"/>
			<path d="M138.294,38.309c-55.132,0-99.986,44.854-99.986,99.986s44.854,99.986,99.986,99.986s99.986-44.854,99.986-99.986
				C238.28,83.163,193.427,38.309,138.294,38.309z M145.794,222.93v-11.496c0-4.142-3.358-7.5-7.5-7.5c-4.142,0-7.5,3.358-7.5,7.5
				v11.496c-40.886-3.594-73.542-36.25-77.136-77.136h11.496c4.142,0,7.5-3.358,7.5-7.5c0-4.142-3.358-7.5-7.5-7.5H53.658
				c3.594-40.886,36.25-73.542,77.136-77.136v11.496c0,4.142,3.358,7.5,7.5,7.5c4.142,0,7.5-3.358,7.5-7.5V53.658
				c40.886,3.594,73.542,36.25,77.136,77.136h-11.496c-4.142,0-7.5,3.358-7.5,7.5c0,4.142,3.358,7.5,7.5,7.5h11.496
				C219.336,186.68,186.68,219.336,145.794,222.93z"/>
			<path d="M178.939,87.268l-54.122,35.375c-0.762,0.498-1.615,1.319-2.174,2.174l-35.375,54.122
				c-4.425,6.77,3.612,14.804,10.381,10.381l54.122-35.375c0.87-0.569,1.667-1.399,2.174-2.174l35.374-54.122
				C193.74,90.887,185.717,82.839,178.939,87.268z M119.413,157.176l10.734-16.422l5.689,5.688L119.413,157.176z M146.442,135.835
				l-5.688-5.689l16.422-10.734L146.442,135.835z"/>
		</g>
	</g>
</g>
<g>
</g>
<g>
</g>
<g>
</g>
<g>
</g>
<g>
</g>
<g>
</g>
<g>
</g>
<g>
</g>
<g>
</g>
<g>
</g>
<g>
</g>
<g>
</g>
<g>
</g>
<g>
</g>
<g>
</g>
</svg>
