<?xml version="1.0" encoding="iso-8859-1"?>
<!-- Generator: Adobe Illustrator 19.0.0, SVG Export Plug-In . SVG Version: 6.00 Build 0)  -->
<svg version="1.1" id="Layer_1" xmlns="http://www.w3.org/2000/svg" xmlns:xlink="http://www.w3.org/1999/xlink" x="0px" y="0px"
	 viewBox="0 0 276.945 276.945" style="enable-background:new 0 0 276.945 276.945;" xml:space="preserve">
<g>
	<g>
		<g>
			<path d="M202.418,11.77H7.5c-4.142,0-7.5,3.358-7.5,7.5v238.405c0,4.142,3.358,7.5,7.5,7.5h194.918c4.143,0,7.5-3.358,7.5-7.5
				V19.27C209.918,15.127,206.561,11.77,202.418,11.77z M194.918,250.174H15V26.77h179.918V250.174z"/>
			<path d="M46.473,75.973h116.973c4.143,0,7.5-3.358,7.5-7.5c0-4.142-3.357-7.5-7.5-7.5H46.473c-4.142,0-7.5,3.358-7.5,7.5
				C38.973,72.614,42.331,75.973,46.473,75.973z"/>
			<path d="M46.473,103.973h26.473c4.142,0,7.5-3.358,7.5-7.5c0-4.142-3.358-7.5-7.5-7.5H46.473c-4.142,0-7.5,3.358-7.5,7.5
				C38.973,100.614,42.331,103.973,46.473,103.973z"/>
			<path d="M46.473,131.973h116.973c4.143,0,7.5-3.358,7.5-7.5c0-4.142-3.357-7.5-7.5-7.5H46.473c-4.142,0-7.5,3.358-7.5,7.5
				C38.973,128.615,42.331,131.973,46.473,131.973z"/>
			<path d="M46.473,159.973h79.473c4.142,0,7.5-3.358,7.5-7.5c0-4.142-3.358-7.5-7.5-7.5H46.473c-4.142,0-7.5,3.358-7.5,7.5
				C38.973,156.615,42.331,159.973,46.473,159.973z"/>
			<path d="M46.473,187.973h116.973c4.143,0,7.5-3.358,7.5-7.5c0-4.142-3.357-7.5-7.5-7.5H46.473c-4.142,0-7.5,3.358-7.5,7.5
				C38.973,184.615,42.331,187.973,46.473,187.973z"/>
			<path d="M46.473,215.973h79.473c4.142,0,7.5-3.358,7.5-7.5c0-4.142-3.358-7.5-7.5-7.5H46.473c-4.142,0-7.5,3.358-7.5,7.5
				C38.973,212.615,42.331,215.973,46.473,215.973z"/>
			<path d="M165.445,88.973h-66.5c-4.142,0-7.5,3.358-7.5,7.5c0,4.142,3.358,7.5,7.5,7.5h66.5c4.143,0,7.5-3.358,7.5-7.5
				C172.945,92.33,169.588,88.973,165.445,88.973z"/>
			<path d="M165.445,144.973h-16.5c-4.142,0-7.5,3.358-7.5,7.5c0,4.142,3.358,7.5,7.5,7.5h16.5c4.143,0,7.5-3.358,7.5-7.5
				C172.945,148.331,169.588,144.973,165.445,144.973z"/>
			<path d="M269.445,36.292h-32c-4.143,0-7.5,3.358-7.5,7.5c0,3.326,0,184.296,0,191.68c0,4.142,3.357,7.5,7.5,7.5h8.5v14.703
				c0,4.142,3.357,7.5,7.5,7.5s7.5-3.358,7.5-7.5v-14.703h8.5c4.142,0,7.5-3.358,7.5-7.5c0-5.083,0-183.629,0-191.68
				C276.945,39.651,273.588,36.292,269.445,36.292z M261.945,227.973h-17v-12h17V227.973z M261.945,200.973h-17v-125h17V200.973z
				 M261.945,60.973h-17v-9.68h17V60.973z"/>
		</g>
	</g>
</g>
<g>
</g>
<g>
</g>
<g>
</g>
<g>
</g>
<g>
</g>
<g>
</g>
<g>
</g>
<g>
</g>
<g>
</g>
<g>
</g>
<g>
</g>
<g>
</g>
<g>
</g>
<g>
</g>
<g>
</g>
</svg>
