<?xml version="1.0" encoding="iso-8859-1"?>
<!-- Generator: Adobe Illustrator 19.0.0, SVG Export Plug-In . SVG Version: 6.00 Build 0)  -->
<svg version="1.1" id="Layer_1" xmlns="http://www.w3.org/2000/svg" xmlns:xlink="http://www.w3.org/1999/xlink" x="0px" y="0px"
	 viewBox="0 0 302.35 302.35" style="enable-background:new 0 0 302.35 302.35;" xml:space="preserve">
<g>
	<g>
		<g>
			<path d="M222.305,79.374c0.05-0.049,0.104-0.092,0.154-0.142c10.661-10.664,3.154-29.133-12.064-29.133h-2.368
				c-0.499-3.561-0.382-3.527-0.382-26.27c0-20.839-25.003-31.586-40.157-17.343c-9.187-8.646-23.462-8.632-32.634,0.009
				c-15.042-14.164-40.149-3.66-40.149,17.334c0,22.705,0.117,22.706-0.382,26.27h-2.368c-15.263,0-22.818,18.544-11.897,29.251
				C53.34,124.584,37.515,184.66,37.515,218.82c0,63.223,50.694,83.53,113.66,83.53c62.962,0,113.66-20.305,113.66-83.53
				C264.835,184.666,249.015,124.605,222.305,79.374z M109.705,23.829c0-4.875,3.945-8.82,8.82-8.82c4.869,0,8.83,3.957,8.83,8.82
				c0,4.142,3.358,7.5,7.5,7.5c4.142,0,7.5-3.358,7.5-7.5c0-4.863,3.956-8.82,8.82-8.82c4.863,0,8.82,3.957,8.82,8.82
				c0,4.142,3.357,7.5,7.5,7.5s7.5-3.358,7.5-7.5c0-2.356,0.918-4.571,2.573-6.228c5.547-5.527,15.076-1.631,15.076,6.228
				c0,22.505-0.087,22.683,0.274,26.27h-13.883l2.297-4.281c1.959-3.65,0.588-8.196-3.063-10.155
				c-3.648-1.959-8.196-0.586-10.154,3.063l-6.102,11.373h-21.678l-6.102-11.373c-1.958-3.65-6.506-5.02-10.155-3.063
				c-3.65,1.958-5.021,6.505-3.063,10.155l2.297,4.281H109.43C109.79,46.535,109.705,46.533,109.705,23.829z M91.955,65.099
				c12.896,0,105.86,0,118.44,0c2.689,0,2.759,4.13,0,4.13c-0.259,0-118.514,0.009-118.77-0.028
				C89.179,68.826,89.399,65.099,91.955,65.099z M151.175,287.349c-54.095,0-98.66-14.477-98.66-68.53
				c0-32.102,16.03-91.828,42.094-134.59h16.899l-8.565,17.554c-1.816,3.723-0.271,8.213,3.451,10.029
				c3.725,1.817,8.214,0.269,10.029-3.451l11.775-24.132h15.477v13.367c0,4.142,3.358,7.5,7.5,7.5c4.143,0,7.5-3.358,7.5-7.5V84.229
				h15.477l11.775,24.132c1.817,3.724,6.309,5.267,10.029,3.451c3.723-1.816,5.268-6.307,3.451-10.029l-8.566-17.554h16.9
				c26.063,42.763,42.094,102.488,42.094,134.59C249.835,272.888,205.243,287.349,151.175,287.349z"/>
			<path d="M151.175,123.447c-35.008,0-63.489,28.481-63.489,63.489s28.481,63.489,63.489,63.489s63.489-28.481,63.489-63.489
				S186.183,123.447,151.175,123.447z M151.175,235.425c-26.737,0-48.489-21.752-48.489-48.489s21.752-48.489,48.489-48.489
				s48.489,21.752,48.489,48.489S177.912,235.425,151.175,235.425z"/>
			<path d="M155.514,181.195v-13.887c2.459,0.579,4.918,1.664,7.449,3.182c4.717,2.829,8.975-4.029,4.051-6.798
				c-3.327-2.098-6.943-3.472-11.211-3.978v-1.591c0-4.176-6.292-4.053-6.292,0v1.519c-9.041,0.723-15.189,6.075-15.189,13.814
				c0,8.173,4.918,12.15,15.478,14.899v14.249c-3.978-0.723-7.305-2.387-10.704-4.846c-2.402-1.868-6.365-0.325-6.365,3.182
				c0,1.519,0.723,2.676,1.953,3.472c4.412,3.11,9.402,5.063,14.827,5.642v4.484c0,4.053,6.292,4.177,6.292,0v-4.339
				c9.186-0.868,15.406-6.148,15.406-14.104C171.209,188.355,166.507,183.944,155.514,181.195z M149.8,179.676
				c-5.569-1.808-6.943-3.688-6.943-6.726c0-3.183,2.314-5.642,6.943-6.076V179.676z M155.514,202.893V189.73
				c5.569,1.736,7.16,3.689,7.16,6.871C162.674,200.073,160.143,202.387,155.514,202.893z"/>
		</g>
	</g>
</g>
<g>
</g>
<g>
</g>
<g>
</g>
<g>
</g>
<g>
</g>
<g>
</g>
<g>
</g>
<g>
</g>
<g>
</g>
<g>
</g>
<g>
</g>
<g>
</g>
<g>
</g>
<g>
</g>
<g>
</g>
</svg>
