<?xml version="1.0" encoding="iso-8859-1"?>
<!-- Generator: Adobe Illustrator 19.0.0, SVG Export Plug-In . SVG Version: 6.00 Build 0)  -->
<svg version="1.1" id="Layer_1" xmlns="http://www.w3.org/2000/svg" xmlns:xlink="http://www.w3.org/1999/xlink" x="0px" y="0px"
	 viewBox="0 0 387.596 387.596" style="enable-background:new 0 0 387.596 387.596;" xml:space="preserve">
<g>
	<g>
		<g>
			<path d="M70.058,205.819h24.886c22.725,0,40.847-18.517,40.847-40.846c0-14.603,0-18.622,0-33.601
				c0-22.527-18.324-40.854-40.847-40.854c-30.326,0-18.55,0-24.886,0c-22.523,0-40.847,18.327-40.847,40.854
				c0,9.874,0,11.354,0,33.601C29.211,187.273,47.288,205.819,70.058,205.819z M120.774,130.748h-10.487
				c-15.401,0-28.463-10.592-31.867-25.23C87.405,105.518,120.069,100.778,120.774,130.748z M62.244,106.728
				c-1.974,9.785-8.789,17.941-17.865,21.731C45.512,118.383,52.537,109.815,62.244,106.728z M44.211,144.292
				c11.124-2.9,20.564-9.988,26.583-19.42c8.618,12.682,23.148,20.876,39.493,20.876h10.503v19.225
				c0,14.166-11.507,25.846-25.847,25.846H70.058c-14.392,0-25.847-11.718-25.847-25.846V144.292z"/>
			<path d="M105.446,211.724c-0.003-0.001-0.005-0.002-0.008-0.003c-0.003-0.001-0.006-0.002-0.01-0.002
				c-13.929-3.77-31.928-3.77-45.858,0.001c-0.002,0.001-0.004,0.001-0.006,0.001c-0.002,0-0.003,0.001-0.005,0.002
				C24.491,221.195,0,253.208,0,289.578c0,4.142,3.358,7.5,7.5,7.5c6.592,0,143.422,0,150,0c4.143,0,7.5-3.358,7.5-7.5
				C165,253.193,140.511,221.181,105.446,211.724z M56.878,278.908l4.016,3.17H15.43c2.872-24.989,19.931-46.377,43.85-54.59
				l5.635,5.934l-10.607,37.561C53.482,273.901,54.497,277.028,56.878,278.908z M82.5,280.023l-12.396-9.785l10.406-36.847
				c0.719-2.547,0.043-5.284-1.779-7.203l-1.999-2.105c3.816-0.258,7.724-0.259,11.538,0l-1.999,2.105
				c-1.822,1.919-2.498,4.656-1.779,7.203l10.406,36.847L82.5,280.023z M104.108,282.077l4.015-3.169
				c2.381-1.879,3.396-5.007,2.571-7.926l-10.607-37.561l5.637-5.936c23.917,8.202,40.975,29.593,43.848,54.592H104.108z"/>
			<path d="M260.096,181.195c5.273,0,114.737,0,120,0c4.143,0,7.5-3.358,7.5-7.5c0-32.768-24.378-61.55-58.187-65.507
				c20.603,0,34.817-16.221,34.817-34.177c0-11.682,0-14.897,0-26.88c0-18.849-15.332-34.183-34.177-34.183
				c-11.947,0-16.945,0-18.836,0c-0.752,0-1.015,0-1.025,0c-0.017,0-0.031,0-0.049,0c-18.845,0-34.177,15.334-34.177,34.183
				c0,7.899,0,9.083,0,26.88c0,17.885,14.123,34.177,34.819,34.177c-33.798,3.956-58.187,32.751-58.187,65.507
				C252.596,177.837,255.953,181.195,260.096,181.195z M339.091,125.76c17.581,6.403,30.217,22.043,32.951,40.435h-30.346
				c5.005-4.2,2.498-7.427-5.856-37.011L339.091,125.76z M320.096,164.14l-8.202-6.474c0.142-0.503,8.103-28.635,8.202-29.143
				c0.095,0.5,8.062,28.65,8.201,29.144L320.096,164.14z M318.757,122.652c0.891-0.018,1.786-0.018,2.677,0
				c-0.682,0.938-1.149,2.055-1.338,3.055C319.907,124.724,319.447,123.601,318.757,122.652z M349.121,45.131h-6.797
				c-10.957,0-20.344-7.106-23.527-17.184C326.41,27.947,347.035,25.026,349.121,45.131z M301.648,29.957
				c-1.767,5.126-5.353,9.446-9.994,12.148C293.159,36.602,296.873,32.329,301.648,29.957z M310.141,93.188
				c-10.681,0-19.177-8.695-19.177-19.177V58.614c8.064-2.377,14.997-7.415,19.803-14.061c7.275,9.526,18.747,15.578,31.558,15.578
				h6.902v13.88c0,10.51-8.537,19.177-19.177,19.177H310.141z M301.101,125.762l3.25,3.422
				c-8.596,30.438-10.761,32.896-5.856,37.011H268.15C270.885,147.812,283.521,132.173,301.101,125.762z"/>
			<path d="M329.403,301.641c20.647,0,34.823-16.252,34.823-34.177c0-11.682,0-14.897,0-26.88c0-18.849-15.332-34.183-34.177-34.183
				H310.36h-0.221c-18.845,0-34.177,15.335-34.177,34.183c0,7.899,0,9.083,0,26.88c0,17.882,14.119,34.177,34.822,34.177
				c-33.819,3.956-58.19,32.77-58.19,65.507c0,4.142,3.357,7.5,7.5,7.5c5.273,0,114.737,0,120,0c4.143,0,7.5-3.358,7.5-7.5
				C387.596,334.376,363.213,305.595,329.403,301.641z M298.494,359.648H268.15c2.735-18.383,15.371-34.022,32.951-40.433
				l3.25,3.422C295.624,353.54,293.705,355.63,298.494,359.648z M349.121,238.585h-6.797c-10.957,0-20.344-7.106-23.527-17.184
				C325.989,221.401,347.026,218.398,349.121,238.585z M301.648,223.411c-1.767,5.126-5.353,9.446-9.994,12.148
				C293.159,230.054,296.873,225.782,301.648,223.411z M310.141,286.641c-10.702,0-19.177-8.715-19.177-19.177v-15.397
				c8.064-2.377,14.997-7.415,19.803-14.061c7.275,9.526,18.747,15.578,31.558,15.578h6.902v13.88
				c0,10.511-8.537,19.177-19.177,19.177H310.141z M321.434,316.106c-0.671,0.923-1.145,2.031-1.338,3.055
				c-0.191-0.994-0.653-2.111-1.339-3.055C319.647,316.088,320.543,316.088,321.434,316.106z M320.096,357.594l-8.202-6.474
				c0.142-0.503,8.103-28.635,8.202-29.143c0.095,0.5,8.062,28.65,8.201,29.144L320.096,357.594z M341.696,359.648
				c5.042-4.232,2.15-8.66-5.856-37.011l3.251-3.424c17.581,6.404,30.217,22.043,32.951,40.435H341.696z"/>
			<path d="M229.334,88.054c4.143,0,7.5-3.358,7.5-7.5c0-4.142-3.357-7.5-7.5-7.5h-28.036c-4.143,0-7.5,3.358-7.5,7.5v110.999
				h-20.536c-4.143,0-7.5,3.358-7.5,7.5c0,4.142,3.357,7.5,7.5,7.5h20.536v100.489c0,4.142,3.357,7.5,7.5,7.5h28.036
				c4.143,0,7.5-3.358,7.5-7.5c0-4.142-3.357-7.5-7.5-7.5h-20.536V88.054H229.334z"/>
		</g>
	</g>
</g>
<g>
</g>
<g>
</g>
<g>
</g>
<g>
</g>
<g>
</g>
<g>
</g>
<g>
</g>
<g>
</g>
<g>
</g>
<g>
</g>
<g>
</g>
<g>
</g>
<g>
</g>
<g>
</g>
<g>
</g>
</svg>
