<?xml version="1.0" encoding="iso-8859-1"?>
<!-- Generator: Adobe Illustrator 19.0.0, SVG Export Plug-In . SVG Version: 6.00 Build 0)  -->
<svg version="1.1" id="Layer_1" xmlns="http://www.w3.org/2000/svg" xmlns:xlink="http://www.w3.org/1999/xlink" x="0px" y="0px"
	 viewBox="0 0 288.413 288.413" style="enable-background:new 0 0 288.413 288.413;" xml:space="preserve">
<g>
	<g>
		<g>
			<path d="M276.886,170.519l-36.412-36.411l36.412-36.411c2.52-2.524,2.194-5.188,2.194-8.162c0-4.143-3.357-7.5-7.5-7.5H170.722
				V50.206c0-4.143-3.357-7.5-7.5-7.5H62.365V26.524C62.365,11.899,50.467,0,35.842,0S9.319,11.899,9.319,26.524v254.389
				c0,4.142,3.358,7.5,7.5,7.5h38.047c4.142,0,7.5-3.358,7.5-7.5V146.852h44.874v31.828c0,0.008,0.002,0.015,0.002,0.023
				c0.012,3.988,3.246,7.468,7.481,7.476c0.006,0,0.011,0.001,0.017,0.001c0,0,0,0,0.001,0h0.001h156.84c4.143,0,7.5-3.357,7.5-7.5
				C279.082,175.602,279.397,173.032,276.886,170.519z M47.365,273.412H24.319V26.524C24.319,20.17,29.489,15,35.842,15
				c6.353,0,11.523,5.169,11.523,11.524C47.365,33.523,47.365,266.083,47.365,273.412z M62.365,131.851V57.706h93.357
				c0,31.295,0,37.759,0,74.145C146.504,131.851,72.562,131.851,62.365,131.851z M122.239,146.852h19.832l-19.832,16.087V146.852z
				 M135.89,171.18l32.057-26.004c0.004-0.003,0.007-0.007,0.01-0.01c1.762-1.437,2.765-3.607,2.765-5.815V97.035h85.608
				l-31.769,31.769c-2.929,2.93-2.929,7.678,0,10.607l31.77,31.769H135.89z"/>
			<path d="M228.699,111.199c0-4.143-3.357-7.5-7.5-7.5H188.65c-4.143,0-7.5,3.357-7.5,7.5s3.358,7.5,7.5,7.5h32.549
				C225.342,118.699,228.699,115.341,228.699,111.199z"/>
			<path d="M139.108,64.37h-60.13c-4.142,0-7.5,3.357-7.5,7.5s3.358,7.5,7.5,7.5h60.13c4.143,0,7.501-3.357,7.501-7.5
				S143.251,64.37,139.108,64.37z"/>
		</g>
	</g>
</g>
<g>
</g>
<g>
</g>
<g>
</g>
<g>
</g>
<g>
</g>
<g>
</g>
<g>
</g>
<g>
</g>
<g>
</g>
<g>
</g>
<g>
</g>
<g>
</g>
<g>
</g>
<g>
</g>
<g>
</g>
</svg>
