<?xml version="1.0" encoding="iso-8859-1"?>
<!-- Generator: Adobe Illustrator 19.0.0, SVG Export Plug-In . SVG Version: 6.00 Build 0)  -->
<svg version="1.1" id="Layer_1" xmlns="http://www.w3.org/2000/svg" xmlns:xlink="http://www.w3.org/1999/xlink" x="0px" y="0px"
	 viewBox="0 0 391.164 391.164" style="enable-background:new 0 0 391.164 391.164;" xml:space="preserve">
<g>
	<g>
		<g>
			<path d="M64.206,208.79l48.555-48.555c2.929-2.93,2.929-7.678,0-10.607c-2.929-2.928-7.678-2.928-10.606,0l-48.556,48.555
				c-2.929,2.93-2.929,7.678,0,10.607C56.529,211.719,61.277,211.718,64.206,208.79z"/>
			<path d="M134.899,154.595l-76.333,76.334c-2.929,2.93-2.929,7.678,0,10.607c2.93,2.929,7.677,2.928,10.606,0l76.333-76.334
				c2.929-2.93,2.929-7.678,0-10.607C142.577,151.667,137.828,151.667,134.899,154.595z"/>
			<path d="M131.962,195.245L99.216,227.99c-2.929,2.93-2.929,7.678,0,10.607c2.93,2.929,7.678,2.928,10.606,0l32.746-32.745
				c2.929-2.93,2.929-7.678,0-10.607C139.639,192.318,134.89,192.318,131.962,195.245z"/>
			<path d="M316.891,161.701c-2.929-2.928-7.678-2.928-10.607,0l-48.555,48.555c-2.929,2.93-2.929,7.678,0,10.607
				c2.93,2.929,7.678,2.928,10.607,0l48.555-48.555C319.82,169.379,319.82,164.631,316.891,161.701z"/>
			<path d="M314.884,190.816l-28.04,28.041c-2.929,2.929-2.929,7.678,0,10.606c2.929,2.928,7.678,2.929,10.607-0.001l28.04-28.041
				c2.929-2.929,2.929-7.678,0-10.607C322.561,187.887,317.812,187.886,314.884,190.816z"/>
			<path d="M371.234,142.008v-0.548c0-9.649-7.85-17.5-17.5-17.5H229.486c-9.649,0-17.5,7.851-17.5,17.5v12.185
				c-9.953-6.122-22.648-6.251-32.81,0V141.46c0-9.649-7.851-17.5-17.5-17.5H37.429c-9.649,0-17.5,7.851-17.5,17.5v0.548
				c-26.56,7.543-26.585,45.354,0,52.904v54.792c0,9.649,7.851,17.5,17.5,17.5h109.248c17.92,0,32.5-14.579,32.5-32.5v-54.292
				c0-9.046,7.359-16.405,16.405-16.405c9.045,0,16.405,7.359,16.405,16.405v54.292c0,17.921,14.58,32.5,32.5,32.5h109.247
				c9.65,0,17.5-7.851,17.5-17.5v-54.792C397.796,187.37,397.818,149.557,371.234,142.008z M19.929,178.454
				c-6.664-5.013-6.667-14.972,0-19.988V178.454z M164.177,234.704L164.177,234.704c0,9.649-7.851,17.5-17.5,17.5H37.429
				c-1.378,0-2.5-1.121-2.5-2.5c0-11.813,0-97.463,0-108.244c0-1.379,1.122-2.5,2.5-2.5h124.248c1.378,0,2.5,1.121,2.5,2.5V234.704z
				 M353.734,252.204H244.486c-9.649,0-17.5-7.851-17.5-17.5V141.46c0-1.379,1.122-2.5,2.5-2.5h124.247c1.379,0,2.5,1.121,2.5,2.5
				v108.244h0.001C356.234,251.083,355.113,252.204,353.734,252.204z M371.234,178.454v-19.988
				C377.898,163.48,377.9,173.439,371.234,178.454z"/>
		</g>
	</g>
</g>
<g>
</g>
<g>
</g>
<g>
</g>
<g>
</g>
<g>
</g>
<g>
</g>
<g>
</g>
<g>
</g>
<g>
</g>
<g>
</g>
<g>
</g>
<g>
</g>
<g>
</g>
<g>
</g>
<g>
</g>
</svg>
