<?xml version="1.0" encoding="iso-8859-1"?>
<!-- Generator: Adobe Illustrator 19.0.0, SVG Export Plug-In . SVG Version: 6.00 Build 0)  -->
<svg version="1.1" id="Layer_1" xmlns="http://www.w3.org/2000/svg" xmlns:xlink="http://www.w3.org/1999/xlink" x="0px" y="0px"
	 viewBox="0 0 376.227 376.227" style="enable-background:new 0 0 376.227 376.227;" xml:space="preserve">
<g>
	<g>
		<g>
			<path d="M320.19,60.541H56.038c-4.142,0-7.5,3.358-7.5,7.5v40.643v155.655c0,4.142,3.358,7.5,7.5,7.5H320.19
				c4.142,0,7.5-3.358,7.5-7.5V108.683V68.041C327.69,63.899,324.332,60.541,320.19,60.541z M312.69,256.839H63.538V116.183H312.69
				V256.839z M312.69,101.184H63.538V75.541H312.69V101.184z"/>
			<circle cx="88.351" cy="88.362" r="7.26"/>
			<circle cx="112.552" cy="88.362" r="7.26"/>
			<circle cx="136.754" cy="88.362" r="7.26"/>
			<path d="M173.055,167.564H88.62c-4.142,0-7.5,3.358-7.5,7.5v70.183c0,4.142,3.358,7.5,7.5,7.5h84.435c4.142,0,7.5-3.358,7.5-7.5
				v-70.183C180.555,170.922,177.197,167.564,173.055,167.564z M165.555,237.747H96.12v-55.183h69.435V237.747z"/>
			<path d="M88.352,163.471h199.256c4.142,0,7.5-3.358,7.5-7.5v-28.196c0-4.142-3.358-7.5-7.5-7.5H88.352
				c-4.142,0-7.5,3.358-7.5,7.5v28.196C80.852,160.114,84.21,163.471,88.352,163.471z M95.852,135.276h184.256v13.196H95.852
				V135.276z"/>
			<path d="M368.728,280.102h-17.775V54.083c0-9.267-7.539-16.805-16.805-16.805H42.08c-9.267,0-16.805,7.539-16.805,16.805v226.02
				H7.5c-4.142,0-7.5,3.358-7.5,7.5v34.54c0,9.267,7.539,16.806,16.805,16.806h342.617c9.267,0,16.805-7.539,16.805-16.806v-34.54
				C376.228,283.46,372.87,280.102,368.728,280.102z M40.275,54.083c0-0.996,0.81-1.805,1.805-1.805h292.067
				c0.996,0,1.805,0.81,1.805,1.805v226.02H40.275V54.083z M361.228,322.142c0,0.996-0.81,1.806-1.805,1.806H16.805
				c-0.996,0-1.805-0.81-1.805-1.806v-27.04h17.775h310.678h17.775V322.142z"/>
			<path d="M204.689,302.025H171.54c-4.142,0-7.5,3.358-7.5,7.5c0,4.142,3.358,7.5,7.5,7.5h33.149c4.142,0,7.5-3.358,7.5-7.5
				C212.189,305.383,208.831,302.025,204.689,302.025z"/>
			<path d="M287.607,167.564h-95.191c-4.142,0-7.5,3.358-7.5,7.5v42.755v27.428c0,4.142,3.358,7.5,7.5,7.5h95.191
				c4.142,0,7.5-3.358,7.5-7.5v-27.428v-42.755C295.107,170.922,291.75,167.564,287.607,167.564z M280.108,237.747h-80.192v-12.428
				h80.192V237.747z M280.108,210.319h-80.192v-27.755h80.192V210.319z"/>
		</g>
	</g>
</g>
<g>
</g>
<g>
</g>
<g>
</g>
<g>
</g>
<g>
</g>
<g>
</g>
<g>
</g>
<g>
</g>
<g>
</g>
<g>
</g>
<g>
</g>
<g>
</g>
<g>
</g>
<g>
</g>
<g>
</g>
</svg>
