<?xml version="1.0" encoding="iso-8859-1"?>
<!-- Generator: Adobe Illustrator 19.0.0, SVG Export Plug-In . SVG Version: 6.00 Build 0)  -->
<svg version="1.1" id="Layer_1" xmlns="http://www.w3.org/2000/svg" xmlns:xlink="http://www.w3.org/1999/xlink" x="0px" y="0px"
	 viewBox="0 0 313.208 313.208" style="enable-background:new 0 0 313.208 313.208;" xml:space="preserve">
<g>
	<g>
		<path d="M305.707,149.104h-15.606c-3.794-68.268-58.549-122.251-125.998-125.999V7.5c0-4.143-3.357-7.5-7.5-7.5
			s-7.5,3.357-7.5,7.5v15.605C81.184,26.88,26.871,81.319,23.105,149.104H7.5c-4.143,0-7.5,3.357-7.5,7.5s3.357,7.5,7.5,7.5h15.605
			c3.774,67.919,58.215,122.232,125.999,125.998v15.605c0,4.143,3.357,7.5,7.5,7.5s7.5-3.357,7.5-7.5v-15.605
			c68.148-3.787,122.242-58.414,125.998-125.998h15.606c4.143,0,7.5-3.357,7.5-7.5S309.85,149.104,305.707,149.104z M260.77,99.714
			l-39.2,39.201c-6.26-22.956-24.391-41.038-47.278-47.277l39.201-39.2C233.4,63.352,249.855,79.806,260.77,99.714z
			 M208.945,156.603c-0.001,28.894-23.583,52.341-52.341,52.341c-28.943,0-52.341-23.63-52.341-52.341
			c0-28.901,23.592-52.341,52.341-52.341C185.495,104.262,208.945,127.844,208.945,156.603z M198.994,45.721l-42.391,42.391
			l-42.391-42.391C141.412,35.287,171.736,35.266,198.994,45.721z M99.713,52.436l39.201,39.2
			c-22.594,6.161-40.936,24.018-47.277,47.278L52.436,99.714C63.351,79.807,79.806,63.352,99.713,52.436z M45.721,114.212
			l42.39,42.391l-42.39,42.391C35.287,171.794,35.265,141.47,45.721,114.212z M52.436,213.495l39.201-39.202
			c6.171,22.637,24.059,40.947,47.277,47.278l-39.201,39.2C79.806,249.855,63.351,233.4,52.436,213.495z M114.212,267.486
			l42.391-42.391l42.391,42.391C171.794,277.92,141.471,277.942,114.212,267.486z M213.494,260.771l-39.201-39.2
			c22.533-6.145,40.918-23.954,47.277-47.277l39.2,39.201C249.855,233.4,233.4,249.855,213.494,260.771z M267.486,198.995
			l-42.391-42.39l42.391-42.391C277.92,141.415,277.942,171.737,267.486,198.995z"/>
	</g>
</g>
<g>
</g>
<g>
</g>
<g>
</g>
<g>
</g>
<g>
</g>
<g>
</g>
<g>
</g>
<g>
</g>
<g>
</g>
<g>
</g>
<g>
</g>
<g>
</g>
<g>
</g>
<g>
</g>
<g>
</g>
</svg>
