<?xml version="1.0" encoding="iso-8859-1"?>
<!-- Generator: Adobe Illustrator 19.0.0, SVG Export Plug-In . SVG Version: 6.00 Build 0)  -->
<svg version="1.1" id="Layer_1" xmlns="http://www.w3.org/2000/svg" xmlns:xlink="http://www.w3.org/1999/xlink" x="0px" y="0px"
	 viewBox="0 0 273.266 273.266" style="enable-background:new 0 0 273.266 273.266;" xml:space="preserve">
<g>
	<g>
		<g>
			<path d="M265.026,225.178c-4.084-4.084-80.217-80.217-84.379-84.38c19.176-36.241,13.537-82.276-16.933-112.746
				c-37.401-37.402-98.26-37.403-135.663,0c-37.401,37.402-37.401,98.26,0,135.662c30.37,30.37,76.366,36.184,112.747,16.934
				c7.869,7.869,76.551,76.55,84.38,84.379c10.987,10.987,28.864,10.985,39.849,0C276.012,254.04,276.012,236.164,265.026,225.178z
				 M38.657,153.108c-31.554-31.554-31.554-82.895,0-114.449c31.551-31.552,82.895-31.555,114.448,0
				c31.814,31.814,31.253,83.194,0,114.449C121.625,184.588,70.272,184.722,38.657,153.108z M153.748,172.384
				c7.076-5.349,13.481-11.817,18.636-18.635l15.671,15.671l-18.636,18.635L153.748,172.384z M180.026,198.662l18.635-18.635
				c2.765,2.764,1.273,1.273,6.924,6.924l-18.635,18.635L180.026,198.662z M254.419,254.42c-5.138,5.137-13.498,5.137-18.636,0
				l-38.227-38.227l18.635-18.635l38.226,38.227C259.557,240.922,259.557,249.283,254.419,254.42z"/>
			<path d="M145.4,46.366c-27.305-27.304-71.73-27.304-99.035,0c-27.368,27.367-27.371,71.664,0,99.034
				c27.37,27.368,71.662,27.37,99.035,0C172.703,118.096,172.703,73.67,145.4,46.366z M134.792,134.793
				c-21.455,21.455-56.365,21.455-77.82,0c-21.508-21.507-21.508-56.312,0-77.821c21.455-21.455,56.365-21.456,77.82,0
				C156.247,78.427,156.247,113.338,134.792,134.793z"/>
			<path d="M65.803,65.722C57.233,72.5,52.434,83.306,53.544,94.6c0.381,3.873,3.643,6.766,7.455,6.766
				c4.451,0,7.905-3.832,7.473-8.235c-0.594-6.042,1.934-11.924,6.636-15.643c3.249-2.569,3.8-7.286,1.23-10.535
				C73.77,63.705,69.053,63.154,65.803,65.722z"/>
		</g>
	</g>
</g>
<g>
</g>
<g>
</g>
<g>
</g>
<g>
</g>
<g>
</g>
<g>
</g>
<g>
</g>
<g>
</g>
<g>
</g>
<g>
</g>
<g>
</g>
<g>
</g>
<g>
</g>
<g>
</g>
<g>
</g>
</svg>
