<?xml version="1.0" encoding="iso-8859-1"?>
<!-- Generator: Adobe Illustrator 19.0.0, SVG Export Plug-In . SVG Version: 6.00 Build 0)  -->
<svg version="1.1" id="Layer_1" xmlns="http://www.w3.org/2000/svg" xmlns:xlink="http://www.w3.org/1999/xlink" x="0px" y="0px"
	 viewBox="0 0 321.137 321.137" style="enable-background:new 0 0 321.137 321.137;" xml:space="preserve">
<g>
	<g>
		<g>
			<path d="M233.937,43.775c-7.132,0.84-184.227,21.697-191.995,22.613h0.001C18.032,69.203,0,89.485,0,113.562v53.354
				c0,24.077,18.032,44.357,41.942,47.173c4.886,0.576,0.739,0.088,24.554,2.893v41.33c0,3.41,2.301,6.391,5.599,7.255
				l44.286,11.602c3.412,0.895,6.985-0.71,8.585-3.852l23.753-46.651l85.219,10.037c4.432,0.532,8.377-2.947,8.377-7.448V51.223
				C242.314,46.701,238.346,43.244,233.937,43.775z M40.496,198.654C25.753,195.412,15,182.297,15,166.916v-53.354
				c0-15.381,10.753-28.497,25.496-31.738V198.654z M114.339,261.127l-32.843-8.604v-33.775c9.553,1.126,41.328,4.869,51.342,6.048
				L114.339,261.127z M227.314,220.819L55.496,200.582V79.895l171.818-20.236V220.819z"/>
			<path d="M117.181,98.681c0.292,0,0.589-0.018,0.887-0.053l53.049-6.248c4.114-0.484,7.056-4.212,6.571-8.325
				c-0.485-4.114-4.209-7.057-8.326-6.571l-53.049,6.248c-4.114,0.484-7.056,4.212-6.571,8.325
				C110.191,95.873,113.43,98.681,117.181,98.681z"/>
			<path d="M84.283,102.556c0.292,0,0.589-0.018,0.887-0.053l10.702-1.261c4.114-0.484,7.056-4.212,6.571-8.326
				c-0.484-4.112-4.207-7.063-8.326-6.57l-10.702,1.261c-4.114,0.484-7.056,4.212-6.571,8.326
				C77.293,99.748,80.532,102.556,84.283,102.556z"/>
			<path d="M264.373,98.755c-9.568,0-17.353,7.784-17.353,17.353v48.262c0,9.568,7.785,17.354,17.353,17.354
				s17.353-7.785,17.353-17.354v-48.262C281.726,106.539,273.941,98.755,264.373,98.755z M266.726,164.369
				c0,1.298-1.055,2.354-2.353,2.354c-1.298,0-2.353-1.056-2.353-2.354v-48.262c0-1.297,1.056-2.353,2.353-2.353
				s2.353,1.056,2.353,2.353V164.369z"/>
			<path d="M303.784,86.294c-9.568,0-17.353,7.784-17.353,17.353v73.184c0,9.568,7.785,17.353,17.353,17.353
				s17.353-7.784,17.353-17.353v-73.184C321.137,94.078,313.353,86.294,303.784,86.294z M306.137,176.83
				c0,1.297-1.055,2.353-2.353,2.353c-1.297,0-2.353-1.056-2.353-2.353v-73.184c0-1.297,1.056-2.353,2.353-2.353
				s2.353,1.056,2.353,2.353V176.83z"/>
		</g>
	</g>
</g>
<g>
</g>
<g>
</g>
<g>
</g>
<g>
</g>
<g>
</g>
<g>
</g>
<g>
</g>
<g>
</g>
<g>
</g>
<g>
</g>
<g>
</g>
<g>
</g>
<g>
</g>
<g>
</g>
<g>
</g>
</svg>
