<?xml version="1.0" encoding="iso-8859-1"?>
<!-- Generator: Adobe Illustrator 19.0.0, SVG Export Plug-In . SVG Version: 6.00 Build 0)  -->
<svg version="1.1" id="Layer_1" xmlns="http://www.w3.org/2000/svg" xmlns:xlink="http://www.w3.org/1999/xlink" x="0px" y="0px"
	 viewBox="0 0 284.814 284.814" style="enable-background:new 0 0 284.814 284.814;" xml:space="preserve">
<g>
	<g>
		<g>
			<path d="M222.535,160.273v-33.569c0-7.35-2.857-14.254-8.046-19.443l-26.787-26.786l2.128-2.128l1.777,1.777
				c2.931,2.929,7.678,2.928,10.607,0L215.6,66.738c2.929-2.93,2.929-7.678,0-10.607L161.667,2.196
				c-2.93-2.928-7.678-2.928-10.607,0l-13.386,13.386c-2.929,2.93-2.929,7.678,0,10.607l1.777,1.777L76.287,91.13
				c-2.929,2.93-2.929,7.678,0,10.607l3.27,3.27l-13.404,13.404c-2.929,2.93-2.929,7.678,0,10.607l22.625,22.625
				c2.928,2.926,7.677,2.929,10.607-0.001l13.403-13.404l3.271,3.271c1.465,1.464,3.385,2.196,5.304,2.196s3.839-0.732,5.304-2.196
				l22.144-22.144l18.725,18.724v22.197c-2.542,2.567-4.719,5.466-6.451,8.616h-89.63c-4.143,0-7.5,3.357-7.5,7.5v22.939
				c0,4.143,3.357,7.5,7.5,7.5h90.027c1.664,2.881,3.704,5.545,6.053,7.918v18.506H78.55c-15.163,0-27.5,12.337-27.5,27.5v16.549
				c0,4.143,3.357,7.5,7.5,7.5h156.488c4.143,0,7.5-3.357,7.5-7.5c0-36.376-0.003-50.435-0.003-62.538
				C237.487,199.732,237.528,175.377,222.535,160.273z M78.955,191.843v-7.939h77.517c-0.249,2.643-0.2,5.508,0.069,7.939H78.955z
				 M156.363,18.106l43.328,43.328l-2.779,2.779c-0.063-0.063-0.087-0.087-0.092-0.092c-0.721-0.721-6.45-6.45-43.236-43.236
				L156.363,18.106z M94.082,135.734l-12.019-12.019l8.101-8.101l12.018,12.018L94.082,135.734z M121.363,125.6
				c-3.461-3.461-26.992-26.992-29.166-29.166l57.861-57.861l29.166,29.166C166.504,80.459,132.927,114.036,121.363,125.6z
				 M159.421,108.763l17.675-17.682l26.786,26.786c2.357,2.355,3.653,5.493,3.653,8.836v24.17c-7.98-2.727-16.81-2.798-25,0v-15.89
				c0-1.989-0.79-3.896-2.196-5.304L159.421,108.763z M207.538,269.816H66.05v-9.049c0-6.893,5.607-12.5,12.5-12.5h128.988V269.816z
				 M182.535,233.264v-9.09c8.269,2.822,17.029,2.718,25,0v9.09H182.535z M195.035,211.253c-13.087,0-23.73-10.628-23.73-23.729
				c0-13.21,10.752-23.73,23.73-23.73c12.957-0.001,23.729,10.495,23.729,23.73C218.764,200.716,208.039,211.253,195.035,211.253z"
				/>
			<path d="M195.038,167.925c-10.809,0-19.602,8.793-19.602,19.602c0,10.808,8.793,19.601,19.602,19.601
				c10.808,0,19.601-8.793,19.601-19.601C214.639,176.718,205.846,167.925,195.038,167.925z M195.038,192.128
				c-2.537,0-4.602-2.063-4.602-4.601c0-2.537,2.065-4.602,4.602-4.602s4.601,2.064,4.601,4.602
				C199.639,190.064,197.576,192.128,195.038,192.128z"/>
		</g>
	</g>
</g>
<g>
</g>
<g>
</g>
<g>
</g>
<g>
</g>
<g>
</g>
<g>
</g>
<g>
</g>
<g>
</g>
<g>
</g>
<g>
</g>
<g>
</g>
<g>
</g>
<g>
</g>
<g>
</g>
<g>
</g>
</svg>
