<?xml version="1.0" encoding="iso-8859-1"?>
<!-- Generator: Adobe Illustrator 19.0.0, SVG Export Plug-In . SVG Version: 6.00 Build 0)  -->
<svg version="1.1" id="Layer_1" xmlns="http://www.w3.org/2000/svg" xmlns:xlink="http://www.w3.org/1999/xlink" x="0px" y="0px"
	 viewBox="0 0 319.408 319.408" style="enable-background:new 0 0 319.408 319.408;" xml:space="preserve">
<g>
	<g>
		<g>
			<path d="M315.845,126.799L169.891,36.902c-2.411-1.485-5.455-1.485-7.866,0L16.069,126.799c-2.19,1.352-3.567,3.8-3.567,6.386
				v98.574C5.181,234.733,0,241.912,0,250.289c0,11.029,8.973,20.002,20.002,20.002s20.002-8.973,20.002-20.002
				c0-8.377-5.181-15.556-12.502-18.53v-85.147l39.881,24.563c0,16.342,0,67.27,0,83.487c0,28.146,88.485,28.958,98.574,28.958
				c25.321,0,98.574-3.397,98.574-28.958c0-16.215,0-67.145,0-83.487l51.314-31.605
				C320.592,136.647,320.599,129.726,315.845,126.799z M20.002,255.291c-2.758,0-5.002-2.244-5.002-5.002s2.244-5.003,5.002-5.003
				s5.003,2.244,5.003,5.003C25.005,253.048,22.761,255.291,20.002,255.291z M249.531,254.075
				c-1.288,1.603-7.618,5.757-24.901,9.347c-33.41,6.939-84.01,6.923-117.346,0c-17.283-3.589-23.613-7.744-24.901-9.347v-9.903
				c34.609,15.69,130.237,16.413,167.148,0.008V254.075z M249.531,226.71c-9.536,11.969-67.593,14.548-83.574,14.548
				c-24.704,0-75.056-3.857-83.574-14.548v-46.296l79.641,49.052c2.407,1.483,5.45,1.488,7.866,0l79.641-49.052V226.71z
				 M165.957,214.272L34.304,133.184l131.654-81.088l131.653,81.088L165.957,214.272z"/>
			<path d="M89.511,119.181c-3.527,2.172-4.625,6.792-2.453,10.319c2.173,3.528,6.794,4.624,10.319,2.453l72.514-44.663
				c3.527-2.172,4.625-6.792,2.453-10.319c-2.172-3.526-6.791-4.625-10.319-2.453L89.511,119.181z"/>
		</g>
	</g>
</g>
<g>
</g>
<g>
</g>
<g>
</g>
<g>
</g>
<g>
</g>
<g>
</g>
<g>
</g>
<g>
</g>
<g>
</g>
<g>
</g>
<g>
</g>
<g>
</g>
<g>
</g>
<g>
</g>
<g>
</g>
</svg>
