<?xml version="1.0" encoding="iso-8859-1"?>
<!-- Generator: Adobe Illustrator 19.0.0, SVG Export Plug-In . SVG Version: 6.00 Build 0)  -->
<svg version="1.1" id="Layer_1" xmlns="http://www.w3.org/2000/svg" xmlns:xlink="http://www.w3.org/1999/xlink" x="0px" y="0px"
	 viewBox="0 0 397.225 397.225" style="enable-background:new 0 0 397.225 397.225;" xml:space="preserve">
<g>
	<g>
		<path d="M390.281,289.093l-56.019-69.95l-58.628-73.207c-4.389-5.48-10.359-9.238-17.005-10.861v-1.332h70.087
			c6.656,0,10.025-8.081,5.303-12.804l-18.826-18.826l18.826-18.826c4.705-4.706,1.375-12.804-5.303-12.804h-70.087v-5.87
			c0-4.143-3.358-7.5-7.5-7.5c-4.142,0-7.5,3.357-7.5,7.5c0,7.994,0,62.323,0,70.462c-6.646,1.623-12.617,5.381-17.005,10.861
			c-2.669,3.333-85.317,106.533-91.163,113.832l-30.405-37.966c-8.589-10.726-24.888-10.703-33.459,0
			c-6.458,8.063-58.416,72.943-66.854,83.478c-11.239,14.036-1.236,34.832,16.73,34.832c5.331,0,333.156,0,344.302,0
			C392.112,340.112,406.731,309.632,390.281,289.093z M258.629,85.481h51.981v0.001l-11.326,11.326
			c-2.929,2.93-2.929,7.678,0,10.607l11.326,11.326h-51.981V85.481z M238.331,155.313c6.569-8.202,19.036-8.189,25.594,0
			l57.135,71.343c2.584,50.747-38.813,70.161-60.089,27.621c-3.982-7.965-8.567-18.888-19.575-22.588
			c-17.734-5.966-30.973,11.132-40.039,16.348c-10.623,6.113-23.671-0.182-29.249-10.034L238.331,155.313z M83.305,231.179
			c2.577-3.219,7.471-3.213,10.043,0l32.678,40.804c0.879,24.227-18.042,35.795-29.163,13.552
			c-2.528-5.114-5.641-12.191-13.214-14.736c-13.594-4.57-22.311,9.389-28.007,10.639c-3.347,0.732-7.184-1.185-9.491-3.864
			L83.305,231.179z M155.18,325.112H21.474c-5.41,0-8.402-6.236-5.022-10.455l20.252-25.289
			c20.908,19.697,37.058-6.105,42.164-4.353c1.376,0.462,3.307,4.654,4.579,7.228c15.929,31.852,48.292,22.435,55.785-3.771
			l20.97,26.185C163.583,318.879,160.586,325.112,155.18,325.112z M365.776,325.112H175.631
			c4.477-13.431-2.587-18.415-30.562-53.347l17.237-21.523c9.853,12.538,27.335,18.858,41.894,13.057
			c13.002-5.177,23.057-20.547,32.416-17.393c4.727,1.589,7.8,8.81,10.94,15.079c26.404,52.797,81.402,34.121,87.915-16.336
			l43.101,53.82C387.182,309.219,379.568,325.112,365.776,325.112z"/>
	</g>
</g>
<g>
</g>
<g>
</g>
<g>
</g>
<g>
</g>
<g>
</g>
<g>
</g>
<g>
</g>
<g>
</g>
<g>
</g>
<g>
</g>
<g>
</g>
<g>
</g>
<g>
</g>
<g>
</g>
<g>
</g>
</svg>
