<?xml version="1.0" encoding="iso-8859-1"?>
<!-- Generator: Adobe Illustrator 19.0.0, SVG Export Plug-In . SVG Version: 6.00 Build 0)  -->
<svg version="1.1" id="Layer_1" xmlns="http://www.w3.org/2000/svg" xmlns:xlink="http://www.w3.org/1999/xlink" x="0px" y="0px"
	 viewBox="0 0 261.444 261.444" style="enable-background:new 0 0 261.444 261.444;" xml:space="preserve">
<g>
	<g>
		<g>
			<path d="M235.384,1.446L17.212,160.587c-5.498,4.01-3.212,12.721,3.553,13.509l82.849,9.647v65.501
				c0,6.791,8.291,10.031,12.924,5.18l35.904-37.59l58.551,43.143c4.663,3.434,11.339,0.503,11.913-5.3L247.268,8.243
				C247.932,1.8,240.575-2.343,235.384,1.446z M107.728,169.121l-66.194-7.708L202.926,43.689L107.728,169.121z M118.614,230.533
				v-38.625l21.653,15.955L118.614,230.533z M209.276,240.079c-13.238-9.754-74.135-54.625-87.589-64.539L229.729,33.187
				L209.276,240.079z"/>
			<path d="M194.872,188.142c0.251,0.025,0.5,0.037,0.747,0.037c3.81,0,7.072-2.892,7.455-6.763l4.939-49.956
				c0.408-4.122-2.603-7.794-6.725-8.201c-4.117-0.409-7.794,2.604-8.202,6.726l-4.94,49.956
				C187.739,184.063,190.75,187.735,194.872,188.142z"/>
		</g>
	</g>
</g>
<g>
</g>
<g>
</g>
<g>
</g>
<g>
</g>
<g>
</g>
<g>
</g>
<g>
</g>
<g>
</g>
<g>
</g>
<g>
</g>
<g>
</g>
<g>
</g>
<g>
</g>
<g>
</g>
<g>
</g>
</svg>
