<?xml version="1.0" encoding="iso-8859-1"?>
<!-- Generator: Adobe Illustrator 19.0.0, SVG Export Plug-In . SVG Version: 6.00 Build 0)  -->
<svg version="1.1" id="Layer_1" xmlns="http://www.w3.org/2000/svg" xmlns:xlink="http://www.w3.org/1999/xlink" x="0px" y="0px"
	 viewBox="0 0 297.508 297.508" style="enable-background:new 0 0 297.508 297.508;" xml:space="preserve">
<g>
	<g>
		<g>
			<path d="M280.008,123.42h-11.993v-22.009c0-17.615-12.211-32.423-28.61-36.426c0.233-0.224,0.473-0.439,0.702-0.669
				c9.415-9.401,14.6-21.912,14.6-35.227c0-4.143-3.358-7.5-7.5-7.5h-42.32c-4.142,0-7.5,3.357-7.5,7.5v34.822H96.365
				C43.229,63.911,0,107.141,0,160.276v49.152c0,20.678,16.822,37.5,37.5,37.5H40v21.491c0,4.143,3.358,7.5,7.5,7.5h46.508
				c4.142,0,7.5-3.357,7.5-7.5v-21.491h65v21.491c0,4.143,3.358,7.5,7.5,7.5h46.507c4.142,0,7.5-3.357,7.5-7.5v-21.491h2.5
				c20.678,0,37.5-16.822,37.5-37.5v-22.009h11.993c9.649,0,17.5-7.85,17.5-17.5v-29C297.508,131.271,289.657,123.42,280.008,123.42
				z M212.388,36.59h26.515c-1.407,6.438-4.624,12.349-9.398,17.116c-4.773,4.773-10.683,7.99-17.117,9.397V36.59z M86.508,260.92
				H55v-13.991h31.508V260.92z M213.015,260.92h-31.507v-13.991h31.507V260.92z M253.015,209.429c0,12.406-10.093,22.5-22.5,22.5
				c-10.9,0-182.09,0-193.015,0c-12.407,0-22.5-10.094-22.5-22.5v-49.152c0-44.866,36.5-81.366,81.365-81.366h134.15
				c12.407,0,22.5,10.094,22.5,22.5C253.015,114.272,253.015,197.016,253.015,209.429z M282.508,169.92c0,1.379-1.122,2.5-2.5,2.5
				h-11.993v-34h11.993c1.378,0,2.5,1.121,2.5,2.5V169.92z"/>
			<path d="M158.508,96.92h-49c-4.142,0-7.5,3.357-7.5,7.5s3.358,7.5,7.5,7.5h49c4.142,0,7.5-3.357,7.5-7.5
				S162.65,96.92,158.508,96.92z"/>
		</g>
	</g>
</g>
<g>
</g>
<g>
</g>
<g>
</g>
<g>
</g>
<g>
</g>
<g>
</g>
<g>
</g>
<g>
</g>
<g>
</g>
<g>
</g>
<g>
</g>
<g>
</g>
<g>
</g>
<g>
</g>
<g>
</g>
</svg>
