<?xml version="1.0" encoding="iso-8859-1"?>
<!-- Generator: Adobe Illustrator 19.0.0, SVG Export Plug-In . SVG Version: 6.00 Build 0)  -->
<svg version="1.1" id="Layer_1" xmlns="http://www.w3.org/2000/svg" xmlns:xlink="http://www.w3.org/1999/xlink" x="0px" y="0px"
	 viewBox="0 0 288.523 288.523" style="enable-background:new 0 0 288.523 288.523;" xml:space="preserve">
<g>
	<g>
		<g>
			<path d="M112.595,38.079H92.323c-4.143,0-7.5,3.357-7.5,7.5s3.357,7.5,7.5,7.5h20.271c4.143,0,7.5-3.357,7.5-7.5
				S116.737,38.079,112.595,38.079z"/>
			<path d="M44.99,189.079h64.938c4.143,0,7.5-3.357,7.5-7.5c0.001-4.142-3.357-7.5-7.499-7.5H44.99c-4.143,0-7.5,3.357-7.5,7.5
				S40.847,189.079,44.99,189.079z"/>
			<path d="M286.865,114.717l-20-24.841c-1.424-1.769-3.571-2.797-5.842-2.797h-80.238v-60.5c0-14.625-11.898-26.523-26.523-26.523
				c-12.02,0-22.193,8.041-25.437,19.023H77.5c-2.271,0-4.418,1.028-5.842,2.797l-20,24.841c-2.211,2.745-2.211,6.66,0,9.406
				l20,24.842c1.424,1.769,3.571,2.797,5.842,2.797h50.238v71.317H27.5c-2.271,0-4.418,1.028-5.842,2.797l-20,24.841
				c-2.211,2.745-2.211,6.66,0,9.406l20,24.842c1.424,1.769,3.571,2.797,5.842,2.797h100.238v61.206c0,4.142,3.357,7.5,7.5,7.5
				h38.047c4.143,0,7.5-3.358,7.5-7.5V151.762h80.238c2.271,0,4.418-1.028,5.842-2.797l20-24.842
				C289.076,121.377,289.076,117.462,286.865,114.717z M81.091,68.762L67.129,51.42L81.09,34.079h46.648v34.683
				C127.738,68.762,81.091,68.762,81.091,68.762z M127.738,204.762H31.091L17.129,187.42l13.961-17.341h96.648V204.762z
				 M142.738,273.468c0-10.589,0-236.894,0-246.889c0-6.354,5.169-11.523,11.523-11.523c6.355,0,11.523,5.169,11.523,11.523
				c0.001,6.766,0.001,240.062,0.001,246.889H142.738z M257.433,136.762h-76.647v-34.683h76.648l13.961,17.341L257.433,136.762z"/>
			<path d="M242.595,106.079h-43.062c-4.143,0-7.5,3.357-7.5,7.5s3.357,7.5,7.5,7.5h43.062c4.143,0,7.5-3.357,7.5-7.5
				S246.737,106.079,242.595,106.079z"/>
		</g>
	</g>
</g>
<g>
</g>
<g>
</g>
<g>
</g>
<g>
</g>
<g>
</g>
<g>
</g>
<g>
</g>
<g>
</g>
<g>
</g>
<g>
</g>
<g>
</g>
<g>
</g>
<g>
</g>
<g>
</g>
<g>
</g>
</svg>
