<?xml version="1.0" encoding="iso-8859-1"?>
<!-- Generator: Adobe Illustrator 19.0.0, SVG Export Plug-In . SVG Version: 6.00 Build 0)  -->
<svg version="1.1" id="Layer_1" xmlns="http://www.w3.org/2000/svg" xmlns:xlink="http://www.w3.org/1999/xlink" x="0px" y="0px"
	 viewBox="0 0 292.178 292.178" style="enable-background:new 0 0 292.178 292.178;" xml:space="preserve">
<g>
	<g>
		<g>
			<path d="M146.089,90.825c-26.288,0-47.675,21.387-47.675,47.675c0,26.288,21.387,47.675,47.675,47.675
				c26.288,0,47.675-21.387,47.675-47.675C193.764,112.212,172.377,90.825,146.089,90.825z M146.089,171.175
				c-18.017,0-32.675-14.658-32.675-32.675c0-18.017,14.658-32.675,32.675-32.675c18.017,0,32.675,14.658,32.675,32.675
				C178.764,156.517,164.106,171.175,146.089,171.175z"/>
			<path d="M146.089,111.12c-15.097,0-27.38,12.283-27.38,27.38s12.283,27.38,27.38,27.38c15.097,0,27.38-12.283,27.38-27.38
				S161.186,111.12,146.089,111.12z M146.089,150.88c-6.826,0-12.38-5.554-12.38-12.38s5.554-12.38,12.38-12.38
				c6.826,0,12.38,5.554,12.38,12.38S152.915,150.88,146.089,150.88z"/>
			<path d="M242.724,183.216C235.937,114.587,214.901,0,146.089,0C77.159,0,56.323,114.669,49.52,183.171
				c-36.389,26.318-39.04,67.825-37.28,90.602c1.063,13.772,19.508,17.884,26.186,5.606L58.21,243h69.382v30.678
				c0,10.201,8.299,18.5,18.5,18.5c10.201,0,18.5-8.299,18.5-18.5V243h69.377l19.785,36.379c6.649,12.226,25.116,8.243,26.185-5.607
				C281.697,251.009,279.051,209.537,242.724,183.216z M46.285,233.529l-19.319,35.523c-1.585-31.253,8.553-51.49,20.732-64.427
				C47.059,213.723,46.488,224.374,46.285,233.529z M146.089,15c19.509,0,36.211,13.108,49.75,39h-99.5
				C109.878,28.108,126.58,15,146.089,15z M149.591,273.678c0,1.93-1.57,3.5-3.5,3.5s-3.5-1.57-3.5-3.5V213h7V273.678z M164.592,228
				v-22.5c-0.001-4.142-3.359-7.5-7.501-7.5h-22c-4.142,0-7.5,3.358-7.5,7.5V228h-66.13c1.756-48.341,9.624-114.008,27.965-159
				h113.318c18.333,45.042,26.215,110.621,27.973,159H164.592z M265.211,269.052l-19.313-35.512
				c-0.087-4.175-0.388-14.608-1.374-28.866C256.683,217.613,266.795,237.839,265.211,269.052z"/>
		</g>
	</g>
</g>
<g>
</g>
<g>
</g>
<g>
</g>
<g>
</g>
<g>
</g>
<g>
</g>
<g>
</g>
<g>
</g>
<g>
</g>
<g>
</g>
<g>
</g>
<g>
</g>
<g>
</g>
<g>
</g>
<g>
</g>
</svg>
