<?xml version="1.0" encoding="iso-8859-1"?>
<!-- Generator: Adobe Illustrator 19.0.0, SVG Export Plug-In . SVG Version: 6.00 Build 0)  -->
<svg version="1.1" id="Layer_1" xmlns="http://www.w3.org/2000/svg" xmlns:xlink="http://www.w3.org/1999/xlink" x="0px" y="0px"
	 viewBox="0 0 314.295 314.295" style="enable-background:new 0 0 314.295 314.295;" xml:space="preserve">
<g>
	<g>
		<g>
			<path d="M253.303,0H60.992c-12.406,0-22.5,10.094-22.5,22.5c0,10.171,0,259.607,0,269.295c0,12.406,10.094,22.5,22.5,22.5
				h192.311c12.406,0,22.5-10.094,22.5-22.5c0-9.452,0-257.603,0-269.295C275.803,10.094,265.709,0,253.303,0z M260.803,291.795
				c0,4.136-3.364,7.5-7.5,7.5H60.992c-4.136,0-7.5-3.364-7.5-7.5V268.06h207.311V291.795z M260.803,253.06H53.492V56.647h207.311
				V253.06z M260.803,41.647H53.492V22.5c0-4.136,3.364-7.5,7.5-7.5h192.311c4.136,0,7.5,3.364,7.5,7.5V41.647z"/>
			<circle cx="157.148" cy="282.897" r="11"/>
			<circle cx="97.336" cy="282.897" r="7.778"/>
			<circle cx="216.96" cy="282.897" r="7.778"/>
			<path d="M174.48,21.73h-34.666c-4.143,0-7.5,3.357-7.5,7.5s3.358,7.5,7.5,7.5h34.666c4.143,0,7.5-3.357,7.5-7.5
				S178.623,21.73,174.48,21.73z"/>
			<path d="M72.814,215.062h74.333c4.143,0,7.5-3.357,7.5-7.5v-12.167h5v12.167c0,4.143,3.357,7.5,7.5,7.5h74.333
				c4.143,0,7.5-3.357,7.5-7.5v-96c0-4.143-3.357-7.5-7.5-7.5h-39.666V91.895c0-4.143-3.357-7.5-7.5-7.5H119.98
				c-4.143,0-7.5,3.357-7.5,7.5v12.167H72.814c-4.143,0-7.5,3.357-7.5,7.5v96C65.314,211.704,68.672,215.062,72.814,215.062z
				 M201.814,187.895v-1.166h22.833c4.143,0,7.5-3.358,7.5-7.5c0-4.143-3.357-7.5-7.5-7.5h-22.833v-4.667h22.833
				c4.143,0,7.5-3.357,7.5-7.5s-3.357-7.5-7.5-7.5h-22.833v-4.667h22.833c4.143,0,7.5-3.358,7.5-7.5c0-4.143-3.357-7.5-7.5-7.5
				h-22.833v-13.333h32.166v81h-59.333v-4.667h19.667C198.457,195.395,201.814,192.037,201.814,187.895z M127.48,111.562V99.395
				h59.334v12.167v68.833h-19.667h-20H127.48V111.562z M80.314,119.062h32.166v13.333H89.647c-4.143,0-7.5,3.357-7.5,7.5
				c0,4.142,3.357,7.5,7.5,7.5h22.833v4.667H89.647c-4.143,0-7.5,3.357-7.5,7.5s3.357,7.5,7.5,7.5h22.833v4.667H89.647
				c-4.143,0-7.5,3.357-7.5,7.5c0,4.142,3.357,7.5,7.5,7.5h22.833v1.166c0,4.142,3.357,7.5,7.5,7.5h19.667v4.667H80.314V119.062z"/>
			<path d="M136.814,127.729h40.666c4.143,0,7.5-3.357,7.5-7.5s-3.357-7.5-7.5-7.5h-40.666c-4.143,0-7.5,3.357-7.5,7.5
				C129.314,124.371,132.672,127.729,136.814,127.729z"/>
			<path d="M136.814,147.395h40.666c4.143,0,7.5-3.358,7.5-7.5c0-4.143-3.357-7.5-7.5-7.5h-40.666c-4.143,0-7.5,3.357-7.5,7.5
				C129.314,144.037,132.672,147.395,136.814,147.395z"/>
			<path d="M184.98,159.562c0-4.143-3.357-7.5-7.5-7.5h-40.666c-4.143,0-7.5,3.357-7.5,7.5c0,4.142,3.358,7.5,7.5,7.5h40.666
				C181.623,167.062,184.98,163.705,184.98,159.562z"/>
		</g>
	</g>
</g>
<g>
</g>
<g>
</g>
<g>
</g>
<g>
</g>
<g>
</g>
<g>
</g>
<g>
</g>
<g>
</g>
<g>
</g>
<g>
</g>
<g>
</g>
<g>
</g>
<g>
</g>
<g>
</g>
<g>
</g>
</svg>
