<?xml version="1.0" encoding="iso-8859-1"?>
<!-- Generator: Adobe Illustrator 19.0.0, SVG Export Plug-In . SVG Version: 6.00 Build 0)  -->
<svg version="1.1" id="Layer_1" xmlns="http://www.w3.org/2000/svg" xmlns:xlink="http://www.w3.org/1999/xlink" x="0px" y="0px"
	 viewBox="0 0 274.891 274.891" style="enable-background:new 0 0 274.891 274.891;" xml:space="preserve">
<g>
	<g>
		<g>
			<path d="M267.391,8.279c-4.108,0-252.803,0-259.891,0c-4.142,0-7.5,3.358-7.5,7.5c0,23.435,0,235.632,0,243.333
				c0,4.142,3.358,7.5,7.5,7.5h259.891c4.143,0,7.5-3.358,7.5-7.5c0-8.771,0-220.506,0-243.333
				C274.891,11.637,271.533,8.279,267.391,8.279z M144.946,23.279h49.973v50.854h-0.001c0,13.777-11.209,24.986-24.986,24.986
				s-24.986-11.209-24.986-24.986V23.279z M79.973,23.279h49.973v50.854h-0.001c0,13.777-11.209,24.986-24.986,24.986
				c-13.777,0-24.986-11.209-24.986-24.986V23.279z M15,23.279h49.973v50.854c0,13.777-11.209,24.986-24.986,24.986
				C26.209,99.119,15,87.91,15,74.133V23.279z M259.891,251.612H15v-9.09c9.648,0,234.885,0,244.891,0V251.612z M129.946,192.223
				v35.298H79.973v-35.298H129.946z M79.973,177.223v-35.848h49.973v35.848h-0.001H79.973z M259.892,227.521H144.945
				c0-10.351,0-84.275,0-93.646c0-4.142-3.357-7.5-7.5-7.5H72.473c-4.142,0-7.5,3.358-7.5,7.5c0,9.372,0,83.292,0,93.646H15V105.318
				c17.873,14.349,44.056,10.762,57.473-7.914c16.015,22.293,48.977,22.267,64.973,0c16.015,22.293,48.977,22.266,64.973,0
				c13.421,18.682,39.605,22.259,57.473,7.914V227.521z M259.892,74.133h-0.001c0,13.777-11.209,24.986-24.986,24.986
				c-13.777,0-24.986-11.209-24.986-24.986V23.279h49.973V74.133z"/>
			<path d="M169.931,126.375c-4.143,0-7.5,3.358-7.5,7.5v50.848c0,4.142,3.357,7.5,7.5,7.5h64.973c4.143,0,7.5-3.358,7.5-7.5
				v-50.848c0-4.142-3.357-7.5-7.5-7.5H169.931z M227.404,177.223h-49.973v-35.848h49.973V177.223z"/>
		</g>
	</g>
</g>
<g>
</g>
<g>
</g>
<g>
</g>
<g>
</g>
<g>
</g>
<g>
</g>
<g>
</g>
<g>
</g>
<g>
</g>
<g>
</g>
<g>
</g>
<g>
</g>
<g>
</g>
<g>
</g>
<g>
</g>
</svg>
