<?xml version="1.0" encoding="iso-8859-1"?>
<!-- Generator: Adobe Illustrator 19.0.0, SVG Export Plug-In . SVG Version: 6.00 Build 0)  -->
<svg version="1.1" id="Layer_1" xmlns="http://www.w3.org/2000/svg" xmlns:xlink="http://www.w3.org/1999/xlink" x="0px" y="0px"
	 viewBox="0 0 302.268 302.268" style="enable-background:new 0 0 302.268 302.268;" xml:space="preserve">
<g>
	<g>
		<path d="M266.443,69.265c2.606,0.745,5.43,0.026,7.364-1.908l26.264-26.264c4.038-4.038,2.249-10.946-3.243-12.515l-17.997-5.142
			L273.689,5.44c-1.568-5.489-8.475-7.282-12.515-3.243l-26.263,26.264c-1.926,1.926-2.656,4.745-1.908,7.364l5.074,17.76
			l-7.49,7.49C206.09,39.08,173.73,25.678,138.295,25.678C62.039,25.679,0,87.717,0,163.973s62.039,138.294,138.294,138.294
			c76.256,0,138.294-62.039,138.294-138.294c0-35.435-13.402-67.795-35.396-92.292l7.49-7.49L266.443,69.265z M261.589,163.973
			c0,67.985-55.31,123.294-123.294,123.294C70.31,287.267,15,231.958,15,163.973S70.31,40.679,138.294,40.679
			c31.299,0,59.906,11.73,81.672,31.016l-10.62,10.62c-19.031-16.581-43.889-26.636-71.052-26.636
			C78.581,55.679,30,104.259,30,163.973s48.581,108.294,108.294,108.294c59.714,0,108.294-48.581,108.294-108.294
			c0-27.163-10.055-52.021-26.636-71.052l10.62-10.62C249.859,104.067,261.589,132.674,261.589,163.973z M132.991,169.277
			c1.464,1.464,3.384,2.197,5.303,2.197s3.839-0.732,5.303-2.197l22.926-22.926c3.205,5.114,5.066,11.154,5.066,17.622
			c0,18.358-14.936,33.294-33.294,33.294c-18.358,0-33.295-14.936-33.295-33.294c0-18.358,14.936-33.294,33.294-33.294
			c6.468,0,12.508,1.861,17.623,5.065l-22.926,22.926C130.062,161.599,130.062,166.348,132.991,169.277z M166.706,124.955
			c-7.979-5.826-17.798-9.276-28.412-9.276c-26.63,0-48.294,21.665-48.294,48.294c0,26.63,21.665,48.294,48.294,48.294
			c26.63,0,48.294-21.665,48.294-48.294c0-10.614-3.45-20.433-9.276-28.412l10.694-10.694c8.494,10.774,13.582,24.353,13.582,39.106
			c0,34.901-28.394,63.294-63.294,63.294c-34.901,0-63.294-28.394-63.294-63.294c0-34.901,28.394-63.294,63.294-63.294
			c14.753,0,28.332,5.088,39.106,13.582L166.706,124.955z M138.294,85.679C95.123,85.679,60,120.802,60,163.973
			s35.123,78.294,78.294,78.294c43.172,0,78.294-35.123,78.294-78.294c0-18.891-6.725-36.241-17.907-49.781l10.638-10.638
			c13.878,16.29,22.269,37.392,22.269,60.419c0,51.443-41.852,93.294-93.294,93.294S45,215.416,45,163.973
			s41.852-93.294,93.294-93.294c23.027,0,44.129,8.391,60.419,22.269l-10.638,10.638C174.535,92.404,157.185,85.679,138.294,85.679z
			 M274.947,37.927l5.504,1.573l-14.13,14.13l-5.504-1.573L274.947,37.927z M262.768,21.816l1.573,5.504l-14.13,14.13l-1.573-5.504
			L262.768,21.816z"/>
	</g>
</g>
<g>
</g>
<g>
</g>
<g>
</g>
<g>
</g>
<g>
</g>
<g>
</g>
<g>
</g>
<g>
</g>
<g>
</g>
<g>
</g>
<g>
</g>
<g>
</g>
<g>
</g>
<g>
</g>
<g>
</g>
</svg>
