<?xml version="1.0" encoding="iso-8859-1"?>
<!-- Generator: Adobe Illustrator 19.0.0, SVG Export Plug-In . SVG Version: 6.00 Build 0)  -->
<svg version="1.1" id="Layer_1" xmlns="http://www.w3.org/2000/svg" xmlns:xlink="http://www.w3.org/1999/xlink" x="0px" y="0px"
	 viewBox="0 0 264.185 264.185" style="enable-background:new 0 0 264.185 264.185;" xml:space="preserve">
<g>
	<g>
		<path d="M247.543,22.227c-9.9-17.148-30.228-23.811-47.614-17.73c-2.731-4.731-7.255-5.439-10.664-3.471
			c-36.672,21.172,1.863-3.276-157.344,102.406c-3.3,2.19-4.328,6.569-2.348,9.999l2.377,4.118l-16.887,9.75
			c-3.587,2.071-4.816,6.658-2.745,10.245l17.744,30.735c2.073,3.593,6.666,4.811,10.245,2.745l16.888-9.75l2.378,4.118
			c1.98,3.431,6.285,4.728,9.833,2.967l44.1-21.914c-4.55,10.236-43.176,97.126-47.65,107.191c-1.683,3.785,0.021,8.218,3.807,9.9
			c3.784,1.683,8.218-0.021,9.9-3.807l16.081-36.174h25.676v33.127c0,4.143,3.357,7.5,7.5,7.5s7.5-3.357,7.5-7.5v-33.127h25.676
			l16.081,36.174c1.682,3.78,6.107,5.49,9.9,3.807c3.785-1.683,5.489-6.115,3.807-9.9c-1.138-2.56-52.051-117.091-53.191-119.657
			c92.152-45.792,64.281-31.115,98.172-50.681c3.192-1.842,5.184-6.021,2.321-10.979C253.269,60.065,257.253,39.045,247.543,22.227z
			 M39.302,154.284l-10.244-17.745l10.392-6l10.245,17.745L39.302,154.284z M121.32,208.556h-19.008l19.008-42.76V208.556z
			 M155.328,208.556H136.32v-42.76L155.328,208.556z M69.041,151.791l-22.954-39.759l121.041-80.348l32.017,55.454L69.041,151.791z
			 M212.377,80.058c-4.704-8.147-27.781-48.118-32.5-56.292l10.393-6l32.5,56.292L212.377,80.058z M231.367,58.948l-23.72-41.083
			C231.234,12.623,247.734,41.031,231.367,58.948z"/>
	</g>
</g>
<g>
</g>
<g>
</g>
<g>
</g>
<g>
</g>
<g>
</g>
<g>
</g>
<g>
</g>
<g>
</g>
<g>
</g>
<g>
</g>
<g>
</g>
<g>
</g>
<g>
</g>
<g>
</g>
<g>
</g>
</svg>
