<?xml version="1.0" encoding="iso-8859-1"?>
<!-- Generator: Adobe Illustrator 19.0.0, SVG Export Plug-In . SVG Version: 6.00 Build 0)  -->
<svg version="1.1" id="Layer_1" xmlns="http://www.w3.org/2000/svg" xmlns:xlink="http://www.w3.org/1999/xlink" x="0px" y="0px"
	 viewBox="0 0 360.039 360.039" style="enable-background:new 0 0 360.039 360.039;" xml:space="preserve">
<g>
	<g>
		<path d="M254.459,299.256c-1.142-8.976-27.934-219.571-28.654-225.231c0-9.5,0-37.923,0-47.382
			C225.805,11.952,213.853,0,199.162,0h-38.286c-14.467,0-26.642,11.759-26.642,26.642c0,5.162,0,42.143,0,47.382
			c-1.305,10.254-27.368,215.123-28.654,225.231c-0.334,2.623,0.739,5.229,2.823,6.857l67,52.337c2.709,2.116,6.515,2.124,9.233,0
			c6.803-5.314,59.649-46.594,67-52.337C253.553,304.615,254.812,302.026,254.459,299.256z M199.162,15
			c6.42,0,11.643,5.223,11.643,11.642v9.655L169.717,15H199.162z M150.29,21.825l60.515,31.368V67h-32.031l-29.54-15.312
			C149.234,24.151,148.89,24.889,150.29,21.825z M148.339,82h26.779l39.163,20.299c2.182,17.151,1.984,15.59,4.142,32.556
			l-72.056-37.349L148.339,82z M144.35,113.357l76.374,39.586l4.142,32.556l-84.145-43.614L144.35,113.357z M138.704,157.734
			l88.462,45.853l4.142,32.555l-96.233-49.881C136.354,176.209,137.447,167.619,138.704,157.734z M180.019,343.022l-59.022-46.105
			l0.77-6.049l75.152,38.953L180.019,343.022z M209.92,319.665l-86.136-44.647c1.372-10.785,2.298-18.063,3.629-28.527
			l105.909,54.894L209.92,319.665z M129.429,230.64l3.629-28.528l100.551,52.118l4.142,32.556L129.429,230.64z"/>
	</g>
</g>
<g>
</g>
<g>
</g>
<g>
</g>
<g>
</g>
<g>
</g>
<g>
</g>
<g>
</g>
<g>
</g>
<g>
</g>
<g>
</g>
<g>
</g>
<g>
</g>
<g>
</g>
<g>
</g>
<g>
</g>
</svg>
