<?xml version="1.0" encoding="iso-8859-1"?>
<!-- Generator: Adobe Illustrator 19.0.0, SVG Export Plug-In . SVG Version: 6.00 Build 0)  -->
<svg version="1.1" id="Layer_1" xmlns="http://www.w3.org/2000/svg" xmlns:xlink="http://www.w3.org/1999/xlink" x="0px" y="0px"
	 viewBox="0 0 321.001 321.001" style="enable-background:new 0 0 321.001 321.001;" xml:space="preserve">
<g>
	<g>
		<path d="M317.612,155.077c-0.009-0.006-0.016-0.013-0.025-0.019l-74.755-48.587c-2.163-43.541-38.263-78.299-82.331-78.299
			c-44.068,0-80.169,34.757-82.332,78.298c-8.385,5.45-74.773,48.602-74.783,48.608C1.345,156.423,0,158.765,0,161.346v10.192
			c0,21.353,17.372,38.725,38.725,38.725h56.404l-10.404,30.702c-10.971-0.821-21.709,5.445-26.038,16.18
			c-5.366,13.311,1.061,28.423,14.372,33.791c13.311,5.366,28.425-1.06,33.791-14.371c4.485-11.12,0.72-23.313-8.122-30.185
			l12.239-36.117h99.066l12.239,36.117c-8.901,6.945-12.549,19.205-8.122,30.185v0.001c5.356,13.28,20.517,19.722,33.792,14.37
			c13.31-5.367,19.739-20.48,14.371-33.791c-4.406-10.928-15.243-17.018-26.04-16.189l-10.401-30.693h56.403
			c21.353,0,38.726-17.372,38.726-38.725v-10.192C321,158.915,319.78,156.503,317.612,155.077z M92.938,270.956
			c-2.261,5.608-8.663,8.329-14.27,6.068c-5.608-2.261-8.33-8.662-6.069-14.27c2.263-5.61,8.666-8.33,14.271-6.069
			C92.49,258.95,95.205,265.334,92.938,270.956z M234.13,256.686c5.603-2.264,12,0.434,14.27,6.069
			c2.266,5.618-0.446,12.003-6.068,14.269c-5.608,2.259-12.009-0.461-14.271-6.068C225.794,265.338,228.508,258.951,234.13,256.686z
			 M160.5,43.172c34.649,0,63.279,26.269,67.023,59.937H93.477C97.22,69.441,125.85,43.172,160.5,43.172z M87.786,118.109h145.427
			l54.985,35.737H32.802L87.786,118.109z M306,171.539c0,13.082-10.644,23.725-23.726,23.725c-3.285,0-222.818,0-243.549,0
			C25.643,195.263,15,184.621,15,171.539v-2.692h291V171.539z"/>
	</g>
</g>
<g>
</g>
<g>
</g>
<g>
</g>
<g>
</g>
<g>
</g>
<g>
</g>
<g>
</g>
<g>
</g>
<g>
</g>
<g>
</g>
<g>
</g>
<g>
</g>
<g>
</g>
<g>
</g>
<g>
</g>
</svg>
