<?xml version="1.0" encoding="iso-8859-1"?>
<!-- Generator: Adobe Illustrator 19.0.0, SVG Export Plug-In . SVG Version: 6.00 Build 0)  -->
<svg version="1.1" id="Layer_1" xmlns="http://www.w3.org/2000/svg" xmlns:xlink="http://www.w3.org/1999/xlink" x="0px" y="0px"
	 viewBox="0 0 319.375 319.375" style="enable-background:new 0 0 319.375 319.375;" xml:space="preserve">
<g>
	<g>
		<g>
			<path d="M311.875,30.521H7.5c-4.143,0-7.5,3.358-7.5,7.5c0,12.061,0,235.104,0,243.333c0,4.142,3.357,7.5,7.5,7.5h304.375
				c4.143,0,7.5-3.358,7.5-7.5c0-6.87,0-237.458,0-243.333C319.375,33.879,316.018,30.521,311.875,30.521z M304.375,273.854H15
				V95.902h289.375V273.854z M304.375,80.902H15V45.521h289.375V80.902z"/>
			<circle cx="36.021" cy="63.211" r="9"/>
			<circle cx="66.021" cy="63.211" r="9"/>
			<circle cx="96.021" cy="63.211" r="9"/>
			<path d="M141.02,163.188H36.354c-4.143,0-7.5,3.358-7.5,7.5v87c0,4.142,3.357,7.5,7.5,7.5H141.02c4.143,0,7.5-3.358,7.5-7.5v-87
				C148.52,166.545,145.163,163.188,141.02,163.188z M133.52,250.188H43.854v-72h89.666V250.188z"/>
			<path d="M283.021,163.188h-118c-4.143,0-7.5,3.358-7.5,7.5v32c0,4.142,3.357,7.5,7.5,7.5h118c4.143,0,7.5-3.358,7.5-7.5v-32
				C290.521,166.545,287.163,163.188,283.021,163.188z M275.521,195.188h-103v-17h103V195.188z"/>
			<path d="M283.021,218.188h-118c-4.143,0-7.5,3.358-7.5,7.5v32c0,4.142,3.357,7.5,7.5,7.5h118c4.143,0,7.5-3.358,7.5-7.5v-32
				C290.521,221.545,287.163,218.188,283.021,218.188z M275.521,250.188h-103v-17h103V250.188z"/>
			<path d="M36.021,154.521h247c4.143,0,7.5-3.358,7.5-7.5v-34.953c0-4.142-3.357-7.5-7.5-7.5h-247c-4.143,0-7.5,3.358-7.5,7.5
				v34.953C28.521,151.163,31.878,154.521,36.021,154.521z M43.521,119.568h232v19.953h-232V119.568z"/>
		</g>
	</g>
</g>
<g>
</g>
<g>
</g>
<g>
</g>
<g>
</g>
<g>
</g>
<g>
</g>
<g>
</g>
<g>
</g>
<g>
</g>
<g>
</g>
<g>
</g>
<g>
</g>
<g>
</g>
<g>
</g>
<g>
</g>
</svg>
